/* XPM */
static const char *expand_xpm[] = {
"11 11 16 2",
"00 c black",
"01 c #848484",
"02 c none",
"03 c gray100",
"04 c gray100",
"05 c gray100",
"06 c gray100",
"07 c gray100",
"08 c gray100",
"09 c gray100",
"10 c gray100",
"11 c gray100",
"12 c gray100",
"13 c gray100",
"14 c gray100",
"15 c gray100",
"0202020202020202020202",
"0101010101010101010101",
"0103030303030303030301",
"0103030303030303030301",
"0103030303030303030301",
"0103030000000000030301",
"0103030303030303030301",
"0103030303030303030301",
"0103030303030303030301",
"0101010101010101010101",
"0202020202020202020202"
};
