/* XPM */
static const char *expand_xpm[] =
{
/* width height ncolors chars_per_pixel */
"11 11 6 1",
/* colors */
"A c None",
"B c #CCCCCCCCCCCC",
"C c #EEEEEEEEEEEE",
"D c #DDDDDDDDDDDD",
"E c #BBBBBBBBBBBB",
"F c #AAAAAAAAAAAA",
/* pixels */
"AAAAAAAAAAA",
"CBFEEFEEFBC",
"ABEFEEFEEEA",
"ACEFEFEFEAA",
"AADEFEFEBAA",
"AAAEEFEEAAA",
"AAADFEFDAAA",
"AAAABFBAAAA",
"AAAACECAAAA",
"AAAAABAAAAA",
"AAAAAAAAAAA",
};
