/* XPM */
static const char *fileopen[] = {
/* columns rows colors chars-per-pixel */
"32 32 230 2",
"   c #000000",
".  c #000311",
"X  c #000618",
"o  c #00091E",
"O  c #00142D",
"+  c #001936",
"@  c #001B39",
"#  c #000558",
"$  c #00016D",
"%  c #000271",
"&  c #001671",
"*  c #00167C",
"=  c #072B50",
"-  c #072F58",
";  c #0F3E6D",
":  c #093D71",
">  c #104071",
",  c #21466A",
"<  c #25486D",
"1  c #000B8B",
"2  c #000990",
"3  c #00118E",
"4  c #001590",
"5  c #001B94",
"6  c #002387",
"7  c #002197",
"8  c #002499",
"9  c #002A9B",
"0  c #00309A",
"q  c #0022A0",
"w  c #002EA4",
"e  c #002EAA",
"r  c #0030A3",
"t  c #0034AA",
"y  c #003BAD",
"u  c #0034BF",
"i  c #003CB1",
"p  c #003BBF",
"a  c #0236CD",
"s  c #003EC4",
"d  c #0143AF",
"f  c #0043B4",
"g  c #0048B7",
"h  c #014BB9",
"j  c #084BB5",
"k  c #094EBA",
"l  c #0052BC",
"z  c #0A52BD",
"x  c #1D55BD",
"c  c #275C8F",
"v  c #295682",
"b  c #2A5D90",
"n  c #2458A0",
"m  c #225FB0",
"M  c #3560B5",
"N  c #0044C5",
"B  c #014CC8",
"V  c #0243DB",
"C  c #024BDE",
"Z  c #0855C0",
"A  c #0954C9",
"S  c #0F59C9",
"D  c #0056D2",
"F  c #0450DF",
"G  c #1057C0",
"H  c #125BC3",
"J  c #155ECA",
"K  c #0040E7",
"L  c #064EE8",
"P  c #084BE3",
"I  c #0654E1",
"U  c #0758E2",
"Y  c #0850E6",
"T  c #095DE3",
"R  c #0561D7",
"E  c #0F67DB",
"W  c #1560C8",
"Q  c #1964CB",
"!  c #1B6ACF",
"~  c #1A6ED3",
"^  c #186EDE",
"/  c #0B62E5",
"(  c #0067FF",
")  c #0572FF",
"_  c #1468E5",
"`  c #1E61E8",
"'  c #1F70E5",
"]  c #1177FF",
"[  c #1C7CFF",
"{  c #204BCD",
"}  c #2561C3",
"|  c #2067CA",
" . c #2D60C2",
".. c #2C6CC6",
"X. c #2A6BC9",
"o. c #2874D6",
"O. c #3365DB",
"+. c #3D69D9",
"@. c #3474CD",
"#. c #3577D2",
"$. c #377BD3",
"%. c #2165E7",
"&. c #2968E4",
"*. c #2274E2",
"=. c #2A77E6",
"-. c #2C7BE6",
";. c #2277FF",
":. c #2A77F6",
">. c #2B7CFF",
",. c #3570E8",
"<. c #347EE6",
"1. c #3479F3",
"2. c #4F7DBB",
"3. c #4675C7",
"4. c #4676C8",
"5. c #467BCB",
"6. c #4975C7",
"7. c #4971DB",
"8. c #3C80D3",
"9. c #2881FF",
"0. c #3681EA",
"q. c #3F85E6",
"w. c #3084FF",
"e. c #3C87FF",
"r. c #3D8AFF",
"t. c #5F8FBE",
"y. c #6592BF",
"u. c #4480CE",
"i. c #4981CE",
"p. c #4385D4",
"a. c #4D8BD4",
"s. c #5385DA",
"d. c #408AEF",
"f. c #498CE7",
"g. c #4282F7",
"h. c #488EFF",
"j. c #459AFF",
"k. c #4A93F3",
"l. c #4B91FF",
"z. c #5493E7",
"x. c #5F9AE8",
"c. c #5495FD",
"v. c #549CF7",
"b. c #559BFF",
"n. c #589BFF",
"m. c #5EA5FB",
"M. c #6888D3",
"N. c #6A89D8",
"B. c #6A98CA",
"V. c #6498D4",
"C. c #6D9DD4",
"Z. c #749EC7",
"A. c #789ECC",
"S. c #659BE5",
"D. c #669EEA",
"F. c #629FFF",
"G. c #77A0C7",
"H. c #67A0E8",
"J. c #65A2FF",
"K. c #67AAFF",
"L. c #6CA9FF",
"P. c #78A6E4",
"I. c #7EA6E8",
"U. c #79ACEE",
"Y. c #71AAFF",
"T. c #78ADF0",
"R. c #71B3F2",
"E. c #7FB1F1",
"W. c #7BB0FF",
"Q. c #88AFD9",
"!. c #83A6E8",
"~. c #82ABE9",
"^. c #89AFEA",
"/. c #80B0EF",
"(. c #8EB5EA",
"). c #80B2FF",
"_. c #89BAFF",
"`. c #95B8EB",
"'. c #9CB6E7",
"]. c #9BBFF4",
"[. c #A1BAE4",
"{. c #8EC5FA",
"}. c #94C2FE",
"|. c #9FC3F5",
" X c #99C4FD",
".X c #A0C1ED",
"XX c #A8C2E6",
"oX c #ACC2ED",
"OX c #A0C0F5",
"+X c #A7C8F5",
"@X c #A3CBFE",
"#X c #AECDF6",
"$X c #ABCFFF",
"%X c #ACD0FE",
"&X c #AFDBFF",
"*X c #B1C6EE",
"=X c #B5CAEF",
"-X c #B9CDEF",
";X c #B5CCF5",
":X c #BBCEF1",
">X c #BFD0EF",
",X c #B5D1F6",
"<X c #B4D6FE",
"1X c #B4DBFF",
"2X c #BBD2F6",
"3X c #B8D7FF",
"4X c #BBDAFF",
"5X c #B5E0FF",
"6X c #BCE1FF",
"7X c #C3D5F3",
"8X c #C5DAF5",
"9X c #C1DCFF",
"0X c #CCDBF2",
"qX c #C8DEFF",
"wX c #D0DDF2",
"eX c #C4E1FE",
"rX c #CBE3FE",
"tX c #CFE8FF",
"yX c #D4E0F3",
"uX c #D2E5FC",
"iX c #D5EAFF",
"pX c #DBECFD",
"aX c #DEF0FF",
"sX c #E1EDFB",
"dX c #E2F1FF",
"fX c #EAF5FE",
"gX c #EDF8FE",
"hX c #F5FBFF",
"jX c #FEFEFF",
"kX c None",
/* pixels */
"kXkXkXkXkXkXkXkXkXkXkXkXkXkXkXkXkXkXkXkXkXkXkXkXkXkXkXkXkXkXkXkX",
"kXkXkXkXkXkXkXkXkXkXkXkXkXkXkXkXkXkXkXkXkXkXkXkXkXkXkXkXkXkXkXkX",
"kXkXkXkXkXkXkXkXkXkXkXkXkXkXkXkXkXkXkXkXkXkXkXkXkXkXkXkXkXkXkXkX",
"kXkXkXkXkXkXkXkXkXkXkXkXkXkXkXkXkXkXkXkXkXkXkXkXkXkXkXkXkXkXkXkX",
"kXkXkXkXkXkXkXkXkXkXkXkXkXkXkX: y.G.Z.Z.Z.Z.Z.Z.Z.Z.Z.Z.G.y.- kX",
"kXl h h g f f f y i i t i i kXc hXjXjXjXjXjXjXjXjXjXjXjXjXdX, kX",
"kXh ..i.5.5.4.4.4.4.3.3. .9 X b hXjXjXjXjXjXjXjXjXjXjXhXjXdX< kX",
"kXh (.gXaXaXaXaXaXaXaXhXoX9   v hXjXjXjXjXjXjXjXjXhXhXhXhXaX< kX",
"kXh D.4X1X1X<X3X<X3X<XrX'.q * n hXjXjXjXjXjXjXjXhXhXhXhXhXpX, kX",
"kXf x.<X%X%X$X%X$X%X$X4X:XM.N.2.gXjXjXjXjXjXjXhXhXhXhXfXgXrX; kX",
"kXf z.@X X@X X X X X X X$X<X1XB.sXjXjXjXhXhXhXhXhXgXfXfXdXeX; kX",
"kXf f. X XH.W z z z z z k j f m 0XyXwX0X0X0X0X0X7X7XwXsXdXeX; kX",
"kXf q.{._.o...XX'.[.'.[.'.XX[.A.yXsXsXpXsXsX0X-XuX7X-XaXdXeX> kX",
"kXy 0.W.K.~ @.pXiXpXiXiXiXiXpXQ.pXfXfXsXdXfX8X].aX0X:XaXaX6X; kX",
"kXy =.Y.m.! ! @X<X%X%X%X%X%X%XC.uXaXpXpXiXiX,X`.iX7X-XpXpX6X; kX",
"kXy ' J.m.W Q  X@X@X@X@X@X@X@XB.qXpXuXuXrXrX#X(.rX7X-XiXpX1X; kX",
"kXy _ b.k.W J _.].].]._.]. X Xa.%XuXeXeXqXqX+X^.9X2X=XiXiX1X> kX",
"kXy / l.q.G S W._._._._._._._.p.%XeXqX4X4X4X|.~.3X;XoXiXiX1X; kX",
"kXt T r.0.H A K.W.W.W.W.W.W.W.$.$X8X3X3X3X3X].!.1X;XoXtXiX&X; kX",
"kXt T w.-.z A n.Y.L.L.L.L.L.Y.$.$XqX4X4X4X9X].^.3X;X;XpXiX1X> kX",
"kXt F 9.*.z B l.J.F.F.F.F.F.J.@.D.U.T.U.U.T.D.7.E.~.P.{.{.R.= kX",
"kXt F [ ^ j N r.c.c.c.c.c.c.c.c.X.......X...} m u.M & + @ O   kX",
"kXw C ] E d s w.h.h.h.h.h.h.h.h.l.l.l.h.h.h.g.,.K.7.$   kXkXkXkX",
"kXw C ) R f s >.h.e.e.r.e.e.e.e.r.e.e.e.e.e.1.&.b.+.$   kXkXkXkX",
"kXw V ( D y s ;.w.w.w.w.w.w.w.w.w.w.w.w.w.w.:.%.j.O.$   kXkXkXkX",
"kXe a K u t p P Y L L P P P P P P P P P P P a a ` { %   kXkXkXkX",
"kX6 8 8 7 9 0 9 9 9 8 8 8 8 5 5 3 3 3 3 3 3 1 1 1 2 #   kXkXkXkX",
"kXkX. . X . . X . . . . . . . . . . . . . . . . . .     kXkXkXkX",
"kXkXkXkXkXkXkXkXkXkXkXkXkXkXkXkXkXkXkXkXkXkXkXkXkXkXkXkXkXkXkXkX",
"kXkXkXkXkXkXkXkXkXkXkXkXkXkXkXkXkXkXkXkXkXkXkXkXkXkXkXkXkXkXkXkX",
"kXkXkXkXkXkXkXkXkXkXkXkXkXkXkXkXkXkXkXkXkXkXkXkXkXkXkXkXkXkXkXkX",
"kXkXkXkXkXkXkXkXkXkXkXkXkXkXkXkXkXkXkXkXkXkXkXkXkXkXkXkXkXkXkXkX"
};
