/* XPM */
static const char *filesave[] = {
/* columns rows colors chars-per-pixel */
"32 32 193 2",
"   c #000087",
".  c #000089",
"X  c #000592",
"o  c #000995",
"O  c #04149E",
"+  c #1A1F9A",
"@  c #0619A2",
"#  c #081AA3",
"$  c #0D26AE",
"%  c #142DAF",
"&  c #112AB0",
"*  c #1B32AF",
"=  c #222AA2",
"-  c #2136AF",
";  c #2539AF",
":  c #2C37A7",
">  c #2D38A7",
",  c #2B3DAF",
"<  c #001CEF",
"1  c #133EC2",
"2  c #0023EE",
"3  c #1E39E6",
"4  c #3341AF",
"5  c #3645B0",
"6  c #1A42C2",
"7  c #184AEF",
"8  c #1A53F2",
"9  c #2045C1",
"0  c #2349C1",
"q  c #2B4DC1",
"w  c #3252C1",
"e  c #3956C1",
"r  c #3D59C1",
"t  c #295BEF",
"y  c #295FF3",
"u  c #2F7CC8",
"i  c #387ECA",
"p  c #2965F5",
"a  c #3768F1",
"s  c #386DF5",
"d  c #57569F",
"f  c #4F54A6",
"g  c #465DBF",
"h  c #485BBB",
"j  c #5555A0",
"k  c #4B60BE",
"l  c #435CC1",
"z  c #495FC0",
"x  c #4961C1",
"c  c #4B69DC",
"v  c #5170DF",
"b  c #4F6FE1",
"n  c #427CE0",
"m  c #4575F2",
"M  c #4378F7",
"N  c #537EEB",
"B  c #2384FF",
"V  c #2A87FF",
"C  c #2D8AFF",
"Z  c #3783EE",
"A  c #338DFE",
"S  c #388FFF",
"D  c #3790FF",
"F  c #3C93FE",
"G  c #3E9DFF",
"H  c #4386F3",
"J  c #4F83F7",
"K  c #4A8BF3",
"L  c #4195FE",
"P  c #439BFF",
"I  c #4B9BFF",
"U  c #5482F4",
"Y  c #508EF5",
"T  c #5B8EF8",
"R  c #5391F5",
"E  c #5595FA",
"W  c #509EFD",
"Q  c #589BF7",
"!  c #46A0FF",
"~  c #4BA3FE",
"^  c #55A2FE",
"/  c #55A8F4",
"(  c #53A8FF",
")  c #5CA2F2",
"_  c #5AA6FD",
"`  c #5EA9FF",
"'  c #6981DE",
"]  c #7989CE",
"[  c #6083E9",
"{  c #628EF6",
"}  c #6F92E9",
"|  c #6799FA",
" . c #7193E9",
".. c #7898E9",
"X. c #709CF7",
"o. c #7EA4D6",
"O. c #63ADFF",
"+. c #68AFFF",
"@. c #6BB1FF",
"#. c #6BBAFF",
"$. c #73A5FB",
"%. c #76AEF0",
"&. c #7DACFB",
"*. c #72B5FE",
"=. c #75BAFF",
"-. c #7CB4F8",
";. c #7ABDFF",
":. c #77C0FF",
">. c #7CC0FF",
",. c #8294D4",
"<. c #8798D8",
"1. c #899ADB",
"2. c #969FCB",
"3. c #989CC4",
"4. c #9EA9CD",
"5. c #98A7DD",
"6. c #8EB5E9",
"7. c #80B7FA",
"8. c #83B9FA",
"9. c #89BEFC",
"0. c #A4A9CC",
"q. c #A9AECA",
"w. c #A2AED3",
"e. c #A5B5CB",
"r. c #A9B8CD",
"t. c #A5B3D3",
"y. c #A7B3DA",
"u. c #AEB1D2",
"i. c #A8B5DD",
"p. c #AEBCD2",
"a. c #BABACB",
"s. c #B3B7D6",
"d. c #B0BFD3",
"f. c #BABEDA",
"g. c #AAB7E1",
"h. c #ADBAE3",
"j. c #B1BBE3",
"k. c #83C2FF",
"l. c #8BC1FD",
"z. c #93CDFF",
"x. c #99C7FF",
"c. c #98CBFF",
"v. c #B4C2D4",
"b. c #BBC8D9",
"n. c #AEC8EC",
"m. c #B4C8E5",
"M. c #B4CBEB",
"N. c #B9CCE6",
"B. c #BBCEE9",
"V. c #B1CCF0",
"C. c #BED1EA",
"Z. c #B6D0F3",
"A. c #C0BFCB",
"S. c #C6C2C9",
"D. c #C0C4DE",
"F. c #C9C8D6",
"G. c #D5D3D6",
"H. c #D3D3DB",
"J. c #D6D9DE",
"K. c #D9D7D7",
"L. c #DAD7DD",
"P. c #DCDADC",
"I. c #C6CBE2",
"U. c #CDCEE2",
"Y. c #C1D3EC",
"T. c #C5D8EE",
"R. c #CBDCF1",
"E. c #DADAE2",
"W. c #DFE0E4",
"Q. c #E2DFE1",
"!. c #E7E1DB",
"~. c #E2E2E6",
"^. c #E4E5E8",
"/. c #EAE7E6",
"(. c #EEE9E3",
"). c #E8E9EB",
"_. c #E6EDFF",
"`. c #ECEEF4",
"'. c #E9EEFF",
"]. c #EFF0F5",
"[. c #ECF1FF",
"{. c #F2EFEA",
"}. c #F7F1E4",
"|. c #F6F3EB",
" X c #FAF5EC",
".X c #FEFAEC",
"XX c #F2F1F2",
"oX c #F2F5FF",
"OX c #F5F8FF",
"+X c #F8F5F3",
"@X c #FCFAF4",
"#X c #FEFEFE",
"$X c None",
/* pixels */
"$X$X$X$X$X$X$X$X$X$X$X$X$X$X$X$X$X$X$X$X$X$X$X$X$X$X$X$X$X$X$X$X",
"$X$X$X$X$X$X$X$X$X$X$X$X$X$X$X$X$X$X$X$X$X$X$X$X$X$X$X$X$X$X$X$X",
"$X$X$X. X # # # @ # # @ # @ @ @ O # # @ O O @ @ # @ o . $X$X$X$X",
"$X$X$Xo n #.6.B.Z.V.V.M.n.n.n.n.n.n.n.n.n.n.n.m.o.~ Z @ $X$X$X$X",
"$X$X$X$ k.z.N.@X#X#X#XOXoXoXoXoXOX#X#X#X#X#X#X@Xr.) / 1 $X$X$X$X",
"$X$X$X% >.l.N.+XOXOX[.oXoX'.'._.'.'.[.[.oXoX#XXXe.i u 6 $X$X$X$X",
"$X$X$X% >.k.N.+X#XOXoXoX[.[.'._._.'.'.[.[.oXoXXXe.W ~ 6 $X$X$X$X",
"$X$X$X% >.k.C.+X#XOXOXOXoX[.oX'._._.'.'.[.oXoXXXe._ ( 6 $X$X$X$X",
"$X$X$X% :.k.C.@X#X#XOXOXoXoXoX'.[._._._.[.[.[.XXr.^ ( 6 $X$X$X$X",
"$X$X$X% :.9.Y.@X#X#X#XOXOXOXoXoX[.'._._.[.[.[.].r.^ ( 6 $X$X$X$X",
"$X$X$X* ;.8.T.@X#X#X#X#XOXOXoXoX[.[.[._._.'.'.].p.^ ~ 6 $X$X$X$X",
"$X$X$X* ;.;.T.@X#X#X#X#X#XOXOXoXoX[.[.'._._.'.`.d.^ ~ 5 $X$X$X$X",
"$X$X$X* ;.;.R.@X#X#X#X#X#X#XOXOXOXoX[.[.'.'.'.`.v.I ! q $X$X$X$X",
"$X$X$X* ;.;.R.@X#X#X#X#X#X#X#X#X#XoXOXoX[.[.'.`.v.^ ~ q $X$X$X$X",
"$X$X$X- ;.=.R.+X`.).XX).).).^.^.W.W.W.E.P.L.J.K.b.W ! w $X$X$X$X",
"$X$X$X- ;.=.9.9.9.9.9.9.9.8.8.8.k.8.8.-.-.-.-.-.*.I ! w $X$X$X$X",
"$X$X$X; :.=.@.@._ ^ ^ W W I I P P L L F L P P L L F ~ w $X$X$X$X",
"$X$X$X; >.@.*.E [ .. . . . . .}  . . . .N 8 y L L F ! e $X$X$X$X",
"$X$X$X, ;.@.@.R U..X X X X|.|.|.|.|.|..Xj.7 y L L D ! e $X$X$X$X",
"$X$X$X, ;.@.+.R I.+X).~.).XXXX].XX`.XX.Xg.y a L F D ! r $X$X$X$X",
"$X$X$X, ;.+.O.R D. X' 3 5.|.).).).).).{.g.a M F F A ! r $X$X$X$X",
"$X$X$X, ;.O.O.Y f.}.v < 1.(.~.~.~.~.~./.i.m J F D A ! r $X$X$X$X",
"$X$X$X4 ;.O.O.K s.(.v 2 <.!.E.E.L.E.E.Q.y.U T F A C P l $X$X$X$X",
"$X$X$X4 ;.` ` K u.!.c 2 ,.Q.U.H.U.J.U.P.w.{ | S C C P z $X$X$X$X",
"$X$X$X4 :._ ` K 4.G.2.] q.F.F.F.F.F.F.F.w.X.$.D C C P k $X$X$X$X",
"$X$X$X4 :._ ( H 3.S.A.S.a.a.a.a.a.a.a.a.4.&.&.A B B G x $X$X$X$X",
"$X$X$X+ %.=.#.Q q.K.H.H.H.H.H.H.G.G.J.G.d.x.c.! G G _ > $X$X$X$X",
"$X$X$X  = h z h j d j j j j d j j j j j j h k g g k > . $X$X$X$X",
"$X$X$X$X$X$X$X$X$X$X$X$X$X$X$X$X$X$X$X$X$X$X$X$X$X$X$X$X$X$X$X$X",
"$X$X$X$X$X$X$X$X$X$X$X$X$X$X$X$X$X$X$X$X$X$X$X$X$X$X$X$X$X$X$X$X",
"$X$X$X$X$X$X$X$X$X$X$X$X$X$X$X$X$X$X$X$X$X$X$X$X$X$X$X$X$X$X$X$X",
"$X$X$X$X$X$X$X$X$X$X$X$X$X$X$X$X$X$X$X$X$X$X$X$X$X$X$X$X$X$X$X$X"
};
