/* XPM */
static const char * reload[] = {
"32 32 392 2",
"  	c None",
". 	c #006208",
"+ 	c #00600A",
"@ 	c #005C07",
"# 	c #005400",
"$ 	c #005802",
"% 	c #5E9964",
"& 	c #5E9462",
"* 	c #004F00",
"= 	c #005300",
"- 	c #81AD85",
"; 	c #FEFEFE",
"> 	c #8EB495",
", 	c #085711",
"' 	c #004E08",
") 	c #004B00",
"! 	c #76A47A",
"~ 	c #FFFFFF",
"{ 	c #C2D7C9",
"] 	c #266831",
"^ 	c #004808",
"/ 	c #006200",
"( 	c #006000",
"_ 	c #0A6B0C",
": 	c #257827",
"< 	c #317E34",
"[ 	c #307C34",
"} 	c #307B35",
"| 	c #307A35",
"1 	c #307837",
"2 	c #307737",
"3 	c #286D31",
"4 	c #94B69A",
"5 	c #FAFFF5",
"6 	c #BCFC9E",
"7 	c #F9FFF3",
"8 	c #E7EDEB",
"9 	c #3A7445",
"0 	c #00450A",
"a 	c #006301",
"b 	c #448D45",
"c 	c #A9CAAA",
"d 	c #ECEFEF",
"e 	c #FFFBFF",
"f 	c #FEFCFE",
"g 	c #FDFCFD",
"h 	c #FCFCFC",
"i 	c #FFFDFF",
"j 	c #F2FCEE",
"k 	c #86F05B",
"l 	c #8EF067",
"m 	c #F1FFE9",
"n 	c #F1F3F5",
"o 	c #41754E",
"p 	c #00420E",
"q 	c #1B741C",
"r 	c #AECDAF",
"s 	c #F1FDEB",
"t 	c #BEF1AB",
"u 	c #99EB7E",
"v 	c #90EA74",
"w 	c #90E973",
"x 	c #90E974",
"y 	c #8DE870",
"z 	c #75E550",
"A 	c #6CE444",
"B 	c #78E654",
"C 	c #D9F6CE",
"D 	c #ECF0EE",
"E 	c #306841",
"F 	c #004417",
"G 	c #006500",
"H 	c #207820",
"I 	c #D7E6D8",
"J 	c #F9FEF7",
"K 	c #9EE58B",
"L 	c #5DD93C",
"M 	c #4ED629",
"N 	c #57D834",
"O 	c #5CD93B",
"P 	c #5CD93C",
"Q 	c #62DA41",
"R 	c #60DA40",
"S 	c #51D72E",
"T 	c #ACE89A",
"U 	c #59876B",
"V 	c #003E13",
"W 	c #146E14",
"X 	c #CDDCCE",
"Y 	c #EEF6EA",
"Z 	c #6DD457",
"` 	c #3CCA1E",
" .	c #57D03E",
"..	c #A1E292",
"+.	c #D9F0D1",
"@.	c #E3F3DE",
"#.	c #E2F3DD",
"$.	c #E2F3DC",
"%.	c #E2F4DC",
"&.	c #E0F0DA",
"*.	c #CDE9C6",
"=.	c #43CC26",
"-.	c #A4E296",
";.	c #FFFEFF",
">.	c #8CA897",
",.	c #024116",
"'.	c #006100",
").	c #8CB58D",
"!.	c #FFF9FF",
"~.	c #6ACE5A",
"{.	c #28BE0F",
"].	c #6ACD5B",
"^.	c #E9F1E7",
"/.	c #F2EDF4",
"(.	c #B4C8BA",
"_.	c #99B7A1",
":.	c #9BB7A2",
"<.	c #9BB6A3",
"[.	c #9BB5A4",
"}.	c #96B1A0",
"|.	c #CAD0D1",
"1.	c #EBEFEA",
"2.	c #50C63D",
"3.	c #ABDFA3",
"4.	c #88A595",
"5.	c #004016",
"6.	c #147115",
"7.	c #EAE6EB",
"8.	c #ACDAA6",
"9.	c #1DB40B",
"0.	c #49BF3B",
"a.	c #ECEDEB",
"b.	c #C5D3C8",
"c.	c #317836",
"d.	c #005404",
"e.	c #005100",
"f.	c #004F03",
"g.	c #004E05",
"h.	c #004D07",
"i.	c #004C08",
"j.	c #004A09",
"k.	c #003D00",
"l.	c #6A9476",
"m.	c #EDF0EB",
"n.	c #D3E7CE",
"o.	c #F4EDF5",
"p.	c #6E937C",
"q.	c #004015",
"r.	c #005F00",
"s.	c #549155",
"t.	c #F2ECF3",
"u.	c #3AB531",
"v.	c #02A500",
"w.	c #B3D9B0",
"x.	c #D8D9DB",
"y.	c #17651A",
"z.	c #00440B",
"A.	c #6C9579",
"B.	c #FFF8FF",
"C.	c #D3D6D7",
"D.	c #437253",
"E.	c #003C10",
"F.	c #005E00",
"G.	c #8DB28F",
"H.	c #F1ECF1",
"I.	c #95CE92",
"J.	c #97CE94",
"K.	c #F4EDF2",
"L.	c #78A07A",
"M.	c #005000",
"N.	c #00450F",
"O.	c #72977F",
"P.	c #A5B8AC",
"Q.	c #16532B",
"R.	c #003D13",
"S.	c #005F01",
"T.	c #77A57A",
"U.	c #B7C7B8",
"V.	c #B7C5BA",
"W.	c #B7C4BB",
"X.	c #B8C7BA",
"Y.	c #397A3F",
"Z.	c #004B1B",
"`.	c #175830",
" +	c #02461B",
".+	c #006306",
"++	c #046108",
"@+	c #055F08",
"#+	c #045D0A",
"$+	c #045C0A",
"%+	c #055B0D",
"&+	c #01580F",
"*+	c #004B1D",
"=+	c #00451B",
"-+	c #005C09",
";+	c #005C0E",
">+	c #00491A",
",+	c #004013",
"'+	c #003F16",
")+	c #003C17",
"!+	c #003A19",
"~+	c #003B1D",
"{+	c #004126",
"]+	c #005600",
"^+	c #0C6216",
"/+	c #015A0F",
"(+	c #1F5C35",
"_+	c #AFC6BA",
":+	c #B7C7C4",
"<+	c #B6C6C5",
"[+	c #B8CBC3",
"}+	c #88A79A",
"|+	c #033E27",
"1+	c #005801",
"2+	c #065B09",
"3+	c #8AB38F",
"4+	c #8DB594",
"5+	c #005004",
"6+	c #003B0E",
"7+	c #5C856B",
"8+	c #ECFFDF",
"9+	c #E4FFD5",
"0+	c #C2D0CE",
"a+	c #003623",
"b+	c #256E28",
"c+	c #BCD3C1",
"d+	c #97BB9E",
"e+	c #004C03",
"f+	c #0A441C",
"g+	c #C7D3D0",
"h+	c #F1FFEA",
"i+	c #6FE647",
"j+	c #76E851",
"k+	c #F9FFF2",
"l+	c #89A09C",
"m+	c #002F1E",
"n+	c #49894D",
"o+	c #E8EFEB",
"p+	c #FBFFF8",
"q+	c #FBFFF9",
"r+	c #91B498",
"s+	c #003F00",
"t+	c #004707",
"u+	c #004609",
"v+	c #00440A",
"w+	c #00430C",
"x+	c #00410D",
"y+	c #003F0F",
"z+	c #003C11",
"A+	c #1A4F2B",
"B+	c #A6BDB2",
"C+	c #98E981",
"D+	c #54DA2D",
"E+	c #ABEE97",
"F+	c #335F52",
"G+	c #003224",
"H+	c #005500",
"I+	c #57935C",
"J+	c #F8F9FA",
"K+	c #DDF7D6",
"L+	c #7ADE60",
"M+	c #EBFDE6",
"N+	c #CFDAD5",
"O+	c #779C7C",
"P+	c #7AA185",
"Q+	c #7AA086",
"R+	c #7A9F86",
"S+	c #7A9E87",
"T+	c #7A9D88",
"U+	c #789986",
"V+	c #9AB3A9",
"W+	c #E2E8E9",
"X+	c #A2E891",
"Y+	c #4CD429",
"Z+	c #6BDA4F",
"`+	c #F7FFF4",
" @	c #B3C2C0",
".@	c #013125",
"+@	c #629967",
"@@	c #CAEFC1",
"#@	c #50CF35",
"$@	c #4FCF33",
"%@	c #CFEFC8",
"&@	c #EAF8E7",
"*@	c #ECFCEA",
"=@	c #EDFBE9",
"-@	c #EDFBEA",
";@	c #EAFBE5",
">@	c #C7EFBC",
",@	c #6ED658",
"'@	c #3DCB20",
")@	c #57D03C",
"!@	c #DBF5D4",
"~@	c #F2F2F6",
"{@	c #2B584D",
"]@	c #002F25",
"^@	c #005902",
"/@	c #337A39",
"(@	c #F7F8F8",
"_@	c #BEE7B7",
":@	c #3FC526",
"<@	c #43C72A",
"[@	c #47C830",
"}@	c #49C832",
"|@	c #4AC833",
"1@	c #44C72C",
"2@	c #33C319",
"3@	c #37C31D",
"4@	c #6CD159",
"5@	c #E2F5DC",
"6@	c #F5F4F8",
"7@	c #4D7068",
"8@	c #002D23",
"9@	c #005806",
"0@	c #27702C",
"a@	c #E9E8EA",
"b@	c #CCE8C6",
"c@	c #40C12C",
"d@	c #32BE1E",
"e@	c #3DC029",
"f@	c #4FC53D",
"g@	c #53C641",
"h@	c #52C640",
"i@	c #5BC84A",
"j@	c #7AD16D",
"k@	c #C7E7C1",
"l@	c #FFFAFE",
"m@	c #D0D5DA",
"n@	c #365E55",
"o@	c #002A21",
"p@	c #005002",
"q@	c #407D48",
"r@	c #EDE8EF",
"s@	c #D0E6CD",
"t@	c #3BBC2D",
"u@	c #29B719",
"v@	c #C9DFC7",
"w@	c #ECE9EC",
"x@	c #E9EBE9",
"y@	c #E9EBE8",
"z@	c #EAEBE9",
"A@	c #EDEBEC",
"B@	c #EEE7EF",
"C@	c #C9CCD1",
"D@	c #64857C",
"E@	c #103D31",
"F@	c #002F26",
"G@	c #004C05",
"H@	c #34713E",
"I@	c #DBDADE",
"J@	c #DCE6DA",
"K@	c #5CBF54",
"L@	c #D1E1CE",
"M@	c #A9B6B1",
"N@	c #3E6C4C",
"O@	c #447156",
"P@	c #447057",
"Q@	c #446F59",
"R@	c #446E5A",
"S@	c #446D5B",
"T@	c #456B5D",
"U@	c #3C6557",
"V@	c #1E5041",
"W@	c #013829",
"X@	c #002E21",
"Y@	c #004909",
"Z@	c #276534",
"`@	c #BBC5C1",
" #	c #ECE7EA",
".#	c #E5E4E4",
"+#	c #7D9B89",
"@#	c #003808",
"##	c #003E16",
"$#	c #003D18",
"%#	c #003B1A",
"&#	c #003A1C",
"*#	c #00381D",
"=#	c #00361E",
"-#	c #003521",
";#	c #004810",
">#	c #084D1A",
",#	c #84A08F",
"'#	c #F1E9EE",
")#	c #87A293",
"!#	c #003E15",
"~#	c #004112",
"{#	c #5A836A",
"]#	c #6B8F7D",
"^#	c #003F1A",
"/#	c #003E17",
"(#	c #014321",
"_#	c #004424",
"                                    .                           ",
"                                    + @ #                       ",
"                                    $ % & *                     ",
"                                    = - ; > , '                 ",
"                                    ) ! ~ ~ { ] ^               ",
"                / ( _ : < [ } | 1 2 3 4 5 6 7 8 9 0             ",
"              a b c d e f g g g g g h i j k l m n o p           ",
"          / q r i s t u v w w w w w w x y z A B C D E F         ",
"        G H I J K L M N O O O O O O O P P Q R S T ~ U V         ",
"        W X Y Z `  ...+.@.#.$.$.$.%.%.&.*. .=.-.;.>.,.          ",
"      '.).!.~.{.].^./.(._.:.<.<.<.[.}.|.1.2.3.e 4.5.            ",
"      6.7.8.9.0.a.b.c.d.e.f.g.h.i.j.k.l.m.n.o.p.q.              ",
"    r.s.t.u.v.w.x.y.e.              z.A.B.C.D.E.                ",
"    F.G.H.I.J.K.L.M.                N.O.P.Q.R.                  ",
"    S.T.U.V.W.X.Y.                  Z.`. +                      ",
"    .+++@+#+$+%+&+                  *+=+                        ",
"                        -+;+                  >+,+'+)+!+~+{+    ",
"                      ]+^+/+                  (+_+:+<+[+}+|+    ",
"                  1+2+3+4+5+                6+7+~ 8+9+~ 0+a+    ",
"                # b+c+~ d+e+                f+g+h+i+j+k+l+m+    ",
"              = n+o+p+q+r+s+t+u+v+w+x+y+z+A+B+~ C+D+E+;.F+G+    ",
"            H+I+J+K+L+M+N+O+P+Q+R+S+T+U+V+W+~ X+Y+Z+`+ @.@      ",
"          H++@~ @@#@$@%@&@*@=@=@=@=@=@-@;@>@,@'@)@!@~@{@]@      ",
"        ^@/@(@_@:@<@[@}@|@}@}@}@}@}@}@|@1@2@3@4@5@6@7@8@        ",
"        9@0@a@b@c@d@e@f@g@h@h@h@h@h@h@g@i@j@k@l@m@n@o@          ",
"          p@q@r@s@t@u@v@w@x@x@x@x@y@y@z@A@B@C@D@E@F@            ",
"            G@H@I@J@K@L@M@N@O@P@Q@R@S@T@U@V@W@X@                ",
"              Y@Z@`@ #.#+#@###$#%#&#*#=#-#                      ",
"                ;#>#,#'#)#!#                                    ",
"                    ~#{#]#^#                                    ",
"                      /#(#_#                                    ",
"                          {+                                    "};
