/* XPM */
static const char *remove_xpm[] = {
/* columns rows colors chars-per-pixel */
"32 32 224 2",
"   c #003D0F",
".  c #003F0F",
"X  c #003F13",
"o  c #003C17",
"O  c #003D17",
"+  c #003E16",
"@  c #003F16",
"#  c #003E18",
"$  c #003F19",
"%  c #004B03",
"&  c #004F00",
"*  c #004E01",
"=  c #004D02",
"-  c #004A04",
";  c #004806",
":  c #004906",
">  c #00430B",
",  c #004509",
"<  c #004708",
"1  c #00440A",
"2  c #00420D",
"3  c #00410E",
"4  c #004E0E",
"5  c #004F0E",
"6  c #005000",
"7  c #005200",
"8  c #005300",
"9  c #005500",
"0  c #005600",
"q  c #005700",
"w  c #005706",
"e  c #005607",
"r  c #005B00",
"t  c #005A03",
"y  c #005B03",
"u  c #005C00",
"i  c #005D00",
"p  c #005E00",
"a  c #005C02",
"s  c #005804",
"d  c #00510B",
"f  c #00530A",
"g  c #005508",
"h  c #00540A",
"j  c #00500C",
"k  c #004015",
"l  c #004316",
"z  c #004715",
"x  c #004617",
"c  c #004B11",
"v  c #004913",
"b  c #004A13",
"n  c #004D10",
"m  c #004814",
"M  c #01431E",
"N  c #02431E",
"B  c #007200",
"V  c #007300",
"C  c #007500",
"Z  c #007600",
"A  c #007800",
"S  c #007A00",
"D  c #007B00",
"F  c #007C00",
"G  c #007D00",
"H  c #007F00",
"J  c #057805",
"K  c #067806",
"L  c #077B07",
"P  c #0B7E0B",
"I  c #176E19",
"U  c #1F7321",
"Y  c #237625",
"T  c #396D4D",
"R  c #3F7153",
"E  c #527F63",
"W  c #008000",
"Q  c #008100",
"!  c #018201",
"~  c #018301",
"^  c #028402",
"/  c #028502",
"(  c #038603",
")  c #038703",
"_  c #048804",
"`  c #058A05",
"'  c #068A06",
"]  c #058C05",
"[  c #068D06",
"{  c #078E07",
"}  c #0C800C",
"|  c #0D820D",
" . c #0E840E",
".. c #0F870F",
"X. c #098F09",
"o. c #079907",
"O. c #089008",
"+. c #099209",
"@. c #0A910A",
"#. c #0B930B",
"$. c #0A950A",
"%. c #0C960C",
"&. c #0C970C",
"*. c #099A09",
"=. c #0D980D",
"-. c #0E990E",
";. c #158015",
":. c #108910",
">. c #118B11",
",. c #128D12",
"<. c #138F13",
"1. c #159115",
"2. c #159315",
"3. c #179517",
"4. c #189718",
"5. c #199919",
"6. c #1A9C1A",
"7. c #1B9E1B",
"8. c #1C9F1C",
"9. c #17A017",
"0. c #368238",
"q. c #4DA04D",
"w. c #50A250",
"e. c #51A451",
"r. c #51A551",
"t. c #52A752",
"y. c #57A457",
"u. c #53A953",
"i. c #53AB53",
"p. c #54AC54",
"a. c #55AD55",
"s. c #56AF56",
"d. c #57B057",
"f. c #57B257",
"g. c #59B359",
"h. c #59B459",
"j. c #5AB65A",
"k. c #59BB59",
"l. c #5BB85B",
"z. c #5CBA5C",
"x. c #568368",
"c. c #64AC64",
"v. c #66AE66",
"b. c #67B067",
"n. c #67B167",
"m. c #68B268",
"M. c #69B469",
"N. c #69B569",
"B. c #6AB66A",
"V. c #6CB06C",
"C. c #6AB86A",
"Z. c #6BB96B",
"A. c #6CBA6C",
"S. c #6CBB6C",
"D. c #6EBC6E",
"F. c #6EBE6E",
"G. c #6FBF6F",
"H. c #75AA77",
"J. c #79AD7D",
"K. c #6EC46E",
"L. c #70C170",
"P. c #70C270",
"I. c #71C371",
"U. c #7DB080",
"Y. c #8AB68F",
"T. c #8DBA8F",
"R. c #85A894",
"E. c #8AAF95",
"W. c #8AAD97",
"Q. c #8AAE96",
"!. c #8AAF96",
"~. c #8AAE97",
"^. c #8CAE99",
"/. c #8AB193",
"(. c #8AB392",
"). c #8AB293",
"_. c #8AB590",
"`. c #8AB491",
"'. c #8AB094",
"]. c #8AB194",
"[. c #8AB095",
"{. c #8DB891",
"}. c #8FBC92",
"|. c #90BD93",
" X c #A3BEAF",
".X c #A4BFAE",
"XX c #99C19D",
"oX c #A4C2AB",
"OX c #A4C3AB",
"+X c #A4C5A9",
"@X c #A4C6A8",
"#X c #A4C6A9",
"$X c #A4C4AA",
"%X c #A4C0AD",
"&X c #A4C1AD",
"*X c #A4C2AC",
"=X c #A4C2AD",
"-X c #A4C0AE",
";X c #A6C8A9",
":X c #A5C0B0",
">X c #AFC5B9",
",X c #B7CBBF",
"<X c #C0D2C9",
"1X c #C3D4CB",
"2X c #C3D5CB",
"3X c #C1E6C1",
"4X c #C1E7C1",
"5X c #C5E8C5",
"6X c #CDE0CE",
"7X c #D5EED5",
"8X c #DAF0DA",
"9X c #E3EEE4",
"0X c #EEF2F0",
"qX c #F0F7F0",
"wX c #F1F7F1",
"eX c #F5F9F5",
"rX c #F6FBF6",
"tX c #F9FBFA",
"yX c #FAFCFA",
"uX c #FAFDFA",
"iX c #FBFDFB",
"pX c #FEFEFE",
"aX c gray100",
"sX c None",
/* pixels */
"sXsXsXsXsXsXsXsXsXsXsXsXsXsXsXsXsXsXsXsXsXsXsXsXsXsXsXsXsXsXsXsX",
"sXsXsXsXsXsXsXsXsXsXsXsXsXsXsXsXsXsXsXsXsXsXsXsXsXsXsXsXsXsXsXsX",
"sXsXsXsXsXsXsXsXsXsXsXsXsXsXsXsXsXsXsXsXsXsXsXsXsXsXsXsXsXsXsXsX",
"sXsXsXsXsXsXsXsXsXsXsXsXsXsXsXsXsXsXsXsXsXsXsXsXsXsXsXsXsXsXsXsX",
"sXsXsXsXsXsXsXsXsXsXsXsXsXsXsXsXsXsXsXsXsXsXsXsXsXsXsXsXsXsXsXsX",
"sXsXsXsXsXsXsXsXsXsXsXsXsXsXsXsXsXsXsXsXsXsXsXsXsXsXsXsXsXsXsXsX",
"sXsXsXsXsXsXsXsXsXsXsXsXsXsXsXsXsXsXsXsXsXsXsXsXsXsXsXsXsXsXsXsX",
"sXsXsXsXsXsXsXsXsXsXsXsXsXsXsXsXsXsXsXsXsXsXsXsXsXsXsXsXsXsXsXsX",
"sXsXsXsXp q q q q 7 7 & & & & % ; ; ; ; 1 1 1 3 3 . . @ sXsXsXsX",
"sXsXsXp Y J.{.Y.Y.`.`.`.`.`.].].`.].].W.].].W.W.W.^.R.T @ sXsXsX",
"sXsXsXI 2XaXaXaXaXaXaXaXaXaXaXaXaXaXaXaXaXaXaXaXaXaXaX0XR $ sXsX",
"sXsXp H.aXaXaXaXaXaXaXaXaXaXaXaXaXaXaXaXaXaXaXaXaXaXaXaX>X@ sXsX",
"sXsXp |.aXrXV.c.v.b.b.N.N.N.N.Z.Z.S.S.F.F.F.I.L.I.K.8XaX1XN sXsX",
"sXsXr T.aXqXK B C A A A Q Q ^ _ ^ ] ` X.X.O.$.%.=.o.3XaX<XN sXsX",
"sXsXp T.aXqXP P P } } ....:.:.>.<.<.2.3.3.6.7.7.8.9.5XaX<XN sXsX",
"sXsXr T.aXqX;.P P } } ....:.>.>.<.2.2.3.3.6.6.7.8.9.5XaX<XN sXsX",
"sXsXp T.aXqXP L P } } ......>.1.<.<.2.4.4.4.6.7.8.6.5XaX<XN sXsX",
"sXsXp T.aXrX;.L P } } ......>.>.<.2.2.3.4.6.6.8.9.9.5XaX<XN sXsX",
"sXsXr {.aXqXK B C A G G Q ^ ^ ^ _ ` ` X.O.#.%.=.=.*.4XaX<XN sXsX",
"sXsXp {.aXeXy.q.w.r.q.u.u.p.p.p.s.d.g.g.j.j.l.z.z.k.7XaX1XN sXsX",
"sXsXp U.aXaXiXyXiXiXiXiXiXiXiXiXaXyXiXiXiXiXiXiXiXiXaXaX,X$ sXsX",
"sXsXsXY 9XaXaXaXaXaXaXaXaXaXaXaXaXaXaXaXaXaXaXaXaXaXaXyXE @ sXsX",
"sXsXsXp 0.XX;X;X$X$X$X$X$X$X$X$XoXoXoX&X&X&X.X&X X.X Xx.@ sXsXsX",
"sXsXsXsXp r p s p s s w h h d d 5 4 4 4 c c m m x x l X sXsXsXsX",
"sXsXsXsXsXsXsXsXsXsXsXsXsXsXsXsXsXsXsXsXsXsXsXsXsXsXsXsXsXsXsXsX",
"sXsXsXsXsXsXsXsXsXsXsXsXsXsXsXsXsXsXsXsXsXsXsXsXsXsXsXsXsXsXsXsX",
"sXsXsXsXsXsXsXsXsXsXsXsXsXsXsXsXsXsXsXsXsXsXsXsXsXsXsXsXsXsXsXsX",
"sXsXsXsXsXsXsXsXsXsXsXsXsXsXsXsXsXsXsXsXsXsXsXsXsXsXsXsXsXsXsXsX",
"sXsXsXsXsXsXsXsXsXsXsXsXsXsXsXsXsXsXsXsXsXsXsXsXsXsXsXsXsXsXsXsX",
"sXsXsXsXsXsXsXsXsXsXsXsXsXsXsXsXsXsXsXsXsXsXsXsXsXsXsXsXsXsXsXsX",
"sXsXsXsXsXsXsXsXsXsXsXsXsXsXsXsXsXsXsXsXsXsXsXsXsXsXsXsXsXsXsXsX",
"sXsXsXsXsXsXsXsXsXsXsXsXsXsXsXsXsXsXsXsXsXsXsXsXsXsXsXsXsXsXsXsX"
};
