<?xml version="1.0" ?><!DOCTYPE svg  PUBLIC '-//W3C//DTD SVG 20010904//EN'  'http://www.w3.org/TR/2001/REC-SVG-20010904/DTD/svg10.dtd'><svg height="256.000000pt" preserveAspectRatio="xMidYMid meet" version="1.0" viewBox="0 0 256.000000 256.000000" width="256.000000pt" xmlns="http://www.w3.org/2000/svg"><g fill="#000000" stroke="none" transform="translate(0.000000,256.000000) scale(0.100000,-0.100000)"><path d="M1600 2412 c-12 -10 -52 -73 -89 -141 l-66 -124 -127 -67 c-140 -73 -168 -93 -168 -123 0 -11 38 -78 85 -149 67 -101 85 -136 85 -164 0 -34 -23 -59 -392 -433 -542 -548 -783 -805 -813 -867 -50 -100 -40 -188 28 -238 40 -29 118 -26 189 6 95 44 314 244 879 805 362 360 409 403 437 403 22 0 61 -20 129 -64 187 -122 213 -116 311 72 l63 121 120 62 c66 35 129 74 140 87 37 47 23 92 -71 233 l-63 92 7 141 c6 130 5 143 -13 173 -28 45 -73 55 -223 47 l-124 -7 -115 77 c-123 82 -165 94 -209 58z m125 -166 c19 -8 61 -33 95 -56 l61 -41 114 7 c88 5 118 4 130 -6 13 -11 16 -35 14 -134 l-2 -121 48 -75 c62 -97 71 -124 52 -153 -8 -12 -55 -42 -104 -66 l-90 -44 -39 -79 c-66 -136 -100 -149 -208 -79 l-66 43 31 39 c17 21 62 67 101 101 133 119 191 211 169 270 -5 13 -48 59 -95 101 -125 112 -153 108 -291 -34 -44 -45 -108 -109 -141 -141 l-62 -59 -51 83 c-28 46 -51 95 -51 110 0 33 35 63 127 107 64 30 72 38 96 87 53 107 83 144 125 153 1 1 18 -5 37 -13z m-51 -567 c45 -39 51 -60 30 -101 -18 -35 -1072 -1093 -1267 -1270 -119 -109 -156 -129 -207 -113 -29 9 -44 46 -36 90 6 32 51 82 291 329 156 160 465 472 687 694 450 448 431 434 502 371z"/></g></svg>