<?xml version="1.0" encoding="UTF-8" standalone="no"?>
<svg
   xmlns:dc="http://purl.org/dc/elements/1.1/"
   xmlns:cc="http://creativecommons.org/ns#"
   xmlns:rdf="http://www.w3.org/1999/02/22-rdf-syntax-ns#"
   xmlns:svg="http://www.w3.org/2000/svg"
   xmlns="http://www.w3.org/2000/svg"
   xmlns:sodipodi="http://sodipodi.sourceforge.net/DTD/sodipodi-0.dtd"
   xmlns:inkscape="http://www.inkscape.org/namespaces/inkscape"
   height="512px"
   id="Layer_1"
   style="enable-background:new 0 0 512 512;"
   version="1.1"
   viewBox="0 0 512 512"
   width="512px"
   xml:space="preserve"
   sodipodi:docname="help_grey.svg"
   inkscape:version="1.0.1 (1.0.1+r73)"><metadata
     id="metadata11"><rdf:RDF><cc:Work
         rdf:about=""><dc:format>image/svg+xml</dc:format><dc:type
           rdf:resource="http://purl.org/dc/dcmitype/StillImage" /></cc:Work></rdf:RDF></metadata><defs
     id="defs9" /><sodipodi:namedview
     pagecolor="#ffffff"
     bordercolor="#666666"
     borderopacity="1"
     objecttolerance="10"
     gridtolerance="10"
     guidetolerance="10"
     inkscape:pageopacity="0"
     inkscape:pageshadow="2"
     inkscape:window-width="1920"
     inkscape:window-height="1043"
     id="namedview7"
     showgrid="false"
     inkscape:zoom="1.6835938"
     inkscape:cx="256"
     inkscape:cy="256"
     inkscape:window-x="0"
     inkscape:window-y="0"
     inkscape:window-maximized="1"
     inkscape:current-layer="Layer_1"
     inkscape:document-rotation="0" /><g
     id="g4"
     style="fill:#999999"><path
       d="M256,32C132.3,32,32,132.3,32,256s100.3,224,224,224c123.7,0,224-100.3,224-224S379.7,32,256,32z M276.2,358.7   c-0.5,17.8-13.7,28.8-30.8,28.3c-16.4-0.5-29.3-12.2-28.8-30.1c0.5-17.8,14.1-29.1,30.5-28.6C264.3,328.8,276.8,340.9,276.2,358.7z    M324.9,231.4c-4.2,5.9-13.6,13.5-25.4,22.7l-13.1,9c-6.4,4.9-10.4,10.7-12.5,17.3c-1.1,3.5-1.9,12.6-2.1,18.7   c-0.1,1.2-0.8,3.9-4.5,3.9c-3.7,0-35,0-39.1,0c-4.1,0-4.6-2.4-4.5-3.6c0.6-16.6,3-30.3,9.9-41.3c9.3-14.8,35.5-30.4,35.5-30.4   c4-3,7.1-6.2,9.5-9.7c4.4-6,8-12.7,8-19.9c0-8.3-2-16.2-7.3-22.8c-6.2-7.7-12.9-11.4-25.8-11.4c-12.7,0-20.1,6.4-25.4,14.8   c-5.3,8.4-4.4,18.3-4.4,27.3H175c0-34,8.9-55.7,27.7-68.5c12.7-8.7,28.9-12.5,47.8-12.5c24.8,0,44.5,4.6,61.9,17.8   c16.1,12.2,24.6,29.4,24.6,52.6C337,209.7,332,221.7,324.9,231.4z"
       id="path2"
       style="fill:#999999" /></g></svg>
