<?xml version="1.0" encoding="UTF-8" standalone="no"?>
<svg
   xmlns:dc="http://purl.org/dc/elements/1.1/"
   xmlns:cc="http://creativecommons.org/ns#"
   xmlns:rdf="http://www.w3.org/1999/02/22-rdf-syntax-ns#"
   xmlns:svg="http://www.w3.org/2000/svg"
   xmlns="http://www.w3.org/2000/svg"
   xmlns:sodipodi="http://sodipodi.sourceforge.net/DTD/sodipodi-0.dtd"
   xmlns:inkscape="http://www.inkscape.org/namespaces/inkscape"
   fill="none"
   height="24"
   stroke="#000"
   stroke-linecap="round"
   stroke-linejoin="round"
   stroke-width="2"
   viewBox="0 0 24 24"
   width="24"
   version="1.1"
   id="svg8"
   sodipodi:docname="import_temporary.svg"
   inkscape:version="1.0.1 (1.0.1+r73)"
   inkscape:export-filename="/home/mathildemerle/Dev/04.MUSICardioDocs/MUSICardio-logo/imports/import_temporary_black.png"
   inkscape:export-xdpi="123"
   inkscape:export-ydpi="123">
  <metadata
     id="metadata14">
    <rdf:RDF>
      <cc:Work
         rdf:about="">
        <dc:format>image/svg+xml</dc:format>
        <dc:type
           rdf:resource="http://purl.org/dc/dcmitype/StillImage" />
      </cc:Work>
    </rdf:RDF>
  </metadata>
  <defs
     id="defs12" />
  <sodipodi:namedview
     pagecolor="#ffffff"
     bordercolor="#666666"
     borderopacity="1"
     objecttolerance="10"
     gridtolerance="10"
     guidetolerance="10"
     inkscape:pageopacity="0"
     inkscape:pageshadow="2"
     inkscape:window-width="1870"
     inkscape:window-height="1016"
     id="namedview10"
     showgrid="true"
     inkscape:zoom="25.396918"
     inkscape:cx="6.1318472"
     inkscape:cy="12.848646"
     inkscape:window-x="1970"
     inkscape:window-y="27"
     inkscape:window-maximized="1"
     inkscape:current-layer="layer1"
     inkscape:document-rotation="0">
    <inkscape:grid
       type="xygrid"
       id="grid839" />
  </sodipodi:namedview>
  <path
     d="M3 17v3a2 2 0 0 0 2 2h14a2 2 0 0 0 2-2v-3"
     id="path2" />
  <polyline
     points="8 12 12 16 16 12"
     id="polyline4"
     style="display:none" />
  <line
     x1="12"
     x2="12"
     y1="2"
     y2="16"
     id="line6"
     style="display:none" />
  <g
     id="layer1"
     inkscape:label="clock"
     inkscape:groupmode="layer">
    <path
       class="heroicon-ui"
       d="M 12,16 A 7.1952212,7.1952591 0 1 1 12,1.6094844 7.1952212,7.1952591 0 0 1 12,16 Z m 0,-1.439051 A 5.756177,5.7562072 0 1 0 12,3.0485352 5.756177,5.7562072 0 0 0 12,14.560949 Z m 0.719522,-6.0512117 1.827586,1.8203967 a 0.72246758,0.72247141 0 0 1 -1.021722,1.02173 L 11.496334,9.3084104 A 0.71952208,0.71952587 0 0 1 11.280478,8.8047423 V 5.9266396 a 0.71952259,0.71952638 0 0 1 1.439044,0 z"
       id="path886"
       style="display:inline;stroke-width:1.43906" />
  </g>
</svg>
