<?xml version="1.0" encoding="UTF-8" standalone="no"?>
<svg
   xmlns:dc="http://purl.org/dc/elements/1.1/"
   xmlns:cc="http://creativecommons.org/ns#"
   xmlns:rdf="http://www.w3.org/1999/02/22-rdf-syntax-ns#"
   xmlns:svg="http://www.w3.org/2000/svg"
   xmlns="http://www.w3.org/2000/svg"
   xmlns:sodipodi="http://sodipodi.sourceforge.net/DTD/sodipodi-0.dtd"
   xmlns:inkscape="http://www.inkscape.org/namespaces/inkscape"
   height="60"
   viewBox="0 0 60 60"
   width="60"
   version="1.1"
   id="svg7"
   sodipodi:docname="information_blue.svg"
   inkscape:export-filename="/home/mathildemerle/Dev/04.MUSICardioDocs/MUSICardio-logo/information/information_blue.png"
   inkscape:export-xdpi="123"
   inkscape:export-ydpi="123"
   inkscape:version="1.0.1 (1.0.1+r73)">
  <metadata
     id="metadata11">
    <rdf:RDF>
      <cc:Work
         rdf:about="">
        <dc:format>image/svg+xml</dc:format>
        <dc:type
           rdf:resource="http://purl.org/dc/dcmitype/StillImage" />
      </cc:Work>
    </rdf:RDF>
  </metadata>
  <sodipodi:namedview
     pagecolor="#ffffff"
     bordercolor="#666666"
     borderopacity="1"
     objecttolerance="10"
     gridtolerance="10"
     guidetolerance="10"
     inkscape:pageopacity="0"
     inkscape:pageshadow="2"
     inkscape:window-width="1920"
     inkscape:window-height="1043"
     id="namedview9"
     showgrid="false"
     inkscape:zoom="14.366667"
     inkscape:cx="11.86775"
     inkscape:cy="30"
     inkscape:window-x="0"
     inkscape:window-y="0"
     inkscape:window-maximized="1"
     inkscape:current-layer="svg7"
     inkscape:document-rotation="0" />
  <defs
     id="defs4">
    <style
       id="style2">
      .cls-1 {
        fill: #5b75a0;
        fill-rule: evenodd;
      }
    </style>
  </defs>
  <path
     class="cls-1"
     d="M1050,360a30,30,0,1,1,30,30A30,30,0,0,1,1050,360Zm30,18a4,4,0,0,1-4-4V358a4,4,0,0,1,8,0v16A4,4,0,0,1,1080,378Zm0-36a4,4,0,1,1-4,4A4,4,0,0,1,1080,342Z"
     id="info"
     transform="translate(-1050 -330)"
     style="fill:#8eb4f4;fill-opacity:1"
     inkscape:export-xdpi="123"
     inkscape:export-ydpi="123" />
</svg>
