<?xml version="1.0" encoding="UTF-8" standalone="no"?>
<!-- Created with Inkscape (http://www.inkscape.org/) -->

<svg
   xmlns:dc="http://purl.org/dc/elements/1.1/"
   xmlns:cc="http://creativecommons.org/ns#"
   xmlns:rdf="http://www.w3.org/1999/02/22-rdf-syntax-ns#"
   xmlns:svg="http://www.w3.org/2000/svg"
   xmlns="http://www.w3.org/2000/svg"
   xmlns:sodipodi="http://sodipodi.sourceforge.net/DTD/sodipodi-0.dtd"
   xmlns:inkscape="http://www.inkscape.org/namespaces/inkscape"
   width="744.09448819"
   height="1052.3622047"
   id="svg2"
   version="1.1"
   inkscape:version="0.48.4 r9939"
   sodipodi:docname="music_logo.svg"
   inkscape:export-filename="/home/fvichot/dev/medinria-superproject/medInria/app/medInria/music_logo.png"
   inkscape:export-xdpi="100.41"
   inkscape:export-ydpi="100.41">
  <defs
     id="defs4">
    <filter
       id="filter4226"
       inkscape:label="Glow"
       inkscape:menu="Shadows and Glows"
       inkscape:menu-tooltip="Glow of object's own color at the edges"
       color-interpolation-filters="sRGB">
      <feGaussianBlur
         id="feGaussianBlur4228"
         stdDeviation="5"
         result="result91" />
      <feComposite
         id="feComposite4230"
         in2="result91"
         in="SourceGraphic"
         operator="over" />
    </filter>
    <filter
       id="filter4232"
       inkscape:label="Glow"
       inkscape:menu="Shadows and Glows"
       inkscape:menu-tooltip="Glow of object's own color at the edges"
       color-interpolation-filters="sRGB">
      <feGaussianBlur
         id="feGaussianBlur4234"
         stdDeviation="5"
         result="result91" />
      <feComposite
         id="feComposite4236"
         in2="result91"
         in="SourceGraphic"
         operator="over" />
    </filter>
    <filter
       id="filter4238"
       inkscape:label="Glow"
       inkscape:menu="Shadows and Glows"
       inkscape:menu-tooltip="Glow of object's own color at the edges"
       color-interpolation-filters="sRGB">
      <feGaussianBlur
         id="feGaussianBlur4240"
         stdDeviation="5"
         result="result91" />
      <feComposite
         id="feComposite4242"
         in2="result91"
         in="SourceGraphic"
         operator="over" />
    </filter>
    <filter
       id="filter4244"
       inkscape:label="Glow"
       inkscape:menu="Shadows and Glows"
       inkscape:menu-tooltip="Glow of object's own color at the edges"
       color-interpolation-filters="sRGB">
      <feGaussianBlur
         id="feGaussianBlur4246"
         stdDeviation="5"
         result="result91" />
      <feComposite
         id="feComposite4248"
         in2="result91"
         in="SourceGraphic"
         operator="over" />
    </filter>
    <filter
       id="filter4250"
       inkscape:label="Glow"
       inkscape:menu="Shadows and Glows"
       inkscape:menu-tooltip="Glow of object's own color at the edges"
       color-interpolation-filters="sRGB">
      <feGaussianBlur
         id="feGaussianBlur4252"
         stdDeviation="5"
         result="result91" />
      <feComposite
         id="feComposite4254"
         in2="result91"
         in="SourceGraphic"
         operator="over" />
    </filter>
    <filter
       id="filter4256"
       inkscape:label="Glow"
       inkscape:menu="Shadows and Glows"
       inkscape:menu-tooltip="Glow of object's own color at the edges"
       color-interpolation-filters="sRGB">
      <feGaussianBlur
         id="feGaussianBlur4258"
         stdDeviation="5"
         result="result91" />
      <feComposite
         id="feComposite4260"
         in2="result91"
         in="SourceGraphic"
         operator="over" />
    </filter>
    <filter
       id="filter4534"
       inkscape:label="Glow"
       inkscape:menu="Shadows and Glows"
       inkscape:menu-tooltip="Glow of object's own color at the edges"
       color-interpolation-filters="sRGB">
      <feGaussianBlur
         id="feGaussianBlur4536"
         stdDeviation="5"
         result="result91" />
      <feComposite
         id="feComposite4538"
         in2="result91"
         in="SourceGraphic"
         operator="over" />
    </filter>
    <filter
       id="filter4540"
       inkscape:label="Glow"
       inkscape:menu="Shadows and Glows"
       inkscape:menu-tooltip="Glow of object's own color at the edges"
       color-interpolation-filters="sRGB">
      <feGaussianBlur
         id="feGaussianBlur4542"
         stdDeviation="5"
         result="result91" />
      <feComposite
         id="feComposite4544"
         in2="result91"
         in="SourceGraphic"
         operator="over" />
    </filter>
  </defs>
  <sodipodi:namedview
     id="base"
     pagecolor="#ffffff"
     bordercolor="#666666"
     borderopacity="1.0"
     inkscape:pageopacity="0.0"
     inkscape:pageshadow="2"
     inkscape:zoom="0.98994949"
     inkscape:cx="206.50352"
     inkscape:cy="732.40308"
     inkscape:document-units="px"
     inkscape:current-layer="layer1"
     showgrid="false"
     inkscape:window-width="1215"
     inkscape:window-height="765"
     inkscape:window-x="251"
     inkscape:window-y="159"
     inkscape:window-maximized="0" />
  <metadata
     id="metadata7">
    <rdf:RDF>
      <cc:Work
         rdf:about="">
        <dc:format>image/svg+xml</dc:format>
        <dc:type
           rdf:resource="http://purl.org/dc/dcmitype/StillImage" />
        <dc:title></dc:title>
      </cc:Work>
    </rdf:RDF>
  </metadata>
  <g
     inkscape:label="Layer 1"
     inkscape:groupmode="layer"
     id="layer1">
    <path
       style="fill:#0d142f;fill-opacity:1;stroke:#000000;stroke-width:4.35422325000000043;stroke-linecap:round;stroke-miterlimit:4;stroke-opacity:1;filter:url(#filter4540)"
       d="m 12.659529,223.96786 484.142781,0 c 20.36955,0 36.76813,16.39859 36.76813,36.76814 l 0,150.39522 c 0,20.36955 -16.39858,36.76813 -36.76813,36.76813 l -484.142781,0 c -20.369545,0 -36.768132,-16.39858 -36.768132,-36.76813 l 0,-150.39522 c 0,-20.36955 16.398587,-36.76814 36.768132,-36.76814 z"
       id="rect3907"
       inkscape:connector-curvature="0"
       sodipodi:nodetypes="sssssssss" />
    <path
       style="fill:none;fill-opacity:1;stroke:#ececec;stroke-width:2;stroke-linecap:butt;stroke-linejoin:miter;stroke-miterlimit:4;stroke-opacity:1;stroke-dasharray:none;stroke-dashoffset:0;filter:url(#filter4256)"
       d="m -9.007061,265.07754 147.658281,0 7.09011,-16.32401 10.31215,38.4855 4.82217,-22.16149 72.13166,0"
       id="path2985"
       inkscape:connector-curvature="0"
       sodipodi:nodetypes="cccccc" />
    <path
       style="fill:none;fill-opacity:1;stroke:#ececec;stroke-width:2;stroke-linecap:butt;stroke-linejoin:miter;stroke-miterlimit:4;stroke-opacity:1;stroke-dasharray:none;stroke-dashoffset:0;filter:url(#filter4250)"
       d="m -8.772956,294.6803 129.836406,0 7.0901,-16.32401 10.31216,38.4855 4.82215,-22.42558 c 46.37974,-10e-6 -22.0565,0 24.32324,0 l 7.09011,-16.58811 10.31216,38.4855 4.82215,-22.16148 42.93768,0"
       id="path2985-4"
       inkscape:connector-curvature="0"
       sodipodi:nodetypes="cccccccccc" />
    <path
       style="fill:none;fill-opacity:1;stroke:#ececec;stroke-width:2;stroke-linecap:butt;stroke-linejoin:miter;stroke-miterlimit:4;stroke-opacity:1;stroke-dasharray:none;stroke-dashoffset:0;filter:url(#filter4244)"
       d="m -8.370226,323.86387 112.883736,0 7.0901,-16.32401 10.31216,38.4855 4.82215,-22.16149 c 56.04531,-0.0364 15.83815,-0.11736 71.88337,-0.21786 l 7.0901,-16.32402 10.31217,38.4855 4.82213,-22.16148 11.52478,0"
       id="path2985-7"
       inkscape:connector-curvature="0"
       sodipodi:nodetypes="cccccccccc" />
    <path
       style="fill:none;fill-opacity:1;stroke:#ececec;stroke-width:2;stroke-linecap:butt;stroke-linejoin:miter;stroke-miterlimit:4;stroke-opacity:1;stroke-dasharray:none;stroke-dashoffset:0;filter:url(#filter4238)"
       d="m -9.0070595,382.43225 74.1562155,0 7.090105,-16.32401 10.312158,38.4855 4.822154,-22.16149 145.633737,0"
       id="path2985-5"
       inkscape:connector-curvature="0"
       sodipodi:nodetypes="cccccc" />
    <path
       style="fill:none;fill-opacity:1;stroke:#ececec;stroke-width:2;stroke-linecap:butt;stroke-linejoin:miter;stroke-miterlimit:4;stroke-opacity:1;stroke-dasharray:none;stroke-dashoffset:0;filter:url(#filter4232)"
       d="m -9.007056,353.09362 94.292695,0 7.090105,-16.32401 10.312156,38.4855 4.82214,-22.16149 125.49726,0"
       id="path2985-1"
       inkscape:connector-curvature="0"
       sodipodi:nodetypes="cccccc" />
    <path
       style="fill:#ca6c20;fill-opacity:1;stroke:none;stroke-width:1;stroke-linecap:round;stroke-linejoin:round;stroke-miterlimit:4;stroke-opacity:1;stroke-dasharray:none;filter:url(#filter4226)"
       inkscape:connector-curvature="0"
       d="M 21.343173,421.8021 C 9.156187,419.86465 2.5798584,401.76141 14.754622,395.13008 c 12.688156,-6.53966 20.236266,16.7403 6.374637,19.01391 -7.590892,2.84199 9.858381,7.60311 13.109874,2.82366 10.157861,-4.91392 8.58712,-17.71208 6.142388,-26.72703 -0.849543,-6.90637 -1.906891,-14.30169 -10.622359,-10.37789 -21.01858,1.69298 -37.6598666,-19.6312 -35.9882786,-39.58021 0.567787,-18.81833 15.9781506,-31.70205 27.3950476,-44.76915 -3.746552,-17.09418 -4.883352,-36.8421 5.98348,-51.73847 10.005065,-12.10936 15.077883,10.04907 16.77086,17.56846 3.758775,17.57517 -3.734328,36.04451 -16.208571,48.43502 1.191806,5.87347 2.365278,11.75917 3.581531,17.62652 13.177105,-2.54252 25.755249,8.59323 26.476445,21.63588 2.035239,11.7836 -5.518982,22.90713 -15.841862,27.96772 -0.165018,10.11508 5.421193,20.6091 3.416513,31.05421 -1.931337,10.7996 -14.044983,16.09856 -24.001154,13.73939 v 0 z m 13.757729,-46.0893 c 3.734327,-7.00415 -3.03758,-19.38673 -3.410402,-28.38333 0.146684,-15.68907 -16.495826,3.03757 -11.545244,10.74459 1.466838,4.55942 14.197778,12.9204 2.499736,7.76202 -12.211433,-7.30974 -11.649145,-26.11584 -0.495057,-34.05511 9.363323,-2.07191 3.648762,-14.56449 1.882443,-18.66553 -11.496349,10.47568 -24.5328836,23.67112 -22.5465366,40.63145 1.491286,15.89686 18.8244336,25.54132 33.6150606,21.96591 z m 7.737575,-3.03146 c 10.964623,-7.04083 10.604024,-25.51689 -1.393497,-31.24369 -12.798171,-6.76579 -4.033807,10.95241 -3.795447,17.69987 1.772431,2.5853 0.770092,17.62652 5.188944,13.54382 z M 29.325223,287.98972 c 6.741348,-8.16052 14.454476,-19.94108 9.717809,-30.73029 -10.206755,-6.73462 -15.872421,11.47313 -16.123007,19.44539 -0.09168,5.17001 -0.855656,22.98843 6.405198,11.2849 v 0 z"
       id="imagebot_13" />
    <text
       xml:space="preserve"
       style="font-size:40px;font-style:normal;font-weight:normal;line-height:125%;letter-spacing:0px;word-spacing:0px;fill:#ca6c20;fill-opacity:1;stroke:none;font-family:Sans;filter:url(#filter4534)"
       x="246.47974"
       y="307.94379"
       id="text3910"
       sodipodi:linespacing="125%"><tspan
         sodipodi:role="line"
         id="tspan3912"
         x="246.47974"
         y="307.94379"
         style="font-size:64px;font-style:normal;font-variant:normal;font-weight:bold;font-stretch:normal;text-align:start;line-height:125%;writing-mode:lr-tb;text-anchor:start;fill:#ca6c20;fill-opacity:1;font-family:CM Roman;-inkscape-font-specification:'CM Roman, Bold'">MUSIC</tspan></text>
    <text
       xml:space="preserve"
       style="font-size:20px;font-style:normal;font-variant:normal;font-weight:normal;font-stretch:normal;text-align:center;line-height:125%;letter-spacing:0px;word-spacing:0px;writing-mode:lr-tb;text-anchor:middle;fill:#ececec;fill-opacity:1;stroke:none;font-family:Serif;-inkscape-font-specification:Serif"
       x="369.58658"
       y="333.18887"
       id="text3914"
       sodipodi:linespacing="125%"><tspan
         sodipodi:role="line"
         id="tspan3922"
         x="369.58658"
         y="333.18887">Multi-modality Platform</tspan><tspan
         sodipodi:role="line"
         id="tspan3924"
         x="369.58658"
         y="358.18887">for Specific Imaging in</tspan><tspan
         sodipodi:role="line"
         id="tspan3926"
         x="369.58658"
         y="383.18887">Cardiology</tspan></text>
  </g>
</svg>
