<?xml version="1.0" encoding="UTF-8" standalone="no"?>
<!-- Created with Inkscape (http://www.inkscape.org/) -->

<svg
   xmlns:dc="http://purl.org/dc/elements/1.1/"
   xmlns:cc="http://creativecommons.org/ns#"
   xmlns:rdf="http://www.w3.org/1999/02/22-rdf-syntax-ns#"
   xmlns:svg="http://www.w3.org/2000/svg"
   xmlns="http://www.w3.org/2000/svg"
   xmlns:sodipodi="http://sodipodi.sourceforge.net/DTD/sodipodi-0.dtd"
   xmlns:inkscape="http://www.inkscape.org/namespaces/inkscape"
   width="744.09448819"
   height="1052.3622047"
   id="svg4589"
   version="1.1"
   inkscape:version="0.48.4 r9939"
   sodipodi:docname="music_logo_small.svg"
   inkscape:export-filename="/home/fvichot/dev/medinria-superproject/medInria/app/medInria/music_logo_small.ico.png"
   inkscape:export-xdpi="100.41"
   inkscape:export-ydpi="100.41">
  <defs
     id="defs4591">
    <filter
       id="filter4534"
       inkscape:label="Glow"
       inkscape:menu="Shadows and Glows"
       inkscape:menu-tooltip="Glow of object's own color at the edges"
       color-interpolation-filters="sRGB">
      <feGaussianBlur
         id="feGaussianBlur4536"
         stdDeviation="5"
         result="result91" />
      <feComposite
         id="feComposite4538"
         in2="result91"
         in="SourceGraphic"
         operator="over" />
    </filter>
    <filter
       id="filter4226"
       inkscape:label="Glow"
       inkscape:menu="Shadows and Glows"
       inkscape:menu-tooltip="Glow of object's own color at the edges"
       color-interpolation-filters="sRGB">
      <feGaussianBlur
         id="feGaussianBlur4228"
         stdDeviation="5"
         result="result91" />
      <feComposite
         id="feComposite4230"
         in2="result91"
         in="SourceGraphic"
         operator="over" />
    </filter>
    <filter
       id="filter4232"
       inkscape:label="Glow"
       inkscape:menu="Shadows and Glows"
       inkscape:menu-tooltip="Glow of object's own color at the edges"
       color-interpolation-filters="sRGB">
      <feGaussianBlur
         id="feGaussianBlur4234"
         stdDeviation="5"
         result="result91" />
      <feComposite
         id="feComposite4236"
         in2="result91"
         in="SourceGraphic"
         operator="over" />
    </filter>
    <filter
       id="filter4238"
       inkscape:label="Glow"
       inkscape:menu="Shadows and Glows"
       inkscape:menu-tooltip="Glow of object's own color at the edges"
       color-interpolation-filters="sRGB">
      <feGaussianBlur
         id="feGaussianBlur4240"
         stdDeviation="5"
         result="result91" />
      <feComposite
         id="feComposite4242"
         in2="result91"
         in="SourceGraphic"
         operator="over" />
    </filter>
    <filter
       id="filter4244"
       inkscape:label="Glow"
       inkscape:menu="Shadows and Glows"
       inkscape:menu-tooltip="Glow of object's own color at the edges"
       color-interpolation-filters="sRGB">
      <feGaussianBlur
         id="feGaussianBlur4246"
         stdDeviation="5"
         result="result91" />
      <feComposite
         id="feComposite4248"
         in2="result91"
         in="SourceGraphic"
         operator="over" />
    </filter>
    <filter
       id="filter4250"
       inkscape:label="Glow"
       inkscape:menu="Shadows and Glows"
       inkscape:menu-tooltip="Glow of object's own color at the edges"
       color-interpolation-filters="sRGB">
      <feGaussianBlur
         id="feGaussianBlur4252"
         stdDeviation="5"
         result="result91" />
      <feComposite
         id="feComposite4254"
         in2="result91"
         in="SourceGraphic"
         operator="over" />
    </filter>
    <filter
       id="filter4256"
       inkscape:label="Glow"
       inkscape:menu="Shadows and Glows"
       inkscape:menu-tooltip="Glow of object's own color at the edges"
       color-interpolation-filters="sRGB">
      <feGaussianBlur
         id="feGaussianBlur4258"
         stdDeviation="5"
         result="result91" />
      <feComposite
         id="feComposite4260"
         in2="result91"
         in="SourceGraphic"
         operator="over" />
    </filter>
    <filter
       id="filter4540"
       inkscape:label="Glow"
       inkscape:menu="Shadows and Glows"
       inkscape:menu-tooltip="Glow of object's own color at the edges"
       color-interpolation-filters="sRGB">
      <feGaussianBlur
         id="feGaussianBlur4542"
         stdDeviation="5"
         result="result91" />
      <feComposite
         id="feComposite4544"
         in2="result91"
         in="SourceGraphic"
         operator="over" />
    </filter>
    <filter
       id="filter4232-0"
       inkscape:label="Glow"
       inkscape:menu="Shadows and Glows"
       inkscape:menu-tooltip="Glow of object's own color at the edges"
       color-interpolation-filters="sRGB">
      <feGaussianBlur
         id="feGaussianBlur4234-1"
         stdDeviation="5"
         result="result91" />
      <feComposite
         id="feComposite4236-8"
         in2="result91"
         in="SourceGraphic"
         operator="over" />
    </filter>
  </defs>
  <sodipodi:namedview
     id="base"
     pagecolor="#ffffff"
     bordercolor="#666666"
     borderopacity="1.0"
     inkscape:pageopacity="0.0"
     inkscape:pageshadow="2"
     inkscape:zoom="1.979899"
     inkscape:cx="175.59797"
     inkscape:cy="575.10096"
     inkscape:document-units="px"
     inkscape:current-layer="layer1"
     showgrid="false"
     inkscape:window-width="952"
     inkscape:window-height="810"
     inkscape:window-x="552"
     inkscape:window-y="106"
     inkscape:window-maximized="0" />
  <metadata
     id="metadata4594">
    <rdf:RDF>
      <cc:Work
         rdf:about="">
        <dc:format>image/svg+xml</dc:format>
        <dc:type
           rdf:resource="http://purl.org/dc/dcmitype/StillImage" />
        <dc:title></dc:title>
      </cc:Work>
    </rdf:RDF>
  </metadata>
  <g
     inkscape:label="Layer 1"
     inkscape:groupmode="layer"
     id="layer1">
    <path
       style="fill:#0d142f;fill-opacity:1;stroke:#000000;stroke-width:4.35422325;stroke-linecap:round;stroke-miterlimit:4;stroke-opacity:1;filter:url(#filter4540)"
       d="m 123.6429,397.5393 125.41247,0 c 20.36955,0 36.76813,16.39859 36.76813,36.76814 l 0,136.1095 c 0,20.36955 -16.39858,36.76813 -36.76813,36.76813 l -125.41247,0 c -20.36955,0 -36.768133,-16.39858 -36.768133,-36.76813 l 0,-136.1095 c 0,-20.36955 16.398583,-36.76814 36.768133,-36.76814 z"
       id="rect3907"
       inkscape:connector-curvature="0"
       sodipodi:nodetypes="sssssssss" />
    <path
       style="fill:none;stroke:#ececec;stroke-width:10;stroke-linecap:butt;stroke-linejoin:miter;stroke-miterlimit:4;stroke-opacity:1;stroke-dasharray:none;stroke-dashoffset:0;marker-end:none;filter:url(#filter4232)"
       d="m 101.19885,526.66505 88.23178,0 10.62565,-16.32401 10.31215,38.4855 7.34752,-22.16149 51.21155,0"
       id="path2985-1"
       inkscape:connector-curvature="0"
       sodipodi:nodetypes="cccccc" />
    <path
       style="fill:none;stroke:#ececec;stroke-width:10;stroke-linecap:butt;stroke-linejoin:miter;stroke-miterlimit:4;stroke-opacity:1;stroke-dasharray:none;stroke-dashoffset:0;marker-end:none;filter:url(#filter4232-0)"
       d="m 101.19885,462.30058 119.66035,0 10.62565,-16.32401 10.31215,38.4855 7.34752,-22.16149 19.78298,0"
       id="path2985-1-2"
       inkscape:connector-curvature="0"
       sodipodi:nodetypes="cccccc" />
    <path
       style="fill:#ca6c20;fill-opacity:1;stroke:none;filter:url(#filter4226)"
       inkscape:connector-curvature="0"
       d="m 132.32654,595.37353 c -12.18698,-1.93745 -18.76331,-20.04069 -6.58855,-26.67202 11.17293,-2.75159 17.20581,11.68954 10.66779,16.23599 -0.0147,4.35722 6.70537,7.34006 8.69417,-1.73254 2.07664,-10.21722 0.87791,-10.27336 -1.56682,-19.28831 -3.83667,-3.42685 -3.89656,-4.76343 -10.2906,-6.19678 -21.01858,1.69298 -30.15986,-23.91691 -28.48828,-43.86592 0.56779,-18.81833 6.69244,-25.27348 18.10934,-38.34057 -3.74655,-17.09418 -4.16907,-41.48496 6.69776,-56.38133 10.00507,-12.10936 30.43503,-3.16521 32.128,4.35418 3.75878,17.57517 -3.37718,50.68737 -15.85142,63.07787 1.19181,5.87347 0.93671,7.83059 2.15296,13.69794 13.17711,-2.54252 20.04096,9.30752 20.76216,22.35017 2.03524,11.7836 -5.51898,22.90713 -15.84186,27.96772 -0.16502,10.11508 5.42119,20.6091 3.41651,31.05421 -1.93134,10.7996 -14.04498,16.09856 -24.00116,13.73939 z m 10.1863,-49.30359 c 3.73433,-7.00415 -3.03758,-19.38673 -3.4104,-28.38333 -1.87362,-6.5977 -7.56726,2.68043 -2.61667,10.38745 1.46684,4.55942 8.84064,16.49183 -2.85741,11.33345 -12.21143,-7.30974 -11.64914,-26.11584 -0.49505,-34.05511 7.59555,-6.87013 4.0059,-12.06449 2.23958,-16.16553 -11.49635,10.47568 -17.39002,16.88541 -15.40368,33.84574 1.49129,15.89686 7.75301,26.61274 22.54363,23.03733 z m 11.66615,-10.17431 c 5.40878,-7.29337 6.92056,-14.72338 0.22634,-19.44003 -7.08389,-2.48008 -6.72508,-0.85125 -5.41529,5.89621 1.77244,2.5853 0.7701,17.62652 5.18895,13.54382 z m -13.8704,-74.33447 c 6.74135,-8.16052 10.52591,-10.29822 5.78924,-21.08743 -10.20675,-6.73462 -10.15814,0.0446 -10.40872,8.01682 -0.0917,5.17001 -2.64137,24.77413 4.61948,13.07061 z"
       id="imagebot_13"
       sodipodi:nodetypes="cccccccccccccccccccccccccccccccc" />
  </g>
</svg>
