/* XPM */
static const char * axial_xpm[] = {
"32 32 140 2",
"  	c None",
". 	c #494949",
"+ 	c #626262",
"@ 	c #6F6F6F",
"# 	c #5B5B5B",
"$ 	c #6D6D6D",
"% 	c #5E5E5E",
"& 	c #424242",
"* 	c #323232",
"= 	c #6C6C6C",
"- 	c #777777",
"; 	c #575757",
"> 	c #333333",
", 	c #1B1B1B",
"' 	c #181818",
") 	c #232323",
"! 	c #696969",
"~ 	c #757575",
"{ 	c #444444",
"] 	c #6E6E6E",
"^ 	c #363636",
"/ 	c #141414",
"( 	c #242424",
"_ 	c #373737",
": 	c #2D2D2D",
"< 	c #1E1E1E",
"[ 	c #2B2B2B",
"} 	c #1C1C1C",
"| 	c #252525",
"1 	c #727272",
"2 	c #5A5A5A",
"3 	c #262626",
"4 	c #272727",
"5 	c #666666",
"6 	c #313131",
"7 	c #818181",
"8 	c #3A3A3A",
"9 	c #0D0D0D",
"0 	c #3C3C3C",
"a 	c #7B7B7B",
"b 	c #2E2E2E",
"c 	c #515151",
"d 	c #5C5C5C",
"e 	c #151515",
"f 	c #505050",
"g 	c #898989",
"h 	c #909090",
"i 	c #959595",
"j 	c #4D4D4D",
"k 	c #969696",
"l 	c #676767",
"m 	c #4E4E4E",
"n 	c #737373",
"o 	c #383838",
"p 	c #4C4C4C",
"q 	c #616161",
"r 	c #656565",
"s 	c #878787",
"t 	c #979797",
"u 	c #707070",
"v 	c #525252",
"w 	c #949494",
"x 	c #171717",
"y 	c #3F3F3F",
"z 	c #2A2A2A",
"A 	c #797979",
"B 	c #8E8E8E",
"C 	c #787878",
"D 	c #838383",
"E 	c #7D7D7D",
"F 	c #5F5F5F",
"G 	c #585858",
"H 	c #989898",
"I 	c #848484",
"J 	c #464646",
"K 	c #595959",
"L 	c #131313",
"M 	c #434343",
"N 	c #8A8A8A",
"O 	c #717171",
"P 	c #636363",
"Q 	c #919191",
"R 	c #1D1D1D",
"S 	c #767676",
"T 	c #393939",
"U 	c #858585",
"V 	c #929292",
"W 	c #5D5D5D",
"X 	c #888888",
"Y 	c #868686",
"Z 	c #8C8C8C",
"` 	c #565656",
" .	c #0F0F0F",
"..	c #4B4B4B",
"+.	c #686868",
"@.	c #6A6A6A",
"#.	c #545454",
"$.	c #8F8F8F",
"%.	c #8D8D8D",
"&.	c #212121",
"*.	c #4F4F4F",
"=.	c #292929",
"-.	c #6B6B6B",
";.	c #828282",
">.	c #939393",
",.	c #7F7F7F",
"'.	c #454545",
").	c #7A7A7A",
"!.	c #4A4A4A",
"~.	c #535353",
"{.	c #2C2C2C",
"].	c #414141",
"^.	c #747474",
"/.	c #303030",
"(.	c #2F2F2F",
"_.	c #646464",
":.	c #808080",
"<.	c #404040",
"[.	c #474747",
"}.	c #1F1F1F",
"|.	c #484848",
"1.	c #7C7C7C",
"2.	c #3E3E3E",
"3.	c #7E7E7E",
"4.	c #555555",
"5.	c #3B3B3B",
"6.	c #353535",
"7.	c #222222",
"8.	c #8B8B8B",
"9.	c #1A1A1A",
"0.	c #3D3D3D",
"a.	c #0E0E0E",
"b.	c #606060",
"c.	c #343434",
"d.	c #0A0A0A",
"e.	c #121212",
"f.	c #070707",
"g.	c #202020",
"h.	c #161616",
"i.	c #282828",
"                          . + @ # $ % &                         ",
"                    * = - ; > , ' ) & ! ~ .                     ",
"                  { ] ^ / , ( _ : < [ } | % 1                   ",
"                ; 2 3 4 5 ! 1 $ 6 ; 7 8 ' 9 0 a b               ",
"              c d e 6 f g h i $ j - k l m 8 , [ n               ",
"            o ! 9 p q r s t i u v $ k w a 1 q x y l             ",
"            ! z b A B C D t E F G 7 t H 7 I l J , ] j           ",
"          j K L M n N t H i 1 O m P Q H k n = 5 R : S           ",
"          $ ( T U I I H H H V W 2 1 X H h Y Z ! `  .d q         ",
"        ..+./ r k k H H H H t @.#.$.H H H i V %.1 &.8 C         ",
"        + *.=.-.N H H H H %.V ;.C i H H H >.H w ,.G =.S '.      ",
"        n y { E k H H H H $ ..h t A ).H H H H h @ !.} @ ~.      ",
"        S 6 ( + 1 B H H H n {.].F : r >.H H Q + ^.1 e ! `       ",
"        - 3 W -.E w H H k O /.4 b | +.V H H H w H I ) 2 c       ",
"        A z S w V k V H t 1 [ (._ ( _.k H Z s k i Y 8 p j       ",
"      y ~ /.I Z k :.n k k + {.<.{ 3 ` t t A s t Y # { [.K       ",
"      & C }.l = k N a >.$.]./.|.'.b T V >.S 1.w i %.{ [.d       ",
"      2.)., A 3.;.Y u %.u | & 7 7 4.( ] w $ - @ W ! * { #       ",
"      5.1.x % + ` + h k o o $.>.$.k j b >.k ).] ! = 6...#       ",
"      * 7 7.# O 3.Q H >.{.E 8.*.v Z Q 2.g H H $.a I * # c       ",
"        ;.z = S - k H i ] H U K '.U Q Q >.H >.Z 1.q 9.@ |.      ",
"        $ [.> ~ E ^.Q H H E 7 K c 1.v ;.H g :.:.8.. 3 :.b       ",
"        0.- a.~.l 7 >.H H s r l b.r K 3.H k :.^.+ , 4.-.        ",
"          1.T c.a u N H H %.3.-.2 @ K 8.i t s 1 *.a.E T         ",
"          '.$.d.8 ,.C k H H Q ! ; X V i S s h !  .|.2           ",
"            ,.0 L l d B Q t V 5 *.%.t t C 3.).e.x S             ",
"            /.N {.x @.A X :.k ^.*.B h 7 @ l )  .u <.            ",
"              0 ;.6  .6.` 7 s ^.y P D ] > f.9.! |.              ",
"                  ! f a.d.{.'.<.} g.h.f. .<.r 5.                ",
"                    y #.2.i.9.} }.: 6.J p T                     ",
"                        4 T 8 y o 6.{.7.                        ",
"                                                                "};
