/* XPM */
static const char * coronal_xpm[] = {
"32 32 233 2",
"  	c None",
". 	c #313131",
"+ 	c #2F2F2F",
"@ 	c #2D2D2D",
"# 	c #383838",
"$ 	c #414141",
"% 	c #646464",
"& 	c #858585",
"* 	c #9E9E9E",
"= 	c #ADADAD",
"- 	c #AAAAAA",
"; 	c #949494",
"> 	c #7B7B7B",
", 	c #4C4C4C",
"' 	c #373737",
") 	c #424242",
"! 	c #838383",
"~ 	c #D5D5D5",
"{ 	c #BEBEBE",
"] 	c #6D6D6D",
"^ 	c #5A5A5A",
"/ 	c #565656",
"( 	c #5E5E5E",
"_ 	c #787878",
": 	c #B2B2B2",
"< 	c #E2E2E2",
"[ 	c #B3B3B3",
"} 	c #343434",
"| 	c #505050",
"1 	c #B4B4B4",
"2 	c #959595",
"3 	c #0E0E0E",
"4 	c #191919",
"5 	c #181818",
"6 	c #1A1A1A",
"7 	c #080808",
"8 	c #0B0B0B",
"9 	c #020202",
"0 	c #161616",
"a 	c #696969",
"b 	c #D6D6D6",
"c 	c #A5A5A5",
"d 	c #464646",
"e 	c #2E2E2E",
"f 	c #393939",
"g 	c #CACACA",
"h 	c #444444",
"i 	c #121212",
"j 	c #282828",
"k 	c #1F1F1F",
"l 	c #202020",
"m 	c #3E3E3E",
"n 	c #222222",
"o 	c #0F0F0F",
"p 	c #171717",
"q 	c #151515",
"r 	c #727272",
"s 	c #6E6E6E",
"t 	c #333333",
"u 	c #626262",
"v 	c #C5C5C5",
"w 	c #1D1D1D",
"x 	c #3D3D3D",
"y 	c #4D4D4D",
"z 	c #3F3F3F",
"A 	c #AEAEAE",
"B 	c #878787",
"C 	c #4B4B4B",
"D 	c #A4A4A4",
"E 	c #252525",
"F 	c #292929",
"G 	c #555555",
"H 	c #BFBFBF",
"I 	c #232323",
"J 	c #1B1B1B",
"K 	c #868686",
"L 	c #757575",
"M 	c #D1D1D1",
"N 	c #A9A9A9",
"O 	c #E5E5E5",
"P 	c #8D8D8D",
"Q 	c #676767",
"R 	c #E3E3E3",
"S 	c #7A7A7A",
"T 	c #BBBBBB",
"U 	c #909090",
"V 	c #303030",
"W 	c #272727",
"X 	c #C3C3C3",
"Y 	c #525252",
"Z 	c #363636",
"` 	c #2A2A2A",
" .	c #ACACAC",
"..	c #A2A2A2",
"+.	c #6B6B6B",
"@.	c #EAEAEA",
"#.	c #323232",
"$.	c #595959",
"%.	c #DFDFDF",
"&.	c #CDCDCD",
"*.	c #5C5C5C",
"=.	c #939393",
"-.	c #B9B9B9",
";.	c #131313",
">.	c #262626",
",.	c #484848",
"'.	c #5B5B5B",
").	c #ABABAB",
"!.	c #A6A6A6",
"~.	c #6A6A6A",
"{.	c #B0B0B0",
"].	c #E9E9E9",
"^.	c #6F6F6F",
"/.	c #686868",
"(.	c #BABABA",
"_.	c #707070",
":.	c #8C8C8C",
"<.	c #0A0A0A",
"[.	c #545454",
"}.	c #C1C1C1",
"|.	c #C6C6C6",
"1.	c #DADADA",
"2.	c #818181",
"3.	c #9A9A9A",
"4.	c #919191",
"5.	c #575757",
"6.	c #D3D3D3",
"7.	c #EBEBEB",
"8.	c #9B9B9B",
"9.	c #D2D2D2",
"0.	c #3B3B3B",
"a.	c #141414",
"b.	c #A8A8A8",
"c.	c #E6E6E6",
"d.	c #E8E8E8",
"e.	c #888888",
"f.	c #CECECE",
"g.	c #E1E1E1",
"h.	c #747474",
"i.	c #353535",
"j.	c #DBDBDB",
"k.	c #DDDDDD",
"l.	c #E0E0E0",
"m.	c #898989",
"n.	c #535353",
"o.	c #111111",
"p.	c #6C6C6C",
"q.	c #B1B1B1",
"r.	c #B5B5B5",
"s.	c #8A8A8A",
"t.	c #636363",
"u.	c #B8B8B8",
"v.	c #797979",
"w.	c #C0C0C0",
"x.	c #3C3C3C",
"y.	c #A0A0A0",
"z.	c #D4D4D4",
"A.	c #BDBDBD",
"B.	c #A3A3A3",
"C.	c #E4E4E4",
"D.	c #9F9F9F",
"E.	c #A1A1A1",
"F.	c #737373",
"G.	c #DEDEDE",
"H.	c #DCDCDC",
"I.	c #E7E7E7",
"J.	c #767676",
"K.	c #848484",
"L.	c #9D9D9D",
"M.	c #D9D9D9",
"N.	c #C8C8C8",
"O.	c #808080",
"P.	c #656565",
"Q.	c #494949",
"R.	c #212121",
"S.	c #5F5F5F",
"T.	c #4A4A4A",
"U.	c #717171",
"V.	c #969696",
"W.	c #2B2B2B",
"X.	c #616161",
"Y.	c #515151",
"Z.	c #1C1C1C",
"`.	c #404040",
" +	c #7F7F7F",
".+	c #5D5D5D",
"++	c #434343",
"@+	c #7E7E7E",
"#+	c #4F4F4F",
"$+	c #8E8E8E",
"%+	c #242424",
"&+	c #3A3A3A",
"*+	c #8B8B8B",
"=+	c #7C7C7C",
"-+	c #606060",
";+	c #7D7D7D",
">+	c #CBCBCB",
",+	c #666666",
"'+	c #8F8F8F",
")+	c #979797",
"!+	c #474747",
"~+	c #2C2C2C",
"{+	c #585858",
"]+	c #0C0C0C",
"^+	c #4E4E4E",
"/+	c #C2C2C2",
"(+	c #EFEFEF",
"_+	c #929292",
":+	c #FDFDFD",
"<+	c #060606",
"[+	c #BCBCBC",
"}+	c #C9C9C9",
"|+	c #F4F4F4",
"1+	c #FEFEFE",
"2+	c #454545",
"3+	c #000000",
"4+	c #050505",
"5+	c #FCFCFC",
"6+	c #B6B6B6",
"7+	c #010101",
"8+	c #F7F7F7",
"9+	c #F3F3F3",
"0+	c #F6F6F6",
"a+	c #070707",
"b+	c #101010",
"c+	c #F9F9F9",
"d+	c #CFCFCF",
"e+	c #777777",
"f+	c #FAFAFA",
"g+	c #FBFBFB",
"h+	c #828282",
"i+	c #989898",
"j+	c #9C9C9C",
"                          . + + . . @                           ",
"                    # $ % & * = - ; > , '                       ",
"                  ) ! ~ { ] ^ / ( _ : < [ ( }                   ",
"              } | 1 2 @ 3 4 5 6 7 8 9 0 a b c d e               ",
"            f ( g h i j k l f m # n o i p q r b s t             ",
"          . u v + p w x y z A B C D ^ } E i 4 F g % .           ",
"          G H I J d K L M N O P Q R S T U V t p W X Y           ",
"        Z [ @ i `  ...+.< @.2 #.$.%.&.g *.=.-., ;.@ D z         ",
"      >.U ,.J Y '.).!.~.{.].^.C y v @.> /.&.(.( j o f U t       ",
"      _.:.<.[.}.-.|.1.2.3.@.4.( 5.6.7.= L 8.9.a 0.w a._ =.V     ",
"    Z (.E e b.R 7.7.7.O c.d.e./ a f.7.d.K v g.h.# W F j T '.    ",
"    _ h.q i.[.+.4.j.7.7.7.@.[ ~.G _.k.7.j.l.m./.> ).n.o.p.-     ",
"    3.h @ q.r...s.(.7.7.7.].q.'.t.u.k.7.7.D +.v.w.@.1 I x.= $   ",
"  V  .. $ y.c.@.@.@.7.7.7.7.z./ ^.j.7.7.7.A.& B.C.g.D.d >.:.]   ",
"  [.E.` z _.& b @.@.O 7.j.F.&.G.< H.(.7.7.@.I.7.@...B *.J v.m.  ",
"  p.P e e h.J.K.L.y.s.d.X | F u % #.t.u.7.M.N.g.%.B O.n.a.+.3.  ",
"  J.v.# 6 Z P./.a h.m.d.&.O.Q.l R.5.O.(.@.= % B.{ _ S.@ a.P.m.  ",
"  ! p.d 0 ' z T.n.P.= f.j.e.U.E ` L B j.w.N.( J.V._ F.W.5 X.J.  ",
"  e.% Y.Z.j . W `.s.H. .g L. +S v.O.c q.P O c u *.S.# ` k .+&   ",
"  e.p.^ 5 >.+ a ++@+8.H 8.y.2 @+#+s.* $+q.g.D.J.I %+&+l ` / !   ",
"  *+=+/ 5 . -+y #.'.;+< ~ = }.n.j y. .>+c.[ O.,+>.Y.~.o.m , '+  ",
"  8.v #+. e 3.S z W./.{.)+t.> !+` h.U.3.[ > | ~+' =.{+]+^+> =   ",
"  /+(+Y.^+4 p.M ; f r _+m.% /.^+C > _ B.c p.W u r.e.W.q h = {.  ",
"  R :+@+$.l =+(.: > $.G &+i.X.]+<+^+C } T.,+( [+F.t.&+e $ (+}+  ",
"$ |+1+/+, } {+: 1 M.E.J.2+e o 3+3+4+t $ i.c [+/+v.r n f +.5+7.f ",
"% :+1+@.G C I F.6+-.+.% !+p 7+3+3+3+o z X.!.~.j.[+| W.i.N :+(+++",
"Q 1+1+8+/.G f w i., f ~+0 3+3+3+3+3+3+i 5. +T.L d w [.h ].1+9+^ ",
"v.1+0+b...a -+| [., | {+]+3 7 7+7+a+]+b+Z x.~+' j 2+'.2.: 7.c+G ",
"& 1+].' 2.{.J.*.{+S.B y.C | w R.0 6 .+#.d+U | X.L t.X.e+} N.f+^ ",
"V.:+:+A L S F.P.F.^ X.L f.e 0 @     &+ +H ^.F./.~.;+P -+_ 8+g+{+",
"..5+5+(.O.K.' /.[.^ -+Q.+.' d l   ;.4 t.,+'.@+ .O.r h.,+h+5+:+'.",
"i+g+g+/+! )+Z *.~.=+^ Y ,.V T.@   p 5 U.~.'+{.P 2 `.'+S.j+1+:+( "};
