/* XPM */
static const char *greyscale_xpm[] = {
/* columns rows colors chars-per-pixel */
"32 32 147 2",
"   c #8A0000",
".  c #861200",
"X  c #8A1B00",
"o  c #900000",
"O  c #A20300",
"+  c #A00700",
"@  c #A00A00",
"#  c #A00D00",
"$  c #A01100",
"%  c #A01400",
"&  c #A01700",
"*  c #A01B00",
"=  c #A01D00",
"-  c #B00100",
";  c #B10100",
":  c #B20100",
">  c #B30100",
",  c #B20500",
"<  c #B00900",
"1  c #B00E00",
"2  c #B01300",
"3  c #B01800",
"4  c #B01C00",
"5  c #A02100",
"6  c #A02400",
"7  c #A02800",
"8  c #A02A00",
"9  c #A02E00",
"0  c #A03100",
"q  c #A03500",
"w  c #A03800",
"e  c #A03B00",
"r  c #A03E00",
"t  c #B02100",
"y  c #B02600",
"u  c #B02C00",
"i  c #B03000",
"p  c #B03500",
"a  c #B03900",
"s  c #B03E00",
"d  c #A04200",
"f  c #A04500",
"g  c #A04600",
"h  c #A14700",
"j  c #A24900",
"k  c #B04300",
"l  c #B04800",
"z  c #B04D00",
"x  c #B05200",
"c  c #B05600",
"v  c #B05C00",
"b  c #B06000",
"n  c #B06500",
"m  c #B06600",
"M  c #FF0600",
"N  c #FF0900",
"B  c #FF0C00",
"V  c #FF0D00",
"C  c #FF1400",
"Z  c #FF1600",
"A  c #FF1700",
"S  c #FF1F00",
"D  c #FF2000",
"F  c #FF2100",
"G  c #FF2200",
"H  c #FF2A00",
"J  c #FF2B00",
"K  c #FF2D00",
"L  c #FF3500",
"P  c #FF3600",
"I  c #FF3700",
"U  c #FF3800",
"Y  c #FF3E00",
"T  c #FF3F00",
"R  c #FF4300",
"E  c #FF4900",
"W  c #FF4A00",
"Q  c #FF4E00",
"!  c #FF4F00",
"~  c #FF5200",
"^  c #FF5300",
"/  c #FF5B00",
"(  c #FF5D00",
")  c #FF5E00",
"_  c #FF6600",
"`  c #FF6700",
"'  c #FF6800",
"]  c #FF7000",
"[  c #FF7200",
"{  c #FF7300",
"}  c #FF7900",
"|  c #FF7B00",
" . c #FF7C00",
".. c #FF7E00",
"X. c #FF7F00",
"o. c #FF8400",
"O. c #FF8600",
"+. c #FF8A00",
"@. c #FF8B00",
"#. c #FF8D00",
"$. c #FF8F00",
"%. c #FF9500",
"&. c #FF9700",
"*. c #FF9800",
"=. c #FF9A00",
"-. c #FFA100",
";. c #FFA200",
":. c #FFA300",
">. c #FFA400",
",. c #FFAC00",
"<. c #FFAD00",
"1. c #FFAE00",
"2. c #FFAF00",
"3. c #FFB600",
"4. c #FFB800",
"5. c #FFB900",
"6. c #FFBA00",
"7. c #FFC000",
"8. c #FFC200",
"9. c #FFC300",
"0. c #FFC500",
"q. c #FFC600",
"w. c #FFC900",
"e. c #FFCB00",
"r. c #FFCC00",
"t. c #FFD100",
"y. c #FFD200",
"u. c #FFD400",
"i. c #FFD600",
"p. c gold",
"a. c #FFDC00",
"s. c #FFDE00",
"d. c #FFDF00",
"f. c #FFE000",
"g. c #FFE200",
"h. c #FFE800",
"j. c #FFEA00",
"k. c #FFEC00",
"l. c #FFF300",
"z. c #FFF500",
"x. c #FFF700",
"c. c #FFF900",
"v. c #FFFA00",
"b. c #FFFD00",
"n. c yellow",
"m. c gray100",
"M. c None",
/* pixels */
"M.M.M.M.M.M.M.M.M.M.M.M.M.M.M.M.M.M.M.M.M.M.M.M.M.M.M.M.M.M.M.M.",
"M.M.M.M.M.M.M.M.M.M.M.M.M.M.M.M.M.M.M.M.M.M.M.M.M.M.M.M.M.M.M.M.",
"M.M.M.M.M.M.M.M.M.M.M.M.M.M.M.M.M.M.M.M.M.M.M.M.M.M.M.M.M.M.M.M.",
"M.M.M.M.M.M.M.M.M.M.M.M.M.M.M.M.M.M.M.M.M.M.M.M.M.M.M.M.M.M.M.M.",
"M.M.M.M.M.M.M.M.M.M.M.M.M.M.M.M.M.M.M.M.M.M.M.M.M.M.M.M.M.M.M.M.",
"M.M.M.M.M.M.M.M.M.M.M.M.M.M.M.M.M.M.M.M.M.M.M.M.M.M.M.M.M.M.M.M.",
"M.M.. f f f f f d d r e w w 0 9 8 7 6 6 * * & % % @ @ + O   M.M.",
"M.M.j b.b.b.b.v.l.j.s.t.9.3.1.-.%.+...[ _ / Q R U K S C N ; M.M.",
"M.M.f b.v.j.f.p.r.9.5.2.:.=.%.O...[ ' ) ^ W T P J G A V M ; M.M.",
"M.M.f b.z.j.f.p.r.9.5.1.:.=.#.O.| [ ' ) ^ W T P J G A V M ; M.M.",
"M.M.f b.v.j.s.p.w.9.5.1.:.=.#.O.| [ _ ) ^ W T P J G A V M - M.M.",
"M.M.f b.z.j.s.p.w.9.5.1.:.=.#.O.| [ _ ) ^ W T P J G A V M ; M.M.",
"M.M.f b.v.j.f.p.w.9.3.1.:.=.%.O.| [ _ ) ^ W T P J G A V M - M.M.",
"M.M.f b.v.j.f.p.w.9.5.1.:.=.#.O.| [ _ ) ^ W T P J G A V M - M.M.",
"M.M.f b.z.j.f.p.r.9.3.1.:.=.%.O...[ ' ) ^ W T P J G A V M - M.M.",
"M.M.f b.z.j.f.p.r.9.5.1.:.=.#.O.| [ _ ) ^ W T P J G A V M - M.M.",
"M.M.f b.z.j.s.p.w.9.5.1.:.=.#.O.| [ _ ) ^ W T P J G A V M - M.M.",
"M.M.f b.v.j.s.p.w.9.5.1.:.=.#.O.| [ _ ) ^ W T P J G A V M - M.M.",
"M.M.f b.z.j.f.p.r.9.5.1.:.=.%.O...[ _ ) ^ W T P J G A V M - M.M.",
"M.M.f b.v.j.s.p.w.9.5.2.:.=.#.O.| [ ' ) ^ W T P J G A N M - M.M.",
"M.M.f b.v.j.s.p.w.9.5.1.:.=.%.O.| [ ' ) ^ W T P J G A V M - M.M.",
"M.M.f b.z.j.f.p.r.9.3.1.:.=.#.O.| [ _ ) ^ W T P J G A V M - M.M.",
"M.M.f b.v.j.s.p.r.9.5.1.:.=.#.O.| { ' ) ^ W T P J G A V M - M.M.",
"M.M.f b.z.j.s.p.w.6.3.1.-.=.#.O.| ' _ ) ^ W T P J G A V M - M.M.",
"M.M.j b.b.b.b.b.z.j.s.t.9.6.1.-.%.#.X.[ _ / Q R P J S C N > M.M.",
"M.M.X n n n m m n b v c c z l k s a p i u y t 4 3 2 1 < ,   M.M.",
"M.M.M.M.M.M.M.M.M.M.M.M.M.M.M.M.M.M.M.M.M.M.M.M.M.M.M.M.M.M.M.M.",
"M.M.M.M.M.M.M.M.M.M.M.M.M.M.M.M.M.M.M.M.M.M.M.M.M.M.M.M.M.M.M.M.",
"M.M.M.M.M.M.M.M.M.M.M.M.M.M.M.M.M.M.M.M.M.M.M.M.M.M.M.M.M.M.M.M.",
"M.M.M.M.M.M.M.M.M.M.M.M.M.M.M.M.M.M.M.M.M.M.M.M.M.M.M.M.M.M.M.M.",
"M.M.M.M.M.M.M.M.M.M.M.M.M.M.M.M.M.M.M.M.M.M.M.M.M.M.M.M.M.M.M.M.",
"M.M.M.M.M.M.M.M.M.M.M.M.M.M.M.M.M.M.M.M.M.M.M.M.M.M.M.M.M.M.M.M."
};
