/* XPM */
static const char * importdicom[] = {
"32 32 534 2",
"  	c None",
". 	c #2E2DA3",
"+ 	c #3333A6",
"@ 	c #3C3DAB",
"# 	c #4243AE",
"$ 	c #4042AE",
"% 	c #3839AA",
"& 	c #3030A5",
"* 	c #2F2EA3",
"= 	c #3636A8",
"- 	c #5E60BC",
"; 	c #9195D4",
"> 	c #B7BCE7",
", 	c #CBD2F1",
"' 	c #D3D9F5",
") 	c #D1D8F4",
"! 	c #C1C6EF",
"~ 	c #A5A9E2",
"{ 	c #7D7FCD",
"] 	c #5050B4",
"^ 	c #3131A5",
"/ 	c #6C6EC1",
"( 	c #C6CAEB",
"_ 	c #F5F9FF",
": 	c #FDFFFF",
"< 	c #FAFEFF",
"[ 	c #F8FCFF",
"} 	c #F6FAFF",
"| 	c #F3F7FF",
"1 	c #F3F6FF",
"2 	c #F8FBFF",
"3 	c #F2F3FB",
"4 	c #B1B2DF",
"5 	c #5353B5",
"6 	c #2F2EA4",
"7 	c #3D3EAC",
"8 	c #A9ADDE",
"9 	c #FAFDFF",
"0 	c #FCFFFF",
"a 	c #F4F7FF",
"b 	c #F2F5FF",
"c 	c #F1F5FF",
"d 	c #F0F5FF",
"e 	c #F0F4FF",
"f 	c #EBEEFF",
"g 	c #E9ECFF",
"h 	c #F2F4FF",
"i 	c #FCFDFF",
"j 	c #FFFFFF",
"k 	c #F0F1FA",
"l 	c #8485CB",
"m 	c #4344AE",
"n 	c #C4C8EC",
"o 	c #FEFFFF",
"p 	c #EFF2FF",
"q 	c #EEF2FF",
"r 	c #EEF1FF",
"s 	c #EDF1FF",
"t 	c #ECF1FF",
"u 	c #EBF0FF",
"v 	c #E7EAFF",
"w 	c #E7E9FF",
"x 	c #F3F4FF",
"y 	c #F5F6FF",
"z 	c #F4F5FF",
"A 	c #F9FAFF",
"B 	c #9C9DD9",
"C 	c #3232A4",
"D 	c #3C3CAA",
"E 	c #BCC2EB",
"F 	c #ECEFFF",
"G 	c #EAEEFF",
"H 	c #E9EDFF",
"I 	c #E8EDFF",
"J 	c #E7EBFF",
"K 	c #E2E5FF",
"L 	c #E6E9FF",
"M 	c #F1F2FF",
"N 	c #F0F1FF",
"O 	c #F2F3FF",
"P 	c #9395DA",
"Q 	c #272685",
"R 	c #9DA2DC",
"S 	c #F0F7FF",
"T 	c #E8EBFF",
"U 	c #E6EAFF",
"V 	c #E5E9FF",
"W 	c #E4E9FF",
"X 	c #E2E6FF",
"Y 	c #DEE0FF",
"Z 	c #EDEEFF",
"` 	c #ECEDFF",
" .	c #EFF0FF",
"..	c #6669CC",
"+.	c #6466BE",
"@.	c #E7F0FF",
"#.	c #E4EAFF",
"$.	c #E5E7FF",
"%.	c #E4E7FF",
"&.	c #E3E7FF",
"*.	c #E3E6FF",
"=.	c #E1E5FF",
"-.	c #E1E6FF",
";.	c #DEE2FF",
">.	c #DBDEFF",
",.	c #E8E9FF",
"'.	c #E9EAFF",
").	c #E6E7FF",
"!.	c #C7D1FF",
"~.	c #9EA9F7",
"{.	c #393AA2",
"].	c #3534A6",
"^.	c #B8BCE8",
"/.	c #EBF4FF",
"(.	c #E0E8FF",
"_.	c #E1E4FF",
":.	c #E0E4FF",
"<.	c #E0E3FF",
"[.	c #DFE3FF",
"}.	c #D7DCFF",
"|.	c #D5D8FF",
"1.	c #DFE1FF",
"2.	c #E5E5FF",
"3.	c #E5E6FF",
"4.	c #E4E5FF",
"5.	c #D1D5FF",
"6.	c #B1BDFF",
"7.	c #B6C3FF",
"8.	c #6D72D7",
"9.	c #15144C",
"0.	c #5859B7",
"a.	c #E6EDFE",
"b.	c #E3ECFF",
"c.	c #DFE9FF",
"d.	c #DEE6FF",
"e.	c #DFE2FF",
"f.	c #C4C4FF",
"g.	c #A7A2FF",
"h.	c #9C96FF",
"i.	c #9D97FF",
"j.	c #AFACFF",
"k.	c #D6D5FF",
"l.	c #E1E2FF",
"m.	c #D8DBFF",
"n.	c #D3D6FF",
"o.	c #BCC5FF",
"p.	c #B1C0FF",
"q.	c #B9CDFF",
"r.	c #9DAEF4",
"s.	c #2D2D88",
"t.	c #898BCE",
"u.	c #EFF8FF",
"v.	c #E2EAFF",
"w.	c #DDE7FF",
"x.	c #DDE5FF",
"y.	c #B7B5FF",
"z.	c #938CFF",
"A.	c #A19BFC",
"B.	c #B7B3F7",
"C.	c #B2AEF8",
"D.	c #9993FE",
"E.	c #9992FF",
"F.	c #CECDFF",
"G.	c #D6D8FF",
"H.	c #D1D6FF",
"I.	c #C1CEFF",
"J.	c #B7CBFF",
"K.	c #BACFFF",
"L.	c #B9D0FF",
"M.	c #B5CBFF",
"N.	c #4B4FB3",
"O.	c #3130A4",
"P.	c #AEB1E1",
"Q.	c #EDF5FF",
"R.	c #DBE6FF",
"S.	c #DAE4FF",
"T.	c #DFE6FF",
"U.	c #C6C7FF",
"V.	c #948CFF",
"W.	c #B3AFF7",
"X.	c #EAEAEA",
"Y.	c #E3E4E4",
"Z.	c #E9EAE5",
"`.	c #DEDDEC",
" +	c #CDD2FF",
".+	c #CCD8FF",
"++	c #C1D3FF",
"@+	c #BCD1FF",
"#+	c #B9CFFF",
"$+	c #B7CDFF",
"%+	c #BCD4FF",
"&+	c #656DCC",
"*+	c #3838A8",
"=+	c #C3C7EB",
"-+	c #EAF2FF",
";+	c #DAE5FF",
">+	c #D8E5FF",
",+	c #A7A5FF",
"'+	c #9F99FD",
")+	c #E9E9EA",
"!+	c #AAABD0",
"~+	c #4343A8",
"{+	c #5656AE",
"]+	c #D3D3DC",
"^+	c #D4D2F0",
"/+	c #968EFF",
"(+	c #B1B8FF",
"_+	c #C3D8FF",
":+	c #BFD3FF",
"<+	c #BDD1FF",
"[+	c #BBD0FF",
"}+	c #BDD5FF",
"|+	c #7681DA",
"1+	c #14124C",
"2+	c #3E3EAA",
"3+	c #CCD0F0",
"4+	c #E9F1FF",
"5+	c #DAE6FF",
"6+	c #D4DFFF",
"7+	c #9E99FF",
"8+	c #B2AEF9",
"9+	c #E6E7E5",
"0+	c #4949AC",
"a+	c #131362",
"b+	c #8283C9",
"c+	c #EBEAEC",
"d+	c #9D96FE",
"e+	c #A9ABFF",
"f+	c #C4D8FF",
"g+	c #BDD4FF",
"h+	c #7D8ADF",
"i+	c #181758",
"j+	c #3C3CA9",
"k+	c #CBCFEE",
"l+	c #D6E2FF",
"m+	c #A09CFF",
"n+	c #ACA8FA",
"o+	c #ECECE7",
"p+	c #6363B6",
"q+	c #11115F",
"r+	c #252597",
"s+	c #9C9CCC",
"t+	c #E6E5ED",
"u+	c #9A93FF",
"v+	c #ABAFFF",
"w+	c #7C88DE",
"x+	c #171655",
"y+	c #3535A6",
"z+	c #BFC2E8",
"A+	c #EBF3FF",
"B+	c #DCE7FF",
"C+	c #D7E3FF",
"D+	c #ABABFF",
"E+	c #9790FF",
"F+	c #D8D6EE",
"G+	c #DBDBDE",
"H+	c #8B8BCC",
"I+	c #9E9ECC",
"J+	c #EBECE4",
"K+	c #BFBCF4",
"L+	c #958DFF",
"M+	c #B6C0FF",
"N+	c #676C70",
"O+	c #7B7E83",
"P+	c #77797E",
"Q+	c #777A7E",
"R+	c #70717A",
"S+	c #6A6A6D",
"T+	c #707070",
"U+	c #717071",
"V+	c #757777",
"W+	c #000000",
"X+	c #2E2EA3",
"Y+	c #A5A6DA",
"Z+	c #E2EBFF",
"`+	c #E1EBFF",
" @	c #D6DFFF",
".@	c #CCD3FF",
"+@	c #C5CCFF",
"@@	c #C5CAFF",
"#@	c #9D97FD",
"$@	c #8FA2DE",
"%@	c #2B65C0",
"&@	c #7693D2",
"*@	c #B2C5F1",
"=@	c #919292",
"-@	c #FBFFFF",
";@	c #FAFFFF",
">@	c #24241D",
",@	c #7979C5",
"'@	c #F3FAFF",
")@	c #DEE7FF",
"!@	c #D6DDFF",
"~@	c #CCD2FF",
"{@	c #C6CBFF",
"]@	c #DADEFF",
"^@	c #F1F3FF",
"/@	c #D7D7FF",
"(@	c #A09AFF",
"_@	c #0046B5",
":@	c #9CBAEA",
"<@	c #0037AF",
"[@	c #6681BE",
"}@	c #868B8E",
"|@	c #F1FCFF",
"1@	c #E2ECFF",
"2@	c #E2EEFF",
"3@	c #1F211B",
"4@	c #4747AE",
"5@	c #D2D4F8",
"6@	c #D0D5FF",
"7@	c #C9CEFF",
"8@	c #CFD5FF",
"9@	c #EEF0FF",
"0@	c #F1F4FF",
"a@	c #DDF1FF",
"b@	c #C7E0FF",
"c@	c #C1DDFF",
"d@	c #B2C6E7",
"e@	c #787E8F",
"f@	c #CEE4FF",
"g@	c #C9DBFF",
"h@	c #CCDEFF",
"i@	c #CBDDFE",
"j@	c #CDDFFF",
"k@	c #C7DAFF",
"l@	c #DAEEFF",
"m@	c #1C1C1B",
"n@	c #3031A5",
"o@	c #908FD7",
"p@	c #D9DCFF",
"q@	c #C9CFFF",
"r@	c #DCDFFF",
"s@	c #F0F2FF",
"t@	c #EEEFFF",
"u@	c #EDEFFF",
"v@	c #EFF1FF",
"w@	c #E4E8FF",
"x@	c #CEE8FF",
"y@	c #BDDAFF",
"z@	c #C3DEFF",
"A@	c #C4DFFF",
"B@	c #C2DDFF",
"C@	c #C5E0FF",
"D@	c #DAEAFD",
"E@	c #F0F0F6",
"F@	c #727C8F",
"G@	c #B7D2FF",
"H@	c #ADC6FF",
"I@	c #B2CAFF",
"J@	c #B1C9FF",
"K@	c #C8E0FF",
"L@	c #181B1B",
"M@	c #4646B0",
"N@	c #CFCFF8",
"O@	c #D3D9FF",
"P@	c #BADDFF",
"Q@	c #77A8E5",
"R@	c #2F88FF",
"S@	c #6193D9",
"T@	c #7CB3FF",
"U@	c #73ABFF",
"V@	c #74ABFF",
"W@	c #B3CBFF",
"X@	c #D9EAFF",
"Y@	c #18191B",
"Z@	c #7878CD",
"`@	c #FBFCFF",
" #	c #ECEEFF",
".#	c #85BEFF",
"+#	c #77ABE5",
"@#	c #0050CF",
"##	c #CACED9",
"$#	c #E9F4FF",
"%#	c #E1EDFF",
"&#	c #DBE5FE",
"*#	c #D4DCFB",
"=#	c #DFEBFF",
"-#	c #729CE1",
";#	c #E4F3FF",
">#	c #18191C",
",#	c #202078",
"'#	c #9493DC",
")#	c #BEC6FF",
"!#	c #59A5FF",
"~#	c #5094E5",
"{#	c #C8E1FF",
"]#	c #C2DFFF",
"^#	c #BFDDFF",
"/#	c #BCDBFF",
"(#	c #B7D9FF",
"_#	c #A7BBD9",
":#	c #CAE4FF",
"<#	c #BFDAFF",
"[#	c #C0DEFF",
"}#	c #B0C9FB",
"|#	c #9EB0F4",
"1#	c #B9D7FF",
"2#	c #7BB3FF",
"3#	c #F2FCFF",
"4#	c #16171C",
"5#	c #242482",
"6#	c #8E8EDA",
"7#	c #F6F6FF",
"8#	c #F7F9FF",
"9#	c #53A1FF",
"0#	c #4B91E5",
"a#	c #B6D8FF",
"b#	c #BADAFF",
"c#	c #B3D7FF",
"d#	c #AFD5FF",
"e#	c #ABD2FF",
"f#	c #A5CFFF",
"g#	c #A0B8DA",
"h#	c #C8E4FF",
"i#	c #BDDEFF",
"j#	c #A9C3FA",
"k#	c #92A5F2",
"l#	c #B4D6FF",
"m#	c #7DB2FF",
"n#	c #15171C",
"o#	c #1C1C6E",
"p#	c #6B6AC8",
"q#	c #D5D5F3",
"r#	c #BFC7FF",
"s#	c #4699FF",
"t#	c #3F89E5",
"u#	c #ACD3FF",
"v#	c #B0D5FF",
"w#	c #A7D0FF",
"x#	c #A2CDFF",
"y#	c #9CCAFF",
"z#	c #A3BCE2",
"A#	c #C8E2FF",
"B#	c #C6E0FF",
"C#	c #C6E3FF",
"D#	c #B4CCFA",
"E#	c #A1B1F3",
"F#	c #89BAFF",
"G#	c #181920",
"H#	c #37379C",
"I#	c #8786D5",
"J#	c #C4C4F1",
"K#	c #CCD0FF",
"L#	c #D0D7FF",
"M#	c #3A92FF",
"N#	c #3483E5",
"O#	c #9ECAFF",
"P#	c #9ECBFF",
"Q#	c #9BC9FF",
"R#	c #97C7FF",
"S#	c #92C5FF",
"T#	c #8EC1FF",
"U#	c #87BFFF",
"V#	c #71A1DB",
"W#	c #5D85B7",
"X#	c #5D89B7",
"Y#	c #496BB0",
"Z#	c #334AA7",
"`#	c #5581B7",
" $	c #1757B7",
".$	c #181822",
"+$	c #101049",
"@$	c #2B2B87",
"#$	c #5352B2",
"$$	c #7675CC",
"%$	c #2D8AFF",
"&$	c #287CE5",
"*$	c #8FC2FF",
"=$	c #8FC3FF",
"-$	c #8BC1FF",
";$	c #88BFFF",
">$	c #83BDFF",
",$	c #7FBAFF",
"'$	c #79B7FF",
")$	c #73B4FF",
"!$	c #6FB1FF",
"~$	c #6EB6FF",
"{$	c #528BF5",
"]$	c #365AE6",
"^$	c #64ABFF",
"/$	c #0E72FF",
"($	c #2183FF",
"_$	c #1E76E5",
":$	c #7CB8FF",
"<$	c #7DB9FF",
"[$	c #7AB7FF",
"}$	c #77B6FF",
"|$	c #6EB0FF",
"1$	c #68ADFF",
"2$	c #65ACFF",
"3$	c #61AAFF",
"4$	c #61AEFF",
"5$	c #4885F5",
"6$	c #2F57E6",
"7$	c #59A6FF",
"8$	c #0D72FF",
"9$	c #177FFF",
"0$	c #1572E5",
"a$	c #6EB2FF",
"b$	c #6FB2FF",
"c$	c #6DB0FF",
"d$	c #6AAFFF",
"e$	c #66ADFF",
"f$	c #5DA8FF",
"g$	c #5AA7FF",
"h$	c #56A4FF",
"i$	c #57AAFF",
"j$	c #4182F5",
"k$	c #2B55E6",
"l$	c #52A3FF",
"m$	c #0C75FF",
"n$	c #0E73FC",
"o$	c #0D67E2",
"p$	c #0048BA",
"q$	c #509FFF",
"r$	c #4E9DFF",
"s$	c #4C9CFF",
"t$	c #4A9AFF",
"u$	c #469AFF",
"v$	c #4498FF",
"w$	c #4096FF",
"x$	c #3D94FF",
"y$	c #3F9BFF",
"z$	c #3177F8",
"A$	c #214EE9",
"B$	c #3D93FF",
"C$	c #0865E9",
"D$	c #005FF6",
"E$	c #0064F8",
"F$	c #004DEF",
"G$	c #0031E2",
"H$	c #0058E3",
"I$	c #002867",
"                    . + @ # $ % & *                             ",
"                = - ; > , ' ) ! ~ { ] ^                         ",
"            ^ / ( _ : < [ _ } | 1 2 3 4 5 6                     ",
"          7 8 9 0 a b c d e e f g h i j k l ^                   ",
"        m n o c p q r s s t u v w x y z A j B C                 ",
"      D E [ F F f G G H I I J K L M N N N O i P Q               ",
"    ^ R S g T T v U L V V W X Y w Z ` ` ` `  .F ..              ",
"    +.@.#.$.%.&.*.X K =.=.-.;.>.,.'.,.,.,.'.).!.~.{.            ",
"  ].^./.(._.:.<.[.;.;.=.;.}.|.1.'.2.2.3.4.Y 5.6.7.8.9.          ",
"  0.a.b.c.d.e.e.;.e.[.f.g.h.i.j.k.,.3.l.m.n.o.p.q.r.s.          ",
". t.u.v.c.w.x.e.e.:.y.z.A.B.C.D.E.F._.G.H.I.J.K.L.M.N.          ",
"O.P.Q.v.c.w.R.S.T.U.V.W.X.Y.Z.`.A.i. +.+++@+@+#+$+%+&+          ",
"*+=+-+v.c.w.R.;+>+,+'+)+!+~+{+]+^+/+(+_+:+<+[+#+$+}+|+1+        ",
"2+3+4+v.c.w.R.5+6+7+8+9+0+  a+b+c+d+e+f+:+<+[+#+$+g+h+i+        ",
"j+k+4+v.c.w.R.5+l+m+n+o+p+q+r+s+t+u+v+f+:+<+[+#+$+}+w+x+        ",
"y+z+A+v.c.w.B+5+C+D+E+F+G+H+I+J+K+L+M+f+:+<+N+O+P+Q+R+S+T+U+V+W+",
"X+Y+S Z+`+w. @.@+@@@h.#@$@%@%@%@%@%@%@%@&@*@=@j -@;@;@;@;@-@j >@",
"  ,@'@)@!@~@{@{@]@^@/@(@_@j j j j j j :@<@[@}@|@1@v.v.v.v.2@-@3@",
"  4@5@6@7@{@8@w M 9@0@$._@a@a@b@b@b@c@-@d@<@e@f@g@h@i@j@h@k@l@m@",
"  n@o@p@q@r@9@s@t@u@v@w@_@x@x@y@z@A@B@C@D@E@F@G@H@I@I@I@J@J@K@L@",
"    M@N@F M v@9@t@u@s@O@_@P@P@Q@R@R@R@R@R@R@S@T@U@V@V@V@V@W@X@Y@",
"      Z@`@O 9@9@t@9@ #+@_@.#+#@#j j j j j j ##$#`+%#&#*#=#-#;#>#",
"      ,#'#i ^@9@t@N :.)#_@!#~#@#C@{#]#^#/#(#_#:#<#[#}#|#1#2#3#4#",
"        5#6#7#8#t@N H.)#_@9#0#@#a#b#c#d#e#f#g#h#y@i#j#k#l#m#o n#",
"          o#p#q#i 0@+@r#_@s#t#@#u#v#e#w#x#y#z#A#B#C#D#E#^#F#j G#",
"              H#I#J#K#L#_@M#N#@#O#P#Q#R#S#T#U#V#W#X#Y#Z#`# $.$W+",
"                +$@$#$$$_@%$&$@#*$=$-$;$>$,$'$)$!$~${$]$^$/$    ",
"                        _@($_$@#:$<$[$}$)$|$1$2$3$4$5$6$7$8$    ",
"                        _@9$0$@#a$b$c$d$e$3$f$g$h$i$j$k$l$m$    ",
"                        _@n$o$p$q$q$r$s$t$u$v$w$x$y$z$A$B$C$    ",
"                          @#@#@#D$D$D$D$D$D$D$D$D$E$F$G$H$I$    ",
"                                                                "};
