/* XPM */
static const char * sagittal_xpm[] = {
"32 32 213 2",
"  	c None",
". 	c #323232",
"+ 	c #5C5C5C",
"@ 	c #666666",
"# 	c #858585",
"$ 	c #939393",
"% 	c #7C7C7C",
"& 	c #676767",
"* 	c #535353",
"= 	c #494949",
"- 	c #7B7B7B",
"; 	c #BDBDBD",
"> 	c #C9C9C9",
", 	c #B1B1B1",
"' 	c #989898",
") 	c #949494",
"! 	c #787878",
"~ 	c #8E8E8E",
"{ 	c #ACACAC",
"] 	c #BEBEBE",
"^ 	c #9A9A9A",
"/ 	c #5F5F5F",
"( 	c #4E4E4E",
"_ 	c #484848",
": 	c #9E9E9E",
"< 	c #ABABAB",
"[ 	c #404040",
"} 	c #333333",
"| 	c #595959",
"1 	c #6C6C6C",
"2 	c #747474",
"3 	c #757575",
"4 	c #3E3E3E",
"5 	c #242424",
"6 	c #363636",
"7 	c #C1C1C1",
"8 	c #C6C6C6",
"9 	c #505050",
"0 	c #474747",
"a 	c #A0A0A0",
"b 	c #707070",
"c 	c #282828",
"d 	c #818181",
"e 	c #5D5D5D",
"f 	c #717171",
"g 	c #828282",
"h 	c #5E5E5E",
"i 	c #636363",
"j 	c #454545",
"k 	c #151515",
"l 	c #919191",
"m 	c #4F4F4F",
"n 	c #343434",
"o 	c #909090",
"p 	c #3C3C3C",
"q 	c #1A1A1A",
"r 	c #525252",
"s 	c #898989",
"t 	c #8B8B8B",
"u 	c #C5C5C5",
"v 	c #CCCCCC",
"w 	c #959595",
"x 	c #5B5B5B",
"y 	c #545454",
"z 	c #424242",
"A 	c #B0B0B0",
"B 	c #A7A7A7",
"C 	c #565656",
"D 	c #626262",
"E 	c #575757",
"F 	c #4C4C4C",
"G 	c #AFAFAF",
"H 	c #878787",
"I 	c #A1A1A1",
"J 	c #C7C7C7",
"K 	c #A3A3A3",
"L 	c #BFBFBF",
"M 	c #4D4D4D",
"N 	c #AAAAAA",
"O 	c #4B4B4B",
"P 	c #3A3A3A",
"Q 	c #4A4A4A",
"R 	c #393939",
"S 	c #6D6D6D",
"T 	c #555555",
"U 	c #737373",
"V 	c #121212",
"W 	c #686868",
"X 	c #797979",
"Y 	c #A8A8A8",
"Z 	c #A2A2A2",
"` 	c #7A7A7A",
" .	c #434343",
"..	c #A6A6A6",
"+.	c #292929",
"@.	c #B7B7B7",
"#.	c #979797",
"$.	c #8D8D8D",
"%.	c #777777",
"&.	c #888888",
"*.	c #353535",
"=.	c #929292",
"-.	c #B3B3B3",
";.	c #B4B4B4",
">.	c #969696",
",.	c #9C9C9C",
"'.	c #3F3F3F",
").	c #3D3D3D",
"!.	c #444444",
"~.	c #656565",
"{.	c #9F9F9F",
"].	c #9B9B9B",
"^.	c #A4A4A4",
"/.	c #767676",
"(.	c #606060",
"_.	c #373737",
":.	c #7D7D7D",
"<.	c #0D0D0D",
"[.	c #585858",
"}.	c #B9B9B9",
"|.	c #A9A9A9",
"1.	c #B5B5B5",
"2.	c #848484",
"3.	c #727272",
"4.	c #383838",
"5.	c #3B3B3B",
"6.	c #6F6F6F",
"7.	c #EBEBEB",
"8.	c #DADADA",
"9.	c #C3C3C3",
"0.	c #DFDFDF",
"a.	c #C2C2C2",
"b.	c #222222",
"c.	c #313131",
"d.	c #515151",
"e.	c #EEEEEE",
"f.	c #6B6B6B",
"g.	c #414141",
"h.	c #CFCFCF",
"i.	c #A5A5A5",
"j.	c #999999",
"k.	c #6E6E6E",
"l.	c #2A2A2A",
"m.	c #7E7E7E",
"n.	c #CDCDCD",
"o.	c #2E2E2E",
"p.	c #8A8A8A",
"q.	c #BABABA",
"r.	c #C8C8C8",
"s.	c #EFEFEF",
"t.	c #303030",
"u.	c #616161",
"v.	c #6A6A6A",
"w.	c #808080",
"x.	c #838383",
"y.	c #ADADAD",
"z.	c #161616",
"A.	c #646464",
"B.	c #D6D6D6",
"C.	c #696969",
"D.	c #868686",
"E.	c #000000",
"F.	c #202020",
"G.	c #464646",
"H.	c #D1D1D1",
"I.	c #D4D4D4",
"J.	c #7F7F7F",
"K.	c #8F8F8F",
"L.	c #191919",
"M.	c #141414",
"N.	c #262626",
"O.	c #CACACA",
"P.	c #D9D9D9",
"Q.	c #5A5A5A",
"R.	c #0F0F0F",
"S.	c #030303",
"T.	c #1B1B1B",
"U.	c #1F1F1F",
"V.	c #B8B8B8",
"W.	c #E8E8E8",
"X.	c #E5E5E5",
"Y.	c #0B0B0B",
"Z.	c #2B2B2B",
"`.	c #010101",
" +	c #0C0C0C",
".+	c #D8D8D8",
"++	c #DBDBDB",
"@+	c #E3E3E3",
"#+	c #E4E4E4",
"$+	c #040404",
"%+	c #050505",
"&+	c #080808",
"*+	c #171717",
"=+	c #232323",
"-+	c #2C2C2C",
";+	c #060606",
">+	c #C4C4C4",
",+	c #272727",
"'+	c #BCBCBC",
")+	c #E2E2E2",
"!+	c #DEDEDE",
"~+	c #070707",
"{+	c #2F2F2F",
"]+	c #DDDDDD",
"^+	c #2D2D2D",
"/+	c #D3D3D3",
"(+	c #D2D2D2",
"_+	c #AEAEAE",
":+	c #B6B6B6",
"<+	c #DCDCDC",
"[+	c #D5D5D5",
"}+	c #BBBBBB",
"|+	c #F1F1F1",
"                                                                ",
"                                                                ",
"                              .                                 ",
"                    + @ # $ % & * =                             ",
"                - ; > , ' ) ! ~ { > ] ^ / (                     ",
"            _ : < [ } | 1 2 3 & 4 5 6 ! 7 8 # 9                 ",
"          0 a b c + ! d e 0 f g | h i j k . l > # m             ",
"        n o p q r s a t u v v > ( w | m x y z . A B C           ",
"        D h k E F i G H I J K L M e N O M P Q E R S B T         ",
"      6 U V W T X Y o o Z Z ` > , E g X + [  .z | 0 C ..M       ",
"      y +.Q D ( ' ' @.L o #.$.%.&.b @ t  .Q z P *.P * C =.      ",
"    n i k b R f ) -.l w { B ;.o < >.,.# = '. .4 p ).!.C ~./     ",
"    D } j y [ S X ' Z {.{ ;.N ].I N &.^./.H (.O O _.R | F :._   ",
"    ~.<.h [.E d ^ >.}.Z |.@.I B Y 1., 2.% ` 3.U O 4.P '.W z -   ",
"  O 5.+.9 t 6.! B % / 3.b 7.7.8.A 9.0.a.) H : + g T _ z _  .2.  ",
"  h b.c.D /.d.2 f 1 '.M 2.e.` # ^.f.g.d h.i.- j.y 6.O Q _.!.k.+ ",
"  1 l.+ J t X a { | R D @ #.m + &.-.m.*.4 ;.n.f.S f ! _ p g.C & ",
"p - o.p.j.r W q.# 4 O 5.).*.!.Z r., Y m 4.# s.N U * r T R t.p b ",
"y U t.=.u u.K >.9 S ! v.6 g.w.+ k.[.x.y.t h.8.^.&.k.!.4.6 z.5.$.",
"3.i . @ A.[.S @ h l #.f U ~ > B.A C.( 3.[./ @.@.a D.% _ o.E.F.t ",
"- / . ).x x G.=.S $ 1.B p.d H.I.u.b  ._.*.J.B g K.: y 6 L.E.M.H ",
"w.2 +.N.*.R A.Z ^.) O.}.W w P.H.f.n 4 v.[ ' - t H 3 Q.5.R.S.T.:.",
"1 }.j N.U.( % a., 8 V.g._.; W.X.7 *.A.j.z.Y.Z.z 0 G.D.w.`. +M - ",
"  .+T Q.T.2.T ,.a.J 8 ~.y ++@+#+] n U.. $+E.%+&+*+=+-+n `.;+K.*.",
"  >+C.M !.,+[ D K '+}.G.p..+)+!+k.c `.E.E.E.~+Z.+.t.F 4 T.<.3.5 ",
"{+7 2.!.]. .b.. 6 : G g.A ]+;.1 n E Y.E.E.E.<.[ l.+.[ _.^+N.* [ ",
"P ; t 5.=./+O ^+N.@ x y I.(+!.. . ` % + N.} D r } t._ Q.y.g D D ",
"g._+:+O v.<+[+x Z.. c.2.h.% . . 6 D.w C.  ).& f.[.r 5.# (+:+0.t ",
"p w }+/ | i.e.++% '.c.&.|.4.Q 6.i s x     =+p D e [.&.$.:+#+|+t ",
"                                                                ",
"                                                                ",
"                                                                "};
