/* XPM */
static const char * selector2_xpm[] = {
"32 32 246 2",
"  	c None",
". 	c #003298",
"+ 	c #002F97",
"@ 	c #002F98",
"# 	c #003198",
"$ 	c #002492",
"% 	c #6E89C4",
"& 	c #91A6D3",
"* 	c #032C95",
"= 	c #002793",
"- 	c #3458AB",
"; 	c #F2F4F9",
"> 	c #F4FEFF",
", 	c #3A67B8",
"' 	c #002791",
") 	c #002D96",
"! 	c #0F379B",
"~ 	c #CBD5E8",
"{ 	c #F6FCFF",
"] 	c #B3DFFF",
"^ 	c #74B5F2",
"/ 	c #0F40A4",
"( 	c #00319B",
"_ 	c #003098",
": 	c #032A94",
"< 	c #9CAFD6",
"[ 	c #FFFFFF",
"} 	c #B8DEFF",
"| 	c #82C2FF",
"1 	c #7BC2FF",
"2 	c #478CE3",
"3 	c #0336A1",
"4 	c #0038A4",
"5 	c #002291",
"6 	c #6781BF",
"7 	c #FEFFFE",
"8 	c #C6E5FF",
"9 	c #89C7FF",
"0 	c #73B9FF",
"a 	c #63AEFF",
"b 	c #54A7FF",
"c 	c #1F67D1",
"d 	c #0037A3",
"e 	c #003FAE",
"f 	c #002693",
"g 	c #3E60AF",
"h 	c #F1F6FA",
"i 	c #D1EBFF",
"j 	c #8EC9FF",
"k 	c #51A2FF",
"l 	c #3F97FF",
"m 	c #2C8BFE",
"n 	c #0853C7",
"o 	c #003DAD",
"p 	c #002B95",
"q 	c #173D9E",
"r 	c #D5DFEF",
"s 	c #DDF3FF",
"t 	c #93CBFF",
"u 	c #75BBFF",
"v 	c #68B4FF",
"w 	c #55A7FF",
"x 	c #2D89FF",
"y 	c #1A80FF",
"z 	c #076FF8",
"A 	c #0048BE",
"B 	c #0043B6",
"C 	c #042C96",
"D 	c #A7BADC",
"E 	c #E4F7FF",
"F 	c #9DCFFF",
"G 	c #78BCFF",
"H 	c #6AB5FF",
"I 	c #4590EA",
"J 	c #3080E7",
"K 	c #2C8CFF",
"L 	c #187DFF",
"M 	c #0772FF",
"N 	c #006FFF",
"O 	c #0163ED",
"P 	c #0048BD",
"Q 	c #004AC0",
"R 	c #002591",
"S 	c #728DC7",
"T 	c #EAFBFF",
"U 	c #A2D2FF",
"V 	c #7ABDFF",
"W 	c #6CB8FF",
"X 	c #4894EE",
"Y 	c #063DA8",
"Z 	c #0037A7",
"` 	c #2478EA",
" .	c #0E79FF",
"..	c #006AFF",
"+.	c #006DFF",
"@.	c #0271FF",
"#.	c #015EE3",
"$.	c #0049C1",
"%.	c #004FCA",
"&.	c #4064B1",
"*.	c #DAEDFA",
"=.	c #ACD8FF",
"-.	c #7CBEFF",
";.	c #6BB5FF",
">.	c #56A6FB",
",.	c #114FB8",
"'.	c #0036A4",
").	c #0038A9",
"!.	c #2E61BE",
"~.	c #6CAAFA",
"{.	c #026BFF",
"].	c #006BFF",
"^.	c #0370FF",
"/.	c #0672FE",
"(.	c #025ADA",
"_.	c #004EC9",
":.	c #002A94",
"<.	c #1C44A1",
"[.	c #C6DCF1",
"}.	c #B8E1FF",
"|.	c #7EBFFF",
"1.	c #6BB4FF",
"2.	c #5CACFF",
"3.	c #1F62C9",
"4.	c #0033A2",
"5.	c #023BAF",
"6.	c #5886D2",
"7.	c #4898FF",
"8.	c #0068FF",
"9.	c #0570FF",
"0.	c #0A76FF",
"a.	c #1077FA",
"b.	c #0357D6",
"c.	c #0052D2",
"d.	c #093198",
"e.	c #9AB6E0",
"f.	c #BFE5FF",
"g.	c #80C0FF",
"h.	c #5EAFFF",
"i.	c #2F79DD",
"j.	c #0035A4",
"k.	c #003DAB",
"l.	c #0042B8",
"m.	c #0743B9",
"n.	c #629AE5",
"o.	c #2C8BFF",
"p.	c #0270FF",
"q.	c #1079FF",
"r.	c #1A81FF",
"s.	c #1A7AF4",
"t.	c #0257D9",
"u.	c #0059DC",
"v.	c #7495CE",
"w.	c #C5E9FF",
"x.	c #83C2FF",
"y.	c #6CB4FF",
"z.	c #5FAFFF",
"A.	c #3B8AEC",
"B.	c #033EAB",
"C.	c #003BAA",
"D.	c #0045BE",
"E.	c #1053C5",
"F.	c #599EF1",
"G.	c #177FFF",
"H.	c #137BFF",
"I.	c #2185FF",
"J.	c #3294FF",
"K.	c #247FF1",
"L.	c #0058DF",
"M.	c #005EE5",
"N.	c #002792",
"O.	c #4269B6",
"P.	c #BEE2FD",
"Q.	c #8BC9FF",
"R.	c #60ADFF",
"S.	c #479BFA",
"T.	c #0C4AB7",
"U.	c #0038A6",
"V.	c #0046C4",
"W.	c #1E66D2",
"X.	c #4C9FFC",
"Y.	c #2086FF",
"Z.	c #2B8DFF",
"`.	c #3D9BFF",
" +	c #4FA9FF",
".+	c #1F79ED",
"++	c #005BE6",
"@+	c #2751AA",
"#+	c #B1D6F8",
"$+	c #93D1FF",
"%+	c #6DB8FF",
"&+	c #62B0FF",
"*+	c #4FA3FF",
"=+	c #195DC9",
"-+	c #0036A5",
";+	c #004CCD",
">+	c #2A78E2",
",+	c #3D9AFE",
"'+	c #3C9AFF",
")+	c #4FA8FF",
"!+	c #5CB2FF",
"~+	c #55ACFE",
"{+	c #1371EF",
"]+	c #0062EF",
"^+	c #002A93",
"/+	c #547FC7",
"(+	c #8DC4F7",
"_+	c #5CA4F2",
":+	c #549EF3",
"<+	c #4697F5",
"[+	c #236DD7",
"}+	c #0053D3",
"|+	c #0050D4",
"1+	c #1D76EB",
"2+	c #439EFC",
"3+	c #4CA3FC",
"4+	c #4BA3FC",
"5+	c #52A8FD",
"6+	c #2E8BF8",
"7+	c #0063F3",
"8+	c #003399",
"9+	c #04379C",
"0+	c #083BA0",
"a+	c #073DA4",
"b+	c #063EA8",
"c+	c #0440AC",
"d+	c #003CA9",
"e+	c #003EAE",
"f+	c #0057DB",
"g+	c #005ADE",
"h+	c #0762E5",
"i+	c #0764E9",
"j+	c #0666EC",
"k+	c #0769F0",
"l+	c #0469F4",
"m+	c #0069F7",
"n+	c #003299",
"o+	c #00329B",
"p+	c #0036A0",
"q+	c #003AA8",
"r+	c #005DE2",
"s+	c #005DE6",
"t+	c #0060EA",
"u+	c #0062EE",
"v+	c #0065F3",
"w+	c #0068F7",
"                                                                ",
"                                                                ",
"                                                                ",
"                                                                ",
"                                                                ",
"                                                                ",
"                              . .                               ",
"                            . + @ #                             ",
"                            $ % & * #                           ",
"                          = - ; > , '                           ",
"                        ) ! ~ { ] ^ / (                         ",
"                      _ : < [ } | 1 2 3 4                       ",
"                      5 6 7 8 9 0 a b c d e                     ",
"                    f g h i j 0 a k l m n o                     ",
"                  p q r s t u v w l x y z A B                   ",
"                + C D E F G H I J K L M N O P Q                 ",
"                R S T U V W X Y Z `  ...+.@.#.$.%.              ",
"              f &.*.=.-.;.>.,.'.).!.~.{.].^./.(._.              ",
"            :.<.[.}.|.1.2.3.4.    5.6.7.8.9.0.a.b.c.            ",
"          + d.e.f.g.1.h.i.j.k.    l.m.n.o.p.q.r.s.t.u.          ",
"        # f v.w.x.y.z.A.B.C.        D.E.F.G.H.I.J.K.L.M.        ",
"        N.O.P.Q.1.R.S.T.U.            V.W.X.Y.Z.`. +.+++        ",
"      ) @+#+$+%+&+*+=+-+                ;+>+,+'+)+!+~+{+]+      ",
"      ^+/+(+_+:+<+[+U.e                 }+|+1+2+3+4+5+6+7+      ",
"      8+9+0+a+b+c+d+e+                    f+g+h+i+j+k+l+m+      ",
"        n+o+p+4 q+e                         r+s+t+u+v+w+        ",
"                                                                ",
"                                                                ",
"                                                                ",
"                                                                ",
"                                                                ",
"                                                                "};
