/* XPM */
static const char *expand_xpm[] = {
"11 11 16 2",
"00 c black",
"01 c #7B9CB5",
"02 c #B5C6D6",
"03 c #C6B5A5",
"04 c #C6BDA5",
"05 c #C6BDAD",
"06 c #D2CEBD",
"07 c #D6D2C6",
"08 c #DED6CE",
"09 c #DEDECE",
"10 c #DEDED6",
"11 c #E7E7DE",
"12 c #EFEFE7",
"13 c #F7F7EF",
"14 c gray97",
"15 c gray100",
"1515151515151515151515",
"1502010101010101010215",
"1501151515151515150115",
"1501151515151515130115",
"1501141414141412110115",
"1501130000000000090115",
"1501131212121110080115",
"1501100807070706060115",
"1501060503030303050115",
"1502010101010101010215",
"1515151515151515151515"
};
