<?xml version="1.0" encoding="utf8" standalone="no"?>
<!DOCTYPE svg PUBLIC "-//W3C//DTD SVG 20010904//EN" "http://www.w3.org/TR/2001/REC-SVG-20010904/DTD/svg10.dtd">
<svg viewBox="0 0 60 60" xmlns="http://www.w3.org/2000/svg">
<defs>
<linearGradient>
<stop offset="0"/>
<stop offset="1" stop-color="#fff"/>
</linearGradient>
</defs>
<path d="m5.43302,8.48668c-.52625,0-.96875.4425-.96875.96875v4.875c-.00115.02498-.03125.03722-.03125.0625v37c0,.8838.70996,1.59375 1.59375,1.59375h37.28125c.88379,0 1.59375-.70996 1.59375-1.59375v-37c0-.88379-.70996-1.59375-1.59375-1.59375h-14.71875v-3.34375c0-.52625-.4425-.96875-.96875-.96875h-22.1875z" fill="#b3b3b3" fill-rule="evenodd" stroke="#333" stroke-linejoin="round" stroke-width="3.125"/>
<path d="m26.62755,23.39802h37.28584a1.5953,1.5953 0 0,1 1.5953,1.5953v30.25977a1.5953,1.5953 0 0,1 -1.5953,1.5953h-37.28584a1.5953,1.5953 0 0,1 -1.5953-1.5953v-30.25977a1.5953,1.5953 0 0,1 1.5953-1.5953" fill="#7f7f7f" fill-rule="evenodd" stroke="#333" stroke-linejoin="round" stroke-width="3.23511" transform="matrix(1.000000,.000000,-.359650,.933087,.000000,.000000)"/>
</svg>
