<?xml version="1.0" encoding="UTF-8" standalone="no"?>
<svg
   fill="none"
   height="24"
   stroke="#000"
   stroke-linecap="round"
   stroke-linejoin="round"
   stroke-width="2"
   viewBox="0 0 24 24"
   width="24"
   version="1.1"
   id="svg8"
   sodipodi:docname="download_fail.svg"
   xml:space="preserve"
   inkscape:version="1.2.2 (b0a8486, 2022-12-01)"
   xmlns:inkscape="http://www.inkscape.org/namespaces/inkscape"
   xmlns:sodipodi="http://sodipodi.sourceforge.net/DTD/sodipodi-0.dtd"
   xmlns="http://www.w3.org/2000/svg"
   xmlns:svg="http://www.w3.org/2000/svg"><defs
     id="defs12" /><sodipodi:namedview
     id="namedview10"
     pagecolor="#ffffff"
     bordercolor="#666666"
     borderopacity="1.0"
     inkscape:showpageshadow="2"
     inkscape:pageopacity="0.0"
     inkscape:pagecheckerboard="0"
     inkscape:deskcolor="#d1d1d1"
     showgrid="false"
     inkscape:zoom="18.229167"
     inkscape:cx="-2.1942857"
     inkscape:cy="17.170286"
     inkscape:window-width="1920"
     inkscape:window-height="1043"
     inkscape:window-x="0"
     inkscape:window-y="0"
     inkscape:window-maximized="1"
     inkscape:current-layer="svg8" /><path
     d="M3 17v3a2 2 0 0 0 2 2h14a2 2 0 0 0 2-2v-3"
     id="path2" /><polyline
     points="8 12 12 16 16 12"
     id="polyline4" /><line
     x1="12"
     x2="12"
     y1="2"
     y2="16"
     id="line6" /><g
     style="fill:#ff0000;fill-opacity:1;stroke:none"
     id="g2120"
     transform="matrix(0.67738629,0,0,0.67738629,2.5425532,2.4482525)"><path
       d="m 2.32129,2.32363 c 0.40453,-0.40453 1.06039,-0.40453 1.46492,0 L 25.6966,24.234 c 0.4045,0.4045 0.4045,1.0604 0,1.4649 -0.4045,0.4046 -1.0604,0.4046 -1.4649,0 L 2.32129,3.78854 c -0.40453,-0.40452 -0.40453,-1.06039 0,-1.46491 z"
       fill="#000000"
       id="path2108"
       style="fill:#ff0000;fill-opacity:1;stroke:none" /><path
       d="m 25.6787,2.30339 c -0.4045,-0.40452 -1.0604,-0.40452 -1.4649,0 L 2.30339,24.2138 c -0.40452,0.4045 -0.40452,1.0604 0,1.4649 0.40453,0.4045 1.0604,0.4045 1.46492,0 L 25.6787,3.76831 c 0.4045,-0.40452 0.4045,-1.06039 0,-1.46492 z"
       fill="#000000"
       id="path2110"
       style="fill:#ff0000;fill-opacity:1;stroke:none" /></g></svg>
