<?xml version="1.0" encoding="UTF-8" standalone="no"?>
<svg
   xmlns:dc="http://purl.org/dc/elements/1.1/"
   xmlns:cc="http://creativecommons.org/ns#"
   xmlns:rdf="http://www.w3.org/1999/02/22-rdf-syntax-ns#"
   xmlns:svg="http://www.w3.org/2000/svg"
   xmlns="http://www.w3.org/2000/svg"
   xmlns:sodipodi="http://sodipodi.sourceforge.net/DTD/sodipodi-0.dtd"
   xmlns:inkscape="http://www.inkscape.org/namespaces/inkscape"
   id="Outlined"
   viewBox="0 0 32 32"
   version="1.1"
   sodipodi:docname="edit_white.svg"
   inkscape:version="1.0.1 (1.0.1+r73)">
  <metadata
     id="metadata12">
    <rdf:RDF>
      <cc:Work
         rdf:about="">
        <dc:format>image/svg+xml</dc:format>
        <dc:type
           rdf:resource="http://purl.org/dc/dcmitype/StillImage" />
      </cc:Work>
    </rdf:RDF>
  </metadata>
  <defs
     id="defs10" />
  <sodipodi:namedview
     pagecolor="#ffffff"
     bordercolor="#666666"
     borderopacity="1"
     objecttolerance="10"
     gridtolerance="10"
     guidetolerance="10"
     inkscape:pageopacity="0"
     inkscape:pageshadow="2"
     inkscape:window-width="1920"
     inkscape:window-height="1043"
     id="namedview8"
     showgrid="false"
     inkscape:zoom="26.9375"
     inkscape:cx="16"
     inkscape:cy="16"
     inkscape:window-x="0"
     inkscape:window-y="0"
     inkscape:window-maximized="1"
     inkscape:current-layer="Outlined" />
  <title
     id="title2" />
  <g
     id="Fill"
     style="fill:#ffffff;fill-opacity:1">
    <path
       d="M 29.12,6.05 26,2.88 a 3,3 0 0 0 -4.24,0 L 6.29,18.29 A 3.06,3.06 0 0 0 5.57,19.47 L 2.08,29.92 12.54,26.43 a 3.15,3.15 0 0 0 1.17,-0.72 L 29.12,10.29 a 3,3 0 0 0 0,-4.24 z m -21,13.28 8.75,-8.74 1.58,1.58 -8.78,8.75 z m 10.12,-10.16 1.59,-1.58 4.58,4.58 -1.58,1.59 z M 7.1,21.19 10.82,24.9 5.25,26.75 Z m 5.57,2.73 -1.59,-1.59 8.75,-8.74 1.58,1.58 z m 15,-15 -1.88,1.88 -4.55,-4.63 1.88,-1.88 A 1,1 0 0 1 23.83,4 1,1 0 0 1 24.54,4.29 l 3.17,3.18 A 1,1 0 0 1 28,8.17 1,1 0 0 1 27.71,8.88 Z"
       id="path4"
       style="fill:#ffffff;fill-opacity:1" />
  </g>
</svg>
