<?xml version="1.0" encoding="UTF-8" standalone="no"?>
<svg
   inkscape:version="1.2.2 (b0a8486, 2022-12-01)"
   xml:space="preserve"
   sodipodi:docname="export_fail (copie).svg"
   id="svg8"
   version="1.1"
   width="24"
   viewBox="0 0 24 24"
   stroke-width="2"
   stroke-linejoin="round"
   stroke-linecap="round"
   stroke="#000"
   height="24"
   fill="none"
   xmlns:inkscape="http://www.inkscape.org/namespaces/inkscape"
   xmlns:sodipodi="http://sodipodi.sourceforge.net/DTD/sodipodi-0.dtd"
   xmlns="http://www.w3.org/2000/svg"
   xmlns:svg="http://www.w3.org/2000/svg"><defs
     id="defs12"><filter
       style="color-interpolation-filters:sRGB;"
       inkscape:label="Colorize"
       id="filter315"
       x="-0.055485279"
       y="-0.049955431"
       width="1.1110953"
       height="1.1000121"><feComposite
         in2="SourceGraphic"
         operator="arithmetic"
         k1="0"
         k2="1"
         result="composite1"
         id="feComposite301" /><feColorMatrix
         in="composite1"
         values="1"
         type="saturate"
         result="colormatrix1"
         id="feColorMatrix303" /><feFlood
         flood-opacity="0"
         flood-color="rgb(255,255,255)"
         result="flood1"
         id="feFlood305" /><feBlend
         in="flood1"
         in2="colormatrix1"
         mode="multiply"
         result="blend1"
         id="feBlend307" /><feBlend
         in2="blend1"
         mode="screen"
         result="blend2"
         id="feBlend309" /><feColorMatrix
         in="blend2"
         values="1"
         type="saturate"
         result="colormatrix2"
         id="feColorMatrix311" /><feComposite
         in="colormatrix2"
         in2="SourceGraphic"
         operator="in"
         k2="1"
         result="composite2"
         id="feComposite313" /></filter></defs><sodipodi:namedview
     id="namedview10"
     pagecolor="#ffffff"
     bordercolor="#666666"
     borderopacity="1.0"
     inkscape:showpageshadow="2"
     inkscape:pageopacity="0.0"
     inkscape:pagecheckerboard="0"
     inkscape:deskcolor="#d1d1d1"
     showgrid="false"
     inkscape:zoom="16"
     inkscape:cx="-6.5625"
     inkscape:cy="11.875"
     inkscape:window-width="1920"
     inkscape:window-height="1043"
     inkscape:window-x="0"
     inkscape:window-y="0"
     inkscape:window-maximized="1"
     inkscape:current-layer="svg8" /><g
     id="g299"
     style="filter:url(#filter315);stroke-opacity:1.0;stroke:#ffffff"><path
       d="m 3,17 c 0,1 0,2 0,3 -0.046583,1.607815 1.5886937,2.124952 2.8919642,2 C 10.261309,22 14.630655,22 19,22 c 1.607815,0.04658 2.124952,-1.588694 2,-2.891964 C 21,18.405357 21,17.702679 21,17"
       id="path2"
       style="display:inline;stroke-opacity:1.0;stroke:#ffffff" /><polyline
       points="16 6 12 2 8 6"
       id="polyline4"
       style="display:inline;stroke-opacity:1.0;stroke:#ffffff" /><line
       x1="12"
       x2="12"
       y1="2"
       y2="16"
       id="line6"
       style="display:inline;stroke-opacity:1.0;stroke:#ffffff" /></g><g
     inkscape:groupmode="layer"
     id="layer1"
     inkscape:label="cross"
     style="fill:#ff0000;stroke:none;stroke-opacity:1"><g
       style="fill:#ff0000;stroke:none;stroke-opacity:1"
       id="g519"
       transform="matrix(0.6738423,0,0,0.6738423,2.5798232,2.4074639)"><path
         d="m 2.32129,2.32363 c 0.40453,-0.40453 1.06039,-0.40453 1.46492,0 L 25.6966,24.234 c 0.4045,0.4045 0.4045,1.0604 0,1.4649 -0.4045,0.4046 -1.0604,0.4046 -1.4649,0 L 2.32129,3.78854 c -0.40453,-0.40452 -0.40453,-1.06039 0,-1.46491 z"
         fill="#000000"
         id="path507"
         style="fill:#ff0000;stroke:none;stroke-opacity:1" /><path
         d="m 25.6787,2.30339 c -0.4045,-0.40452 -1.0604,-0.40452 -1.4649,0 L 2.30339,24.2138 c -0.40452,0.4045 -0.40452,1.0604 0,1.4649 0.40453,0.4045 1.0604,0.4045 1.46492,0 L 25.6787,3.76831 c 0.4045,-0.40452 0.4045,-1.06039 0,-1.46492 z"
         fill="#000000"
         id="path509"
         style="fill:#ff0000;stroke:none;stroke-opacity:1" /></g></g><style
     type="text/css"
     id="style2">
	.st0{fill:#E44061;}
</style><style
     type="text/css"
     id="style419">
	.st0{opacity:0.2;fill:none;stroke:#000000;stroke-width:5.000000e-02;stroke-miterlimit:10;}
</style><style
     type="text/css"
     id="style489">
	.st0{opacity:0.2;fill:none;stroke:#000000;stroke-width:5.000000e-02;stroke-miterlimit:10;}
</style></svg>
