<?xml version="1.0" encoding="UTF-8" standalone="no"?>
<svg
   height="16px"
   version="1.1"
   viewBox="0 0 22 16"
   width="22px"
   id="svg12"
   sodipodi:docname="eye_open.svg"
   inkscape:version="1.2.2 (b0a8486, 2022-12-01)"
   xmlns:inkscape="http://www.inkscape.org/namespaces/inkscape"
   xmlns:sodipodi="http://sodipodi.sourceforge.net/DTD/sodipodi-0.dtd"
   xmlns="http://www.w3.org/2000/svg"
   xmlns:svg="http://www.w3.org/2000/svg">
  <sodipodi:namedview
     id="namedview14"
     pagecolor="#ffffff"
     bordercolor="#666666"
     borderopacity="1.0"
     inkscape:showpageshadow="2"
     inkscape:pageopacity="0.0"
     inkscape:pagecheckerboard="0"
     inkscape:deskcolor="#d1d1d1"
     showgrid="false"
     inkscape:zoom="54.6875"
     inkscape:cx="11.017143"
     inkscape:cy="8.0091429"
     inkscape:window-width="1920"
     inkscape:window-height="1043"
     inkscape:window-x="1920"
     inkscape:window-y="0"
     inkscape:window-maximized="1"
     inkscape:current-layer="svg12" />
  <title
     id="title2" />
  <desc
     id="desc4" />
  <defs
     id="defs6" />
  <g
     fill="none"
     fill-rule="evenodd"
     id="Page-1"
     stroke="none"
     stroke-width="1"
     style="fill:#ffffff">
    <g
       fill="#000000"
       id="Core"
       transform="translate(-253.000000, -508.000000)"
       style="fill:#ffffff">
      <g
         id="visibility"
         transform="translate(253.000000, 508.500000)"
         style="fill:#ffffff">
        <path
           d="M11,-0.5 C6,-0.5 1.7,2.6 0,7 C1.7,11.4 6,14.5 11,14.5 C16,14.5 20.3,11.4 22,7 C20.3,2.6 16,-0.5 11,-0.5 L11,-0.5 Z M11,12 C8.2,12 6,9.8 6,7 C6,4.2 8.2,2 11,2 C13.8,2 16,4.2 16,7 C16,9.8 13.8,12 11,12 L11,12 Z M11,4 C9.3,4 8,5.3 8,7 C8,8.7 9.3,10 11,10 C12.7,10 14,8.7 14,7 C14,5.3 12.7,4 11,4 L11,4 Z"
           id="Shape"
           style="fill:#ffffff" />
      </g>
    </g>
  </g>
</svg>
