/* XPM */
static const char *add_xpm[] = {
/* columns rows colors chars-per-pixel */
"32 32 97 2",
"   c #003C14",
".  c #004C04",
"X  c #00460D",
"o  c #004809",
"O  c #005401",
"+  c #005C01",
"@  c #02540D",
"#  c #025A0A",
"$  c #004315",
"%  c #014E12",
"&  c #02431D",
"*  c #044D1B",
"=  c #025112",
"-  c #08501A",
";  c #05630C",
":  c #007500",
">  c #047B04",
",  c #0A7E0A",
"<  c #076310",
"1  c #127F12",
"2  c #064E22",
"3  c #0F4C27",
"4  c #075022",
"5  c #0D5624",
"6  c #0F5826",
"7  c #115723",
"8  c #145B2A",
"9  c #048104",
"0  c #068D06",
"q  c #0C830C",
"w  c #0D8A0D",
"e  c #0C920C",
"r  c #0C9A0C",
"t  c #158015",
"y  c #128C12",
"u  c #159215",
"i  c #169C16",
"p  c #189718",
"a  c #1A9D1A",
"s  c #17A017",
"d  c #408942",
"f  c #518D58",
"g  c #4F9251",
"h  c #529058",
"j  c #58985B",
"k  c #629968",
"l  c #6C9F73",
"z  c #719C7C",
"x  c #68BA68",
"c  c #72A874",
"v  c #78C278",
"b  c #779C87",
"n  c #7C9F8A",
"m  c #8DBA8F",
"M  c #86AB91",
"N  c #89A997",
"B  c #8EB097",
"V  c #8EBB90",
"C  c #90BC92",
"Z  c #97B3A2",
"A  c #98B8A1",
"S  c #87C287",
"D  c #95CE95",
"F  c #97D097",
"G  c #9CD29C",
"H  c #A3C3A7",
"J  c #A3CFA3",
"K  c #A6C5AA",
"L  c #A5D0A5",
"P  c #ABD4AB",
"I  c #AADAAA",
"U  c #AAC7B1",
"Y  c #ABC9B1",
"T  c #B4D0B6",
"R  c #BDD3BE",
"E  c #BFE1BF",
"W  c #BCCFC3",
"Q  c #BED3C3",
"!  c #BFD8C1",
"~  c #C0D5C6",
"^  c #C2DFC2",
"/  c #C1D3CA",
"(  c #C4E3C4",
")  c #C5E8C5",
"_  c #CDE6CD",
"`  c #D7EBD7",
"'  c #D7E3DB",
"]  c #DBECDB",
"[  c #DDE7E1",
"{  c #DEE9E1",
"}  c #E4F3E4",
"|  c #EBF3EB",
" . c #EFF3F0",
".. c #F1F6F2",
"X. c #F4FAF4",
"o. c #FFFFFF",
"O. c None",
/* pixels */
"O.O.O.O.O.O.O.O.O.O.O.O.O.O.O.O.O.O.O.O.O.O.O.O.O.O.O.O.O.O.O.O.",
"O.O.O.O.O.O.O.O.O.O.O.O.O.O.O.O.O.O.O.O.O.O.O.O.O.O.O.O.O.O.O.O.",
"O.O.O.O.O.O.O.O.O.O.O.O . O . . o o o o X O.O.O.O.O.O.O.O.O.O.O.",
"O.O.O.O.O.O.O.O.O.O.# f K Y Y U Y U U Y z - O.O.O.O.O.O.O.O.O.O.",
"O.O.O.O.O.O.O.O.O.O h o.o.o.o.o.o.o.o.o.o.M X O.O.O.O.O.O.O.O.O.",
"O.O.O.O.O.O.O.O.O.O H o.X.] ] ] ] ] ` ..o.| 5 O.O.O.O.O.O.O.O.O.",
"O.O.O.O.O.O.O.O.O.O K o.` y w y u p 0 F o...7 O.O.O.O.O.O.O.O.O.",
"O.O.O.O.O.O.O.O.O.O K o._ q w y y y 0 F o...6 O.O.O.O.O.O.O.O.O.",
"O.O.O.O.O.O.O.O.O.O K o._ y q y y u 0 F o...6 O.O.O.O.O.O.O.O.O.",
"O.O.O.O.+ + + + + O H o._ y q y u u 0 F o...- $ * $ $   O.O.O.O.",
"O.O.O.+ j T ~ Q Q R | o._ y q y y u 0 D o.o./ Q Q W W n 2 O.O.O.",
"O.O.; d o.o.o.o.o.o.o.o.` y w y y u 0 G o.o.o.o.o.o.o.o.b   O.O.",
"O.O.+ V o.o.( ^ ^ ^ ( ( J y q y y u 0 v ) ) _ ) ) ) ..o./   O.O.",
"O.O.+ m o.| 1 > > , , q q y y y u u u u u p i i a i ) o./ & O.O.",
"O.O.+ m o...1 > , , , q q y y y y u u u u p i a s s ) o./ & O.O.",
"O.O.+ m o...t > , q q q q y y y u u u p p a a a a s ( o.W 2 O.O.",
"O.O.+ m o.X.1 > , , q q q y y y y y u p a p a a a s ) o./   O.O.",
"O.O.+ m o.X.1 > , q q q w w y y u u u p u a a a a s ) o.Q 2 O.O.",
"O.O.+ V o..., : : : > > 9 y y y y u u u e e e r i r E o.W & O.O.",
"O.O.+ C o.X.L J L L L P m y y y u u 0 x I I I I I I } o./ 2 O.O.",
"O.O.+ g o.o.o.o.o.o.o.o.` y q y y u 0 G o.o.o.o.o.o.o.o.N   O.O.",
"O.O.O.; c ^ [ ] ] ] ..o._ y q y y u 0 F o.o.{ [ [ { ' Z 3 O.O.O.",
"O.O.O.O.+ ; < < < # K o._ y w y u u 0 F o...8 * 4 2 2   O.O.O.O.",
"O.O.O.O.O.O.O.O.O.O K o._ y q u y u 0 D o...5 O.O.O.O.O.O.O.O.O.",
"O.O.O.O.O.O.O.O.O.O K o._ y w y y u 0 F o...6 O.O.O.O.O.O.O.O.O.",
"O.O.O.O.O.O.O.O.O.O K o._ q 9 w w w 0 D o...6 O.O.O.O.O.O.O.O.O.",
"O.O.O.O.O.O.O.O.O.O K o.X.( R ( ( ( E } o. .5 O.O.O.O.O.O.O.O.O.",
"O.O.O.O.O.O.O.O.O.O k o.o.o.o.o.o.o.o.o.o.A $ O.O.O.O.O.O.O.O.O.",
"O.O.O.O.O.O.O.O.O.O.# l ! ~ ~ ~ Q ~ ~ ~ B 7 O.O.O.O.O.O.O.O.O.O.",
"O.O.O.O.O.O.O.O.O.O.O.O # @ @ = @ = = % X O.O.O.O.O.O.O.O.O.O.O.",
"O.O.O.O.O.O.O.O.O.O.O.O.O.O.O.O.O.O.O.O.O.O.O.O.O.O.O.O.O.O.O.O.",
"O.O.O.O.O.O.O.O.O.O.O.O.O.O.O.O.O.O.O.O.O.O.O.O.O.O.O.O.O.O.O.O."
};
