/* XPM */
static const char * cd[] = {
"32 32 409 2",
"  	c None",
". 	c #2E2DA3",
"+ 	c #3333A6",
"@ 	c #3C3DAB",
"# 	c #4243AE",
"$ 	c #4042AE",
"% 	c #3839AA",
"& 	c #3030A5",
"* 	c #2F2EA3",
"= 	c #3636A8",
"- 	c #5E60BC",
"; 	c #9195D4",
"> 	c #B7BCE7",
", 	c #CBD2F1",
"' 	c #D3D9F5",
") 	c #D1D8F4",
"! 	c #C1C6EF",
"~ 	c #A5A9E2",
"{ 	c #7D7FCD",
"] 	c #5050B4",
"^ 	c #3131A5",
"/ 	c #6C6EC1",
"( 	c #C6CAEB",
"_ 	c #F5F9FF",
": 	c #FDFFFF",
"< 	c #FAFEFF",
"[ 	c #F8FCFF",
"} 	c #F6FAFF",
"| 	c #F3F7FF",
"1 	c #F3F6FF",
"2 	c #F8FBFF",
"3 	c #F2F3FB",
"4 	c #B1B2DF",
"5 	c #5353B5",
"6 	c #2F2EA4",
"7 	c #3D3EAC",
"8 	c #A9ADDE",
"9 	c #FAFDFF",
"0 	c #FCFFFF",
"a 	c #F4F7FF",
"b 	c #F2F5FF",
"c 	c #F1F5FF",
"d 	c #F0F5FF",
"e 	c #F0F4FF",
"f 	c #EBEEFF",
"g 	c #E9ECFF",
"h 	c #F2F4FF",
"i 	c #FCFDFF",
"j 	c #FFFFFF",
"k 	c #F0F1FA",
"l 	c #8485CB",
"m 	c #4344AE",
"n 	c #C4C8EC",
"o 	c #FEFFFF",
"p 	c #EFF2FF",
"q 	c #EEF2FF",
"r 	c #EEF1FF",
"s 	c #EDF1FF",
"t 	c #ECF1FF",
"u 	c #EBF0FF",
"v 	c #E7EAFF",
"w 	c #E7E9FF",
"x 	c #F3F4FF",
"y 	c #F5F6FF",
"z 	c #F4F5FF",
"A 	c #F9FAFF",
"B 	c #9C9DD9",
"C 	c #3232A4",
"D 	c #3C3CAA",
"E 	c #BCC2EB",
"F 	c #ECEFFF",
"G 	c #EAEEFF",
"H 	c #E9EDFF",
"I 	c #E8EDFF",
"J 	c #E7EBFF",
"K 	c #E2E5FF",
"L 	c #E6E9FF",
"M 	c #F1F2FF",
"N 	c #F0F1FF",
"O 	c #F2F3FF",
"P 	c #9395DA",
"Q 	c #272685",
"R 	c #9DA2DC",
"S 	c #F0F7FF",
"T 	c #E8EBFF",
"U 	c #E6EAFF",
"V 	c #E5E9FF",
"W 	c #E4E9FF",
"X 	c #E2E6FF",
"Y 	c #DEE0FF",
"Z 	c #EDEEFF",
"` 	c #ECEDFF",
" .	c #EFF0FF",
"..	c #6669CC",
"+.	c #6466BE",
"@.	c #E7F0FF",
"#.	c #E4EAFF",
"$.	c #E5E7FF",
"%.	c #E4E7FF",
"&.	c #E3E7FF",
"*.	c #E3E6FF",
"=.	c #E1E5FF",
"-.	c #E1E6FF",
";.	c #DEE2FF",
">.	c #DBDEFF",
",.	c #E8E9FF",
"'.	c #E9EAFF",
").	c #E6E7FF",
"!.	c #C7D1FF",
"~.	c #9EA9F7",
"{.	c #393AA2",
"].	c #3534A6",
"^.	c #B8BCE8",
"/.	c #EBF4FF",
"(.	c #E0E8FF",
"_.	c #E1E4FF",
":.	c #E0E4FF",
"<.	c #E0E3FF",
"[.	c #DFE3FF",
"}.	c #D7DCFF",
"|.	c #D5D8FF",
"1.	c #DFE1FF",
"2.	c #E5E5FF",
"3.	c #E5E6FF",
"4.	c #E4E5FF",
"5.	c #D1D5FF",
"6.	c #B1BDFF",
"7.	c #B6C3FF",
"8.	c #6D72D7",
"9.	c #15144C",
"0.	c #5859B7",
"a.	c #E6EDFE",
"b.	c #E3ECFF",
"c.	c #DFE9FF",
"d.	c #DEE6FF",
"e.	c #DFE2FF",
"f.	c #C4C4FF",
"g.	c #A7A2FF",
"h.	c #9C96FF",
"i.	c #9D97FF",
"j.	c #AFACFF",
"k.	c #D6D5FF",
"l.	c #E1E2FF",
"m.	c #D8DBFF",
"n.	c #D3D6FF",
"o.	c #BCC5FF",
"p.	c #B1C0FF",
"q.	c #B9CDFF",
"r.	c #9DAEF4",
"s.	c #2D2D88",
"t.	c #898BCE",
"u.	c #EFF8FF",
"v.	c #E2EAFF",
"w.	c #DDE7FF",
"x.	c #DDE5FF",
"y.	c #B7B5FF",
"z.	c #938CFF",
"A.	c #A19BFC",
"B.	c #B7B3F7",
"C.	c #B2AEF8",
"D.	c #9993FE",
"E.	c #9992FF",
"F.	c #CECDFF",
"G.	c #D6D8FF",
"H.	c #D1D6FF",
"I.	c #C1CEFF",
"J.	c #B7CBFF",
"K.	c #BACFFF",
"L.	c #B9D0FF",
"M.	c #B5CBFF",
"N.	c #4B4FB3",
"O.	c #3130A4",
"P.	c #AEB1E1",
"Q.	c #EDF5FF",
"R.	c #DBE6FF",
"S.	c #DAE4FF",
"T.	c #DFE6FF",
"U.	c #C6C7FF",
"V.	c #948CFF",
"W.	c #B3AFF7",
"X.	c #EAEAEA",
"Y.	c #E3E4E4",
"Z.	c #E9EAE5",
"`.	c #DEDDEC",
" +	c #CDD2FF",
".+	c #CCD8FF",
"++	c #C1D3FF",
"@+	c #BCD1FF",
"#+	c #B9CFFF",
"$+	c #B7CDFF",
"%+	c #BCD4FF",
"&+	c #656DCC",
"*+	c #3838A8",
"=+	c #C3C7EB",
"-+	c #EAF2FF",
";+	c #DAE5FF",
">+	c #D8E5FF",
",+	c #A7A5FF",
"'+	c #9F99FD",
")+	c #E9E9EA",
"!+	c #AAABD0",
"~+	c #4343A8",
"{+	c #5656AE",
"]+	c #D3D3DC",
"^+	c #D4D2F0",
"/+	c #968EFF",
"(+	c #B1B8FF",
"_+	c #C3D8FF",
":+	c #BFD3FF",
"<+	c #BDD1FF",
"[+	c #BBD0FF",
"}+	c #BDD5FF",
"|+	c #7681DA",
"1+	c #14124C",
"2+	c #3E3EAA",
"3+	c #CCD0F0",
"4+	c #E9F1FF",
"5+	c #DAE6FF",
"6+	c #D4DFFF",
"7+	c #9E99FF",
"8+	c #B2AEF9",
"9+	c #E6E7E5",
"0+	c #4949AC",
"a+	c #131362",
"b+	c #8283C9",
"c+	c #EBEAEC",
"d+	c #9D96FE",
"e+	c #A9ABFF",
"f+	c #C4D8FF",
"g+	c #BDD4FF",
"h+	c #7D8ADF",
"i+	c #181758",
"j+	c #3C3CA9",
"k+	c #CBCFEE",
"l+	c #D6E2FF",
"m+	c #A09CFF",
"n+	c #ACA8FA",
"o+	c #ECECE7",
"p+	c #6363B6",
"q+	c #11115F",
"r+	c #252597",
"s+	c #9C9CCC",
"t+	c #E6E5ED",
"u+	c #9A93FF",
"v+	c #ABAFFF",
"w+	c #7C88DE",
"x+	c #171655",
"y+	c #3535A6",
"z+	c #BFC2E8",
"A+	c #EBF3FF",
"B+	c #DCE7FF",
"C+	c #D7E3FF",
"D+	c #ABABFF",
"E+	c #9790FF",
"F+	c #D8D6EE",
"G+	c #DBDBDE",
"H+	c #8B8BCC",
"I+	c #9E9ECC",
"J+	c #EBECE4",
"K+	c #BFBCF4",
"L+	c #958DFF",
"M+	c #B6C0FF",
"N+	c #717BD6",
"O+	c #121045",
"P+	c #2E2EA3",
"Q+	c #A5A6DA",
"R+	c #E2EBFF",
"S+	c #E1EBFF",
"T+	c #D6DFFF",
"U+	c #CCD3FF",
"V+	c #C5CCFF",
"W+	c #C5CAFF",
"X+	c #9D97FD",
"Y+	c #CFCCF1",
"Z+	c #E9E8ED",
"`+	c #E5E4EE",
" @	c #BEBBF5",
".@	c #A5A4FF",
"+@	c #C4D6FF",
"@@	c #C2D5FF",
"#@	c #B8CDFF",
"$@	c #BAD1FF",
"%@	c #5C62C4",
"&@	c #7979C5",
"*@	c #F3FAFF",
"=@	c #DEE7FF",
"-@	c #D6DDFF",
";@	c #CCD2FF",
">@	c #C6CBFF",
",@	c #DADEFF",
"'@	c #F1F3FF",
")@	c #D7D7FF",
"!@	c #A09AFF",
"~@	c #9B94FE",
"{@	c #9991FF",
"]@	c #C2D2FF",
"^@	c #C5D7FF",
"/@	c #C1D4FF",
"(@	c #BAD0FF",
"_@	c #AEC3FC",
":@	c #3F41A4",
"<@	c #4747AE",
"[@	c #D2D4F8",
"}@	c #D0D5FF",
"|@	c #C9CEFF",
"1@	c #CFD5FF",
"2@	c #EEF0FF",
"3@	c #F1F4FF",
"4@	c #B5B6FF",
"5@	c #ADAFFF",
"6@	c #B0B3FF",
"7@	c #BBC4FF",
"8@	c #C8D9FF",
"9@	c #C7D9FF",
"0@	c #C3D5FF",
"a@	c #BFD6FF",
"b@	c #8E9CEB",
"c@	c #222170",
"d@	c #3031A5",
"e@	c #908FD7",
"f@	c #D9DCFF",
"g@	c #C9CFFF",
"h@	c #DCDFFF",
"i@	c #F0F2FF",
"j@	c #EEEFFF",
"k@	c #EDEFFF",
"l@	c #EFF1FF",
"m@	c #E4E8FF",
"n@	c #C4CDFF",
"o@	c #CFDFFF",
"p@	c #CBDDFF",
"q@	c #BBD1FF",
"r@	c #595EC5",
"s@	c #4646B0",
"t@	c #CFCFF8",
"u@	c #D3D9FF",
"v@	c #C0CAFF",
"w@	c #CEDDFF",
"x@	c #CCDBFF",
"y@	c #C9D9FF",
"z@	c #C7D8FF",
"A@	c #C2D8FF",
"B@	c #8E9CEA",
"C@	c #27267F",
"D@	c #7878CD",
"E@	c #FBFCFF",
"F@	c #ECEEFF",
"G@	c #C4CFFF",
"H@	c #CBDBFF",
"I@	c #C1D7FF",
"J@	c #AEC1F8",
"K@	c #4445B0",
"L@	c #202078",
"M@	c #9493DC",
"N@	c #BEC6FF",
"O@	c #C7D3FF",
"P@	c #BACCFB",
"Q@	c #5A5CC4",
"R@	c #131245",
"S@	c #242482",
"T@	c #8E8EDA",
"U@	c #F6F6FF",
"V@	c #F7F9FF",
"W@	c #CAD6FF",
"X@	c #C8DDFF",
"Y@	c #B8C8F7",
"Z@	c #5C5EC5",
"`@	c #161654",
" #	c #1C1C6E",
".#	c #6B6AC8",
"+#	c #D5D5F3",
"@#	c #BFC7FF",
"##	c #CBD8FF",
"$#	c #C6D8FF",
"%#	c #C6D9FF",
"&#	c #CBDEFF",
"*#	c #CCDDFF",
"=#	c #A0A9E9",
"-#	c #4A4AB2",
";#	c #131248",
">#	c #37379C",
",#	c #8786D5",
"'#	c #C4C4F1",
")#	c #CCD0FF",
"!#	c #D0D7FF",
"~#	c #DCE9FF",
"{#	c #DAE9FF",
"]#	c #D7E7FF",
"^#	c #D6E6FF",
"/#	c #D5E4FF",
"(#	c #CAD7FB",
"_#	c #A8AFEA",
":#	c #6768C6",
"<#	c #282781",
"[#	c #101049",
"}#	c #2B2B87",
"|#	c #5352B2",
"1#	c #7675CC",
"2#	c #9597DA",
"3#	c #A0A3E0",
"4#	c #9C9FDF",
"5#	c #8B8DD6",
"6#	c #7070C5",
"7#	c #4948A6",
"8#	c #232274",
"9#	c #11114E",
"0#	c #161559",
"a#	c #151557",
"b#	c #100F47",
"                                                                ",
"                                                                ",
"                        . + @ # $ % & *                         ",
"                    = - ; > , ' ) ! ~ { ] ^                     ",
"                ^ / ( _ : < [ _ } | 1 2 3 4 5 6                 ",
"              7 8 9 0 a b c d e e f g h i j k l ^               ",
"            m n o c p q r s s t u v w x y z A j B C             ",
"          D E [ F F f G G H I I J K L M N N N O i P Q           ",
"        ^ R S g T T v U L V V W X Y w Z ` ` ` `  .F ..          ",
"        +.@.#.$.%.&.*.X K =.=.-.;.>.,.'.,.,.,.'.).!.~.{.        ",
"      ].^./.(._.:.<.[.;.;.=.;.}.|.1.'.2.2.3.4.Y 5.6.7.8.9.      ",
"      0.a.b.c.d.e.e.;.e.[.f.g.h.i.j.k.,.3.l.m.n.o.p.q.r.s.      ",
"    . t.u.v.c.w.x.e.e.:.y.z.A.B.C.D.E.F._.G.H.I.J.K.L.M.N.      ",
"    O.P.Q.v.c.w.R.S.T.U.V.W.X.Y.Z.`.A.i. +.+++@+@+#+$+%+&+      ",
"    *+=+-+v.c.w.R.;+>+,+'+)+!+~+{+]+^+/+(+_+:+<+[+#+$+}+|+1+    ",
"    2+3+4+v.c.w.R.5+6+7+8+9+0+  a+b+c+d+e+f+:+<+[+#+$+g+h+i+    ",
"    j+k+4+v.c.w.R.5+l+m+n+o+p+q+r+s+t+u+v+f+:+<+[+#+$+}+w+x+    ",
"    y+z+A+v.c.w.B+5+C+D+E+F+G+H+I+J+K+L+M+f+:+<+[+#+$+}+N+O+    ",
"    P+Q+S R+S+w.T+U+V+W+h.X+Y+Z+`+ @/+.@+@@@:+<+[+#+#@$@%@      ",
"      &@*@=@-@;@>@>@,@'@)@!@L+~@{@L+.@]@^@/@:+<+[+#+(@_@:@      ",
"      <@[@}@|@>@1@w M 2@3@$.4@5@6@7@8@9@0@/@:+<+[+#+a@b@c@      ",
"      d@e@f@g@h@2@i@j@k@l@m@n@o@o@p@8@^@0@/@:+<+[+(@q@r@        ",
"        s@t@F M l@2@j@k@i@u@v@w@x@y@z@^@0@/@:+<+[+A@B@C@        ",
"          D@E@O 2@2@j@2@F@V+G@w@H@y@z@^@0@/@:+<+I@J@K@          ",
"          L@M@i '@2@j@N :.N@O@w@H@y@z@^@0@/@:+A@P@Q@R@          ",
"            S@T@U@V@j@N H.N@W@w@H@y@z@^@0@/@X@Y@Z@`@            ",
"               #.#+#i 3@V+@###w@H@y@$#%#&#*#=#-#;#              ",
"                  >#,#'#)#!#~#{#]#^#/#(#_#:#<#                  ",
"                    [#}#|#1#2#3#4#5#6#7#8#                      ",
"                            9#0#a#b#                            ",
"                                                                ",
"                                                                "};
