/* XPM */
static const char *fullscreen[] = {
/* columns rows colors chars-per-pixel */
"32 32 226 2",
"   c #010262",
".  c #060A65",
"X  c #0B0C64",
"o  c #07116F",
"O  c #061172",
"+  c #061A7E",
"@  c #081376",
"#  c #081679",
"$  c #100F65",
"%  c #121065",
"&  c #16156D",
"*  c #18166A",
"=  c #161772",
"-  c #151875",
";  c #131C7A",
":  c #12217E",
">  c #061F83",
",  c #062085",
"<  c #05258A",
"1  c #04288E",
"2  c #0E2B8C",
"3  c #032C93",
"4  c #0D2F91",
"5  c #023097",
"6  c #03359D",
"7  c #06389E",
"8  c #0C3295",
"9  c #0B3698",
"0  c #112484",
"q  c #102888",
"w  c #005CE8",
"e  c #1A61D6",
"r  c #1A63D8",
"t  c #0462E4",
"y  c #0263EA",
"u  c #046AED",
"i  c #0B66E6",
"p  c #0C6EED",
"a  c #0368F2",
"s  c #136AE6",
"d  c #1B6EE5",
"f  c #1372ED",
"g  c #1976ED",
"h  c #1D78ED",
"j  c #2670DF",
"k  c #356DC9",
"l  c #326FD6",
"z  c #3572D7",
"x  c #3A75D6",
"c  c #3A77D8",
"v  c #3F78D7",
"b  c #2272E5",
"n  c #227CED",
"m  c #287FED",
"M  c #437AD5",
"N  c #497ED5",
"B  c #3F85DB",
"V  c #2D82ED",
"C  c #3285EC",
"Z  c #3789ED",
"A  c #3989EB",
"S  c #3792FF",
"D  c #3B95FF",
"F  c #3C99FF",
"G  c #4685DD",
"H  c #4588DE",
"J  c #4B87DD",
"K  c #4F8ADD",
"L  c #538BDD",
"P  c #588EDD",
"I  c #5D91DD",
"U  c #458CE6",
"Y  c #4A8EE5",
"T  c #4090EF",
"R  c #4E90E5",
"E  c #4596F0",
"W  c #439AFF",
"Q  c #499EFF",
"!  c #5392E4",
"~  c #5199EE",
"^  c #5995E4",
"/  c #5F98E4",
"(  c #4DA1FF",
")  c #4FA8FF",
"_  c #52A4FF",
"`  c #56A8FF",
"'  c #5AAAFF",
"]  c #698ACF",
"[  c #6B8CD1",
"{  c #6394DD",
"}  c #6997DD",
"|  c #6D9ADD",
" . c #7396D7",
".. c #7496D8",
"X. c #759ADA",
"o. c #7E9BD5",
"O. c #789AD9",
"+. c #649AE3",
"@. c #6B9DE2",
"#. c #7CA2DD",
"$. c #62AEFF",
"%. c #63B1FF",
"&. c #6BB4FF",
"*. c #6FB8FF",
"=. c #72A0E1",
"-. c #7BA3E0",
";. c #73BAFF",
":. c #78BDFF",
">. c #7CC2FF",
",. c #AE3D3E",
"<. c #BB453E",
"1. c #B55052",
"2. c #BD545B",
"3. c #BB6974",
"4. c #D62F00",
"5. c #DA3F00",
"6. c #CE3538",
"7. c #C34300",
"8. c #C64A00",
"9. c #CC5600",
"0. c #DB4400",
"q. c #D94F00",
"w. c #DA5500",
"e. c #DF6200",
"r. c #E16900",
"t. c #C44E4E",
"y. c #C15F46",
"u. c #CD5A4F",
"i. c #C65856",
"p. c #D35441",
"a. c #D85B56",
"s. c #DA5C61",
"d. c #C26B59",
"f. c #C86455",
"g. c #CD6A51",
"h. c #D26059",
"j. c #D26B5D",
"k. c #C36262",
"l. c #C56668",
"z. c #C77064",
"x. c #CC746F",
"c. c #C7747B",
"v. c #CF7373",
"b. c #D26B71",
"n. c #DB716E",
"m. c #D37472",
"M. c #D3767A",
"N. c #DA7275",
"B. c #E24844",
"V. c #E05654",
"C. c #E5624B",
"Z. c #E1695A",
"A. c #E16265",
"S. c #E3776F",
"D. c #E67863",
"F. c #E27A6E",
"G. c #CD7480",
"H. c #D97F88",
"J. c #E07B82",
"K. c #F19316",
"L. c #E1853B",
"P. c #E68C3F",
"I. c #ECAA1E",
"U. c #FCAC1E",
"Y. c #F7B620",
"T. c #FBB025",
"R. c #F8BA22",
"E. c #EEA147",
"W. c #EFA549",
"Q. c #FCC92F",
"!. c #8E98C4",
"~. c #83A5DD",
"^. c #86A8DD",
"/. c #8BA4D9",
"(. c #8CA9DD",
"). c #90ACDE",
"_. c #9BB7DE",
"`. c #84A9E1",
"'. c #8EABE0",
"]. c #91ADE1",
"[. c #95B3E4",
"{. c #9AB8E3",
"}. c #83C5FF",
"|. c #8BCAFF",
" X c #92CEFF",
".X c #97D1FF",
"XX c #9EDBFF",
"oX c #A6C4E7",
"OX c #CB979E",
"+X c #D2838E",
"@X c #DAACB3",
"#X c #E7A9A8",
"$X c #DABCC1",
"%X c #F1C1BE",
"&X c #D9C0C5",
"*X c #D7DAEB",
"=X c #D9DDEB",
"-X c #DCE0EC",
";X c #DAE4F4",
":X c #DCE9F7",
">X c #EDC4C2",
",X c #E9C9C9",
"<X c #F2C3C3",
"1X c #F6D0D0",
"2X c #FBD3D0",
"3X c #E5E5EC",
"4X c #E6E8EE",
"5X c #EDE6E7",
"6X c #E8E6EC",
"7X c #E9E9EE",
"8X c #E0E4F1",
"9X c #E3E9F0",
"0X c #E4EDF8",
"qX c #ECECF1",
"wX c #E5F2FB",
"eX c #EEF3FB",
"rX c #F3EDEE",
"tX c #F8EEEF",
"yX c #F3EEF1",
"uX c #F2F2F5",
"iX c #F5F5F8",
"pX c #F6FBFC",
"aX c #FAF5F4",
"sX c #FCF8F4",
"dX c #FEFEFE",
"fX c None",
/* pixels */
"fXfXfXfXfXfXfXfXfXfXfXfXfXfXfXfXfXfXfXfXfXfXfXfXfXfXfXfXfXfXfXfX",
"fXfXfXfXfXfXfXfXfXfXfXfXfXfXfXfXfXfXfXfXfXfXfXfXfXfXfXfXfXfXfXfX",
"fX  X $ % % $ % $ $ $ $ X X X $ X X X X X X X . X . . . . .   fX",
"fXX !._.(.(.(.^.^.-.O.O.#.X.| | } { { I I P L K K J G G G k . fX",
"fX* oXXX.X X X|.|.}.}.}.>.:.:.;.;.;.&.&.%.%.$.' ' ` ` ( ) A o fX",
"fX* {.>.*.*.&.&.&.$.$.' ' ' ` ` _ ( ( Q Q W W F F D D S F Z O fX",
"fX& [.j e e e r r r e e e e e e e e e e e r r r r r e e r C O fX",
"fX= `.] =X;X;X;X:X:X=X*X*X*X*X*X*X*X*X*X*X*X;X;X;X;X;X=Xo.b @ fX",
"fX= -.O.dX%Xh.j.g.<.>XdXdXdXdXdXdXdXdXdXdX2XB.C.Z.a.#XdX[.b # fX",
"fX- -.O.dXb.P.Q.9.l.sXdXdXdXdXdXdXdXdXdXdXdXJ.0.U.E.i.dX].d # fX",
"fX; -.O.dXN.K.e.M.dXdXdXdXdXdXdXdXdXpXpXiXdXpX+Xq.Y.f.dX].d + fX",
"fX; =.O.dXS.4.N.dXdXdXdXdXdXdXdXdXdXdXdXiXiXpXpX+X7.y.dX].d + fX",
"fX; =...dXA.s.dXdXdXdXdXdXdXdXpXpXpXpXsXpXaXuXiXpXc.,.dX].s > fX",
"fX: @.O.dX1XsXdXdXdXdXdXdXdXdXdXpXpXdXsXaXiXaXuXiXeX@XsX].s > fX",
"fX: @.O.dXdXdXdXdXdXdXdXdXdXdXpXpXdXiXiXiXuXuXuXeXqXeXsX].s , fX",
"fX0 +.O.dXdXdXdXdXdXdXdXdXdXpXpXpXiXiXiXuXuXeXqXqX7X4XaX].i , fX",
"fX0 +.O.dXdXdXdXdXdXdXdXdXpXpXpXaXiXaXiXuXeXqXqX7X6X3XaX(.i , fX",
"fX0 / O.dXdXdXdXdXdXdXdXpXpXpXpXiXiXiXuXyXeXqXqX7X6X3XyX).i < fX",
"fX2 ^ ..dXdXdXdXdXdXdXdXpXpXiXiXiXiXuXyXqXqX7X7X9X3X9XyX).i < fX",
"fXq ! O.dX,XtXdXpXdXdXsXdXsXiXiXuXuXyXqXqXqX7X6X9X3X@XrX'.y 1 fX",
"fX2 ! O.dXk.2.pXdXdXpXsXiXiXiXuXuXeXeX7XqX6X6X9XwXb.6.yX).w 3 fX",
"fX2 !  .dXx.7.m.pXdXpXiXiXiXiXuXyXqXqXqX7X8X6X0XG.0.p.qX'.w 3 fX",
"fX4 Y ..dXv.I.r.N.dXpXaXiXuXuXuXeXqXqX6X6X9X0Xc.w.U.u.6X'.w 3 fX",
"fX8 Y  .dXb.L.T.5.s.tXiXuXuXuXqXqX7X6X6X3X3X3.8.R.E.t.6X'.w 5 fX",
"fX8 U  .dX<Xn.F.D.V.<XpXaXiXuXuXrX7X6X6XqX&X1.d.z.k.OX7X).w 5 fX",
"fX9 U [ uXeXeXeXeXeXeXqX7XqX6X6X6X6X3X3X3X3X9X8X=X=X=X6X/.w 6 fX",
"fX9 ~ c G N N N M M M M M v v v v x x x z z z z z l l z r y 6 fX",
"fX9 B E A Z Z V V V V m m n h h g g f f f p p u p u y y u t 6 fX",
"fX5 7 7 7 7 7 7 7 7 7 7 7 7 6 7 6 6 6 6 6 6 6 6 6 6 6 6 6 6 5 fX",
"fXfXfXfXfXfXfXfXfXfXfXfXfXfXfXfXfXfXfXfXfXfXfXfXfXfXfXfXfXfXfXfX",
"fXfXfXfXfXfXfXfXfXfXfXfXfXfXfXfXfXfXfXfXfXfXfXfXfXfXfXfXfXfXfXfX",
"fXfXfXfXfXfXfXfXfXfXfXfXfXfXfXfXfXfXfXfXfXfXfXfXfXfXfXfXfXfXfXfX"
};
