/* XPM */
static const char * volumerendering[] = {
"32 32 97 2",
"  	c None",
". 	c #003131",
"+ 	c #310000",
"@ 	c #310031",
"# 	c #313100",
"$ 	c #313131",
"% 	c #31314A",
"& 	c #314A31",
"* 	c #314A4A",
"= 	c #4A3131",
"- 	c #4A314A",
"; 	c #4A4A31",
"> 	c #4A4A4A",
", 	c #4A4A63",
"' 	c #4A634A",
") 	c #4A6363",
"! 	c #000031",
"~ 	c #634A4A",
"{ 	c #634A63",
"] 	c #63634A",
"^ 	c #636363",
"/ 	c #636373",
"( 	c #637363",
"_ 	c #637373",
": 	c #736363",
"< 	c #736373",
"[ 	c #737363",
"} 	c #737373",
"| 	c #737384",
"1 	c #738473",
"2 	c #738484",
"3 	c #847373",
"4 	c #847384",
"5 	c #848473",
"6 	c #848484",
"7 	c #848494",
"8 	c #849484",
"9 	c #849494",
"0 	c #948484",
"a 	c #948494",
"b 	c #949484",
"c 	c #949494",
"d 	c #9494A5",
"e 	c #94A594",
"f 	c #94A5A5",
"g 	c #A59494",
"h 	c #A594A5",
"i 	c #A5A594",
"j 	c #A5A5A5",
"k 	c #A5A5B5",
"l 	c #A5B5A5",
"m 	c #A5B5B5",
"n 	c #B5A5A5",
"o 	c #B5A5B5",
"p 	c #B5B5A5",
"q 	c #B5B5B5",
"r 	c #B5B5BD",
"s 	c #B5BDB5",
"t 	c #B5BDBD",
"u 	c #BDB5B5",
"v 	c #BDB5BD",
"w 	c #BDBDB5",
"x 	c #BDBDBD",
"y 	c #BDBDCE",
"z 	c #BDCEBD",
"A 	c #BDCECE",
"B 	c #CEBDBD",
"C 	c #CEBDCE",
"D 	c #CECEBD",
"E 	c #CECECE",
"F 	c #CECED6",
"G 	c #CED6CE",
"H 	c #CED6D6",
"I 	c #D6CECE",
"J 	c #D6CED6",
"K 	c #D6D6CE",
"L 	c #D6D6D6",
"M 	c #D6D6DE",
"N 	c #D6DED6",
"O 	c #D6DEDE",
"P 	c #DED6D6",
"Q 	c #DED6DE",
"R 	c #DEDED6",
"S 	c #DEDEDE",
"T 	c #DEDEEF",
"U 	c #DEEFDE",
"V 	c #DEEFEF",
"W 	c #EFDEDE",
"X 	c #EFDEEF",
"Y 	c #EFEFDE",
"Z 	c #EFEFEF",
"` 	c #EFEFF7",
" .	c #EFF7EF",
"..	c #EFF7F7",
"+.	c #F7EFEF",
"@.	c #F7EFF7",
"#.	c #F7F7EF",
"                                                                ",
"                        k s s s B y D D y                       ",
"                      p j l r o s G C B x y v                   ",
"                  j j j j k l l u u Z K z z v t                 ",
"                c g f h f j j j o E I S u x s x u               ",
"              6 7 c 9 c g g j j f c l s q o q m q               ",
"            ^ } 5 0 a c c 9 b c c g d j h j j n h d             ",
"            ) [ } 3 0 7 9 c c b 0 a d d f l l o n j             ",
"            ~ / / _ 1 5 0 6 a d f 9 c h j o o m k l b           ",
"          $ * ^ ^ : } | 2 6 b b g n q r s j j n j j h           ",
"          $ & $ > : } | 2 6 6 b h j p j d c j c c c j           ",
"          = - ! . ) } 6 4 4 7 6 9 c e c { $ $ ^ 9 ( ' g         ",
"          . ) # # > : 6 6 2 ; ' ~ { } d 9 # # ^ c ! ^ _         ",
"          . ^ ( # - : 6 6 2 ^ ; = ~ / } 6 ] ^ 0 S > 6 ^         ",
"          + : / , & ( } 5 6 7 | ) & # $ + d c 9 V m #           ",
"          . _ ; ] $ : | 2 8 c m w k , > f G l g i J ^           ",
"          . > # ] + ^ } 2 8 c l p S y q m w c g j y r m         ",
"          + : ! $ . ) [ 4 4 6 6 c e p l u d d 9 i j U u         ",
"            c & # + { / } 2 5 6 6 a d j f i j 0 c } | 6         ",
"            > ] ' + { / } 2 5 5 6 0 7 c c l [ : + ! ! >         ",
"            + $ ^ . ^ : } } | | 1 1 6 } c k @ $ A } c :         ",
"            . # # + > < _ ( [ [ : } / < f Y B n g d j >         ",
"            . # # + = { ) ^ ^ ^ ^ : / } 9 i i c c n a           ",
"            + $ ! . $ > ~ ~ > , > > ] [ 4 ^ ^ 6 } > ^           ",
"            . $ > + + ! $ $ ; > > - , ^ > ] c 4 c d d           ",
"              ; ] + + ! . . # & = > , , ) ^ ( = + ! !           ",
"              @ ! . . # + + ! ! . * ; > ^ / { ( 8 l ^           ",
"              # # + + ! . . # # + + % , ) ^ ^ c g c %           ",
"                # + + ! . . # # + + ! % ) ^ ^ : 6 /             ",
"                  . . # + + ! ! . . # # @ * . . . #             ",
"                        . . # # ~ + ! ! . ; &                   ",
"                                + +                             "};
