<?xml version="1.0" encoding="UTF-8" standalone="no"?>
<svg
   xmlns:dc="http://purl.org/dc/elements/1.1/"
   xmlns:cc="http://creativecommons.org/ns#"
   xmlns:rdf="http://www.w3.org/1999/02/22-rdf-syntax-ns#"
   xmlns:svg="http://www.w3.org/2000/svg"
   xmlns="http://www.w3.org/2000/svg"
   xmlns:sodipodi="http://sodipodi.sourceforge.net/DTD/sodipodi-0.dtd"
   xmlns:inkscape="http://www.inkscape.org/namespaces/inkscape"
   height="256.000000pt"
   preserveAspectRatio="xMidYMid meet"
   version="1.0"
   viewBox="0 0 256.000000 256.000000"
   width="256.000000pt"
   id="svg6"
   sodipodi:docname="magic_wand_white.svg"
   inkscape:version="1.0.1 (1.0.1+r73)">
  <metadata
     id="metadata12">
    <rdf:RDF>
      <cc:Work
         rdf:about="">
        <dc:format>image/svg+xml</dc:format>
        <dc:type
           rdf:resource="http://purl.org/dc/dcmitype/StillImage" />
      </cc:Work>
    </rdf:RDF>
  </metadata>
  <defs
     id="defs10" />
  <sodipodi:namedview
     pagecolor="#ffffff"
     bordercolor="#666666"
     borderopacity="1"
     objecttolerance="10"
     gridtolerance="10"
     guidetolerance="10"
     inkscape:pageopacity="0"
     inkscape:pageshadow="2"
     inkscape:window-width="1920"
     inkscape:window-height="1043"
     id="namedview8"
     showgrid="false"
     inkscape:zoom="2.5253906"
     inkscape:cx="170.66667"
     inkscape:cy="170.66667"
     inkscape:window-x="0"
     inkscape:window-y="0"
     inkscape:window-maximized="1"
     inkscape:current-layer="svg6"
     inkscape:document-rotation="0" />
  <g
     fill="#ffffff"
     stroke="none"
     transform="translate(0.000000,256.000000) scale(0.100000,-0.100000)"
     id="g4">
    <path
       d="M1600 2412 c-12 -10 -52 -73 -89 -141 l-66 -124 -127 -67 c-140 -73 -168 -93 -168 -123 0 -11 38 -78 85 -149 67 -101 85 -136 85 -164 0 -34 -23 -59 -392 -433 -542 -548 -783 -805 -813 -867 -50 -100 -40 -188 28 -238 40 -29 118 -26 189 6 95 44 314 244 879 805 362 360 409 403 437 403 22 0 61 -20 129 -64 187 -122 213 -116 311 72 l63 121 120 62 c66 35 129 74 140 87 37 47 23 92 -71 233 l-63 92 7 141 c6 130 5 143 -13 173 -28 45 -73 55 -223 47 l-124 -7 -115 77 c-123 82 -165 94 -209 58z m125 -166 c19 -8 61 -33 95 -56 l61 -41 114 7 c88 5 118 4 130 -6 13 -11 16 -35 14 -134 l-2 -121 48 -75 c62 -97 71 -124 52 -153 -8 -12 -55 -42 -104 -66 l-90 -44 -39 -79 c-66 -136 -100 -149 -208 -79 l-66 43 31 39 c17 21 62 67 101 101 133 119 191 211 169 270 -5 13 -48 59 -95 101 -125 112 -153 108 -291 -34 -44 -45 -108 -109 -141 -141 l-62 -59 -51 83 c-28 46 -51 95 -51 110 0 33 35 63 127 107 64 30 72 38 96 87 53 107 83 144 125 153 1 1 18 -5 37 -13z m-51 -567 c45 -39 51 -60 30 -101 -18 -35 -1072 -1093 -1267 -1270 -119 -109 -156 -129 -207 -113 -29 9 -44 46 -36 90 6 32 51 82 291 329 156 160 465 472 687 694 450 448 431 434 502 371z"
       id="path2" />
  </g>
</svg>
