/* XPM */
static const char * cdsave[] = {
"32 32 578 2",
"  	c None",
". 	c #2E2DA3",
"+ 	c #3333A6",
"@ 	c #3C3DAB",
"# 	c #4243AE",
"$ 	c #4042AE",
"% 	c #3839AA",
"& 	c #3030A5",
"* 	c #2F2EA3",
"= 	c #3636A8",
"- 	c #5E60BC",
"; 	c #9195D4",
"> 	c #B7BCE7",
", 	c #CBD2F1",
"' 	c #D3D9F5",
") 	c #D1D8F4",
"! 	c #C1C6EF",
"~ 	c #A5A9E2",
"{ 	c #7D7FCD",
"] 	c #5050B4",
"^ 	c #3131A5",
"/ 	c #6C6EC1",
"( 	c #C6CAEB",
"_ 	c #F5F9FF",
": 	c #FDFFFF",
"< 	c #FAFEFF",
"[ 	c #F8FCFF",
"} 	c #F6FAFF",
"| 	c #F3F7FF",
"1 	c #F3F6FF",
"2 	c #F8FBFF",
"3 	c #F2F3FB",
"4 	c #B1B2DF",
"5 	c #5353B5",
"6 	c #2F2EA4",
"7 	c #3D3EAC",
"8 	c #A9ADDE",
"9 	c #FAFDFF",
"0 	c #FCFFFF",
"a 	c #F4F7FF",
"b 	c #F2F5FF",
"c 	c #F1F5FF",
"d 	c #F0F5FF",
"e 	c #F0F4FF",
"f 	c #EBEEFF",
"g 	c #E9ECFF",
"h 	c #F2F4FF",
"i 	c #FCFDFF",
"j 	c #FFFFFF",
"k 	c #F0F1FA",
"l 	c #8485CB",
"m 	c #4344AE",
"n 	c #C4C8EC",
"o 	c #FEFFFF",
"p 	c #EFF2FF",
"q 	c #EEF2FF",
"r 	c #EEF1FF",
"s 	c #EDF1FF",
"t 	c #ECF1FF",
"u 	c #EBF0FF",
"v 	c #E7EAFF",
"w 	c #E7E9FF",
"x 	c #F3F4FF",
"y 	c #F5F6FF",
"z 	c #F4F5FF",
"A 	c #F9FAFF",
"B 	c #9C9DD9",
"C 	c #3232A4",
"D 	c #3C3CAA",
"E 	c #BCC2EB",
"F 	c #ECEFFF",
"G 	c #EAEEFF",
"H 	c #E9EDFF",
"I 	c #E8EDFF",
"J 	c #E7EBFF",
"K 	c #E2E5FF",
"L 	c #E6E9FF",
"M 	c #F1F2FF",
"N 	c #F0F1FF",
"O 	c #F2F3FF",
"P 	c #9395DA",
"Q 	c #272685",
"R 	c #9DA2DC",
"S 	c #F0F7FF",
"T 	c #E8EBFF",
"U 	c #E6EAFF",
"V 	c #E5E9FF",
"W 	c #E4E9FF",
"X 	c #E2E6FF",
"Y 	c #DEE0FF",
"Z 	c #EDEEFF",
"` 	c #ECEDFF",
" .	c #EFF0FF",
"..	c #6669CC",
"+.	c #6466BE",
"@.	c #E7F0FF",
"#.	c #E4EAFF",
"$.	c #E5E7FF",
"%.	c #E4E7FF",
"&.	c #E3E7FF",
"*.	c #E3E6FF",
"=.	c #E1E5FF",
"-.	c #E1E6FF",
";.	c #DEE2FF",
">.	c #DBDEFF",
",.	c #E8E9FF",
"'.	c #E9EAFF",
").	c #E6E7FF",
"!.	c #C7D1FF",
"~.	c #9EA9F7",
"{.	c #393AA2",
"].	c #3534A6",
"^.	c #B8BCE8",
"/.	c #EBF4FF",
"(.	c #E0E8FF",
"_.	c #E1E4FF",
":.	c #E0E4FF",
"<.	c #E0E3FF",
"[.	c #DFE3FF",
"}.	c #D7DCFF",
"|.	c #D5D8FF",
"1.	c #DFE1FF",
"2.	c #E5E5FF",
"3.	c #E5E6FF",
"4.	c #E4E5FF",
"5.	c #D1D5FF",
"6.	c #B1BDFF",
"7.	c #B6C3FF",
"8.	c #6D72D7",
"9.	c #15144C",
"0.	c #5859B7",
"a.	c #E6EDFE",
"b.	c #E3ECFF",
"c.	c #DFE9FF",
"d.	c #DEE6FF",
"e.	c #DFE2FF",
"f.	c #C4C4FF",
"g.	c #A7A2FF",
"h.	c #9C96FF",
"i.	c #9D97FF",
"j.	c #AFACFF",
"k.	c #D6D5FF",
"l.	c #E1E2FF",
"m.	c #D8DBFF",
"n.	c #D3D6FF",
"o.	c #BCC5FF",
"p.	c #B1C0FF",
"q.	c #B9CDFF",
"r.	c #9DAEF4",
"s.	c #2D2D88",
"t.	c #898BCE",
"u.	c #EFF8FF",
"v.	c #E2EAFF",
"w.	c #DDE7FF",
"x.	c #DDE5FF",
"y.	c #B7B5FF",
"z.	c #938CFF",
"A.	c #A19BFC",
"B.	c #B7B3F7",
"C.	c #B2AEF8",
"D.	c #9993FE",
"E.	c #9992FF",
"F.	c #CECDFF",
"G.	c #D6D8FF",
"H.	c #D1D6FF",
"I.	c #C1CEFF",
"J.	c #B7CBFF",
"K.	c #BACFFF",
"L.	c #B9D0FF",
"M.	c #B5CBFF",
"N.	c #4B4FB3",
"O.	c #3130A4",
"P.	c #AEB1E1",
"Q.	c #EDF5FF",
"R.	c #DBE6FF",
"S.	c #DAE4FF",
"T.	c #DFE6FF",
"U.	c #C6C7FF",
"V.	c #948CFF",
"W.	c #B3AFF7",
"X.	c #EAEAEA",
"Y.	c #E3E4E4",
"Z.	c #E9EAE5",
"`.	c #DEDDEC",
" +	c #CDD2FF",
".+	c #CCD8FF",
"++	c #C1D3FF",
"@+	c #BCD1FF",
"#+	c #B9CFFF",
"$+	c #B7CDFF",
"%+	c #BCD4FF",
"&+	c #656DCC",
"*+	c #3838A8",
"=+	c #C3C7EB",
"-+	c #EAF2FF",
";+	c #DAE5FF",
">+	c #D8E5FF",
",+	c #A7A5FF",
"'+	c #9F99FD",
")+	c #E9E9EA",
"!+	c #AAABD0",
"~+	c #4343A8",
"{+	c #5656AE",
"]+	c #D3D3DC",
"^+	c #D4D2F0",
"/+	c #968EFF",
"(+	c #B1B8FF",
"_+	c #C3D8FF",
":+	c #BFD3FF",
"<+	c #BDD1FF",
"[+	c #BBD0FF",
"}+	c #BDD5FF",
"|+	c #7681DA",
"1+	c #14124C",
"2+	c #3E3EAA",
"3+	c #CCD0F0",
"4+	c #E9F1FF",
"5+	c #DAE6FF",
"6+	c #D4DFFF",
"7+	c #9E99FF",
"8+	c #B2AEF9",
"9+	c #E6E7E5",
"0+	c #4949AC",
"a+	c #131362",
"b+	c #8283C9",
"c+	c #EBEAEC",
"d+	c #9D96FE",
"e+	c #A9ABFF",
"f+	c #C4D8FF",
"g+	c #BDD4FF",
"h+	c #7D8ADF",
"i+	c #181758",
"j+	c #3C3CA9",
"k+	c #CBCFEE",
"l+	c #D6E2FF",
"m+	c #A09CFF",
"n+	c #ACA8FA",
"o+	c #ECECE7",
"p+	c #6363B6",
"q+	c #11115F",
"r+	c #252597",
"s+	c #9C9CCC",
"t+	c #E6E5ED",
"u+	c #9A93FF",
"v+	c #ABAFFF",
"w+	c #7C88DE",
"x+	c #171655",
"y+	c #3535A6",
"z+	c #BFC2E8",
"A+	c #EBF3FF",
"B+	c #DCE7FF",
"C+	c #D7E3FF",
"D+	c #ABABFF",
"E+	c #9790FF",
"F+	c #D8D6EE",
"G+	c #DBDBDE",
"H+	c #8B8BCC",
"I+	c #9E9ECC",
"J+	c #D4D5DB",
"K+	c #3438AC",
"L+	c #3748C3",
"M+	c #4758C3",
"N+	c #4C60C3",
"O+	c #4A5EC3",
"P+	c #495DC3",
"Q+	c #485CC2",
"R+	c #475CC2",
"S+	c #475AC1",
"T+	c #495EC3",
"U+	c #3545B7",
"V+	c #1E2D9B",
"W+	c #2336AE",
"X+	c #1831AE",
"Y+	c #0A1FA4",
"Z+	c #2E2EA3",
"`+	c #A5A6DA",
" @	c #E2EBFF",
".@	c #E1EBFF",
"+@	c #D6DFFF",
"@@	c #CCD3FF",
"#@	c #C5CCFF",
"$@	c #C5CAFF",
"%@	c #9D97FD",
"&@	c #CFCCF1",
"*@	c #E9E8ED",
"=@	c #E5E4EE",
"-@	c #A7A6EA",
";@	c #355BC9",
">@	c #85BEF7",
",@	c #C7D7EC",
"'@	c #D9E6F8",
")@	c #D7E5F7",
"!@	c #D2E0F5",
"~@	c #D0DEF6",
"{@	c #D3E1F5",
"]@	c #D6E3F5",
"^@	c #D7E2F0",
"/@	c #7CAAE0",
"(@	c #428CEB",
"_@	c #0D2CB2",
":@	c #7979C5",
"<@	c #F3FAFF",
"[@	c #DEE7FF",
"}@	c #D6DDFF",
"|@	c #CCD2FF",
"1@	c #C6CBFF",
"2@	c #DADEFF",
"3@	c #F1F3FF",
"4@	c #D7D7FF",
"5@	c #A09AFF",
"6@	c #958DFF",
"7@	c #9B94FE",
"8@	c #9991FF",
"9@	c #8480F4",
"0@	c #4876D7",
"a@	c #94C5F8",
"b@	c #E1E6EE",
"c@	c #F8FAFF",
"d@	c #E8EEFF",
"e@	c #EAEFFF",
"f@	c #EDF2FF",
"g@	c #F5F7FF",
"h@	c #F6F6F7",
"i@	c #80A5D1",
"j@	c #3882D8",
"k@	c #1941C2",
"l@	c #4747AE",
"m@	c #D2D4F8",
"n@	c #D0D5FF",
"o@	c #C9CEFF",
"p@	c #CFD5FF",
"q@	c #EEF0FF",
"r@	c #F1F4FF",
"s@	c #B5B6FF",
"t@	c #ADAFFF",
"u@	c #B0B3FF",
"v@	c #A6B1F4",
"w@	c #90C5F9",
"x@	c #E2E7EF",
"y@	c #FBFCFE",
"z@	c #E6EDFF",
"A@	c #E9EEFF",
"B@	c #F2F2F7",
"C@	c #87AEDE",
"D@	c #4B99F7",
"E@	c #1A42C2",
"F@	c #3031A5",
"G@	c #908FD7",
"H@	c #D9DCFF",
"I@	c #C9CFFF",
"J@	c #DCDFFF",
"K@	c #F0F2FF",
"L@	c #EEEFFF",
"M@	c #EDEFFF",
"N@	c #EFF1FF",
"O@	c #E4E8FF",
"P@	c #C4CDFF",
"Q@	c #CFDFFF",
"R@	c #B4C6F4",
"S@	c #4676D7",
"T@	c #92C5F9",
"U@	c #E5EBF1",
"V@	c #FEFEFE",
"W@	c #F9FBFF",
"X@	c #EAF0FF",
"Y@	c #E9EFFF",
"Z@	c #EFF1F8",
"`@	c #8AB0DF",
" #	c #4C9AF7",
".#	c #4646B0",
"+#	c #CFCFF8",
"@#	c #D3D9FF",
"##	c #C0CAFF",
"$#	c #CEDDFF",
"%#	c #CCDBFF",
"&#	c #B2C3F4",
"*#	c #4977D7",
"=#	c #92C2F8",
"-#	c #E7EDF2",
";#	c #E7EEFF",
">#	c #EDEFF9",
",#	c #8CB2E2",
"'#	c #4997F6",
")#	c #1E42C0",
"!#	c #7878CD",
"~#	c #FBFCFF",
"{#	c #ECEEFF",
"]#	c #C4CFFF",
"^#	c #CBDBFF",
"/#	c #B3C4F4",
"(#	c #4A78D7",
"_#	c #8DC4FB",
":#	c #E8EEF2",
"<#	c #EBEEF8",
"[#	c #8DB4E4",
"}#	c #4796F6",
"|#	c #3049B9",
"1#	c #202078",
"2#	c #9493DC",
"3#	c #BEC6FF",
"4#	c #C7D3FF",
"5#	c #4B78D7",
"6#	c #8DC4FC",
"7#	c #E9EEF3",
"8#	c #F9FAFB",
"9#	c #FAFAFA",
"0#	c #F8F9F9",
"a#	c #F8F8F9",
"b#	c #F6F7F9",
"c#	c #F2F4F8",
"d#	c #EEF0F8",
"e#	c #E9ECF7",
"f#	c #E6EAF7",
"g#	c #E6E8F0",
"h#	c #91B6E4",
"i#	c #4897F7",
"j#	c #2D4EC1",
"k#	c #242482",
"l#	c #8E8EDA",
"m#	c #F6F6FF",
"n#	c #F7F9FF",
"o#	c #CAD6FF",
"p#	c #4E7AD7",
"q#	c #81BEFD",
"r#	c #ACCFF8",
"s#	c #AECFF8",
"t#	c #AFD0F7",
"u#	c #ADCEF6",
"v#	c #A9CBF4",
"w#	c #A7CAF3",
"x#	c #A6CBF4",
"y#	c #A5C7F2",
"z#	c #A0C2EF",
"A#	c #9FC1EE",
"B#	c #9EC1ED",
"C#	c #75B0F5",
"D#	c #4595F7",
"E#	c #3252C1",
"F#	c #1C1C6E",
"G#	c #6B6AC8",
"H#	c #D5D5F3",
"I#	c #BFC7FF",
"J#	c #CBD8FF",
"K#	c #B4C4F4",
"L#	c #4F7CD7",
"M#	c #71B7FF",
"N#	c #67ABFE",
"O#	c #5E9BF6",
"P#	c #609DF6",
"Q#	c #5C9AF5",
"R#	c #5A98F7",
"S#	c #5698F7",
"T#	c #5497F7",
"U#	c #5394F6",
"V#	c #4C90F6",
"W#	c #3883FA",
"X#	c #3E8FFD",
"Y#	c #3F94FE",
"Z#	c #4394F7",
"`#	c #3554C1",
" $	c #37379C",
".$	c #8786D5",
"+$	c #C4C4F1",
"@$	c #CCD0FF",
"#$	c #D0D7FF",
"$$	c #DCE9FF",
"%$	c #DAE9FF",
"&$	c #D7E7FF",
"*$	c #C0D0F4",
"=$	c #527DD7",
"-$	c #6DB3FF",
";$	c #5D9EF9",
">$	c #C1C9E7",
",$	c #D7DCEB",
"'$	c #D5DBEB",
")$	c #D4DBEB",
"!$	c #D4DBEC",
"~$	c #BAC6E8",
"{$	c #2E5FEF",
"]$	c #3981FA",
"^$	c #3D93FE",
"/$	c #4193F7",
"($	c #3A56C1",
"_$	c #101049",
":$	c #2B2B87",
"<$	c #5352B2",
"[$	c #7675CC",
"}$	c #9597DA",
"|$	c #A0A3E0",
"1$	c #9C9FDF",
"2$	c #7E82D1",
"3$	c #6BB1FF",
"4$	c #5A9CF9",
"5$	c #D7D9E6",
"6$	c #B8C0E7",
"7$	c #A0ABE5",
"8$	c #ECEBED",
"9$	c #ECEDEF",
"0$	c #ECECEF",
"a$	c #EEEEEE",
"b$	c #D1D6E6",
"c$	c #4271F0",
"d$	c #3E86FA",
"e$	c #3991FE",
"f$	c #3D59C1",
"g$	c #11114E",
"h$	c #161559",
"i$	c #151557",
"j$	c #15185A",
"k$	c #547ED7",
"l$	c #66AFFF",
"m$	c #5699F8",
"n$	c #D0D0DE",
"o$	c #7287E2",
"p$	c #475EE4",
"q$	c #DEDDE2",
"r$	c #E1E1E6",
"s$	c #E1E0E5",
"t$	c #E2E2E6",
"u$	c #C8CDE1",
"v$	c #5682F1",
"w$	c #448EFB",
"x$	c #358EFE",
"y$	c #3F91F7",
"z$	c #3F5AC1",
"A$	c #567FD7",
"B$	c #63ADFF",
"C$	c #5297F8",
"D$	c #C6C6D7",
"E$	c #6B81DF",
"F$	c #425CE2",
"G$	c #D3D3DE",
"H$	c #D4D4DF",
"I$	c #D4D4E0",
"J$	c #D5D5E1",
"K$	c #C1C6DA",
"L$	c #6791F2",
"M$	c #4992FD",
"N$	c #2E8BFF",
"O$	c #3E8FF7",
"P$	c #475EC0",
"Q$	c #5580D7",
"R$	c #5EAAFE",
"S$	c #4E95F8",
"T$	c #AFB3CC",
"U$	c #AEB2CD",
"V$	c #A3A8CB",
"W$	c #C1C1D1",
"X$	c #C3C3D2",
"Y$	c #B2B7D1",
"Z$	c #7BA5F4",
"`$	c #4E98FD",
" %	c #2988FF",
".%	c #3C8FF7",
"+%	c #4A60BF",
"@%	c #4463C3",
"#%	c #67A8F5",
"$%	c #5798F2",
"%%	c #AAACC7",
"&%	c #C0BFCF",
"*%	c #BEBECF",
"=%	c #BDBDD0",
"-%	c #BEBDCC",
";%	c #BFBFD0",
">%	c #AFB5CC",
",%	c #8BB3F0",
"'%	c #5CA0F6",
")%	c #388FF7",
"!%	c #4489EB",
"~%	c #2E3BAA",
"{%	c #111594",
"]%	c #4456B9",
"^%	c #485DBD",
"/%	c #5655A0",
"(%	c #5555A0",
"_%	c #4A5CB8",
":%	c #485EBF",
"<%	c #2F3BA9",
"                    . + @ # $ % & *                             ",
"                = - ; > , ' ) ! ~ { ] ^                         ",
"            ^ / ( _ : < [ _ } | 1 2 3 4 5 6                     ",
"          7 8 9 0 a b c d e e f g h i j k l ^                   ",
"        m n o c p q r s s t u v w x y z A j B C                 ",
"      D E [ F F f G G H I I J K L M N N N O i P Q               ",
"    ^ R S g T T v U L V V W X Y w Z ` ` ` `  .F ..              ",
"    +.@.#.$.%.&.*.X K =.=.-.;.>.,.'.,.,.,.'.).!.~.{.            ",
"  ].^./.(._.:.<.[.;.;.=.;.}.|.1.'.2.2.3.4.Y 5.6.7.8.9.          ",
"  0.a.b.c.d.e.e.;.e.[.f.g.h.i.j.k.,.3.l.m.n.o.p.q.r.s.          ",
". t.u.v.c.w.x.e.e.:.y.z.A.B.C.D.E.F._.G.H.I.J.K.L.M.N.          ",
"O.P.Q.v.c.w.R.S.T.U.V.W.X.Y.Z.`.A.i. +.+++@+@+#+$+%+&+          ",
"*+=+-+v.c.w.R.;+>+,+'+)+!+~+{+]+^+/+(+_+:+<+[+#+$+}+|+1+        ",
"2+3+4+v.c.w.R.5+6+7+8+9+0+  a+b+c+d+e+f+:+<+[+#+$+g+h+i+        ",
"j+k+4+v.c.w.R.5+l+m+n+o+p+q+r+s+t+u+v+f+:+<+[+#+$+}+w+x+        ",
"y+z+A+v.c.w.B+5+C+D+E+F+G+H+I+J+K+L+M+N+O+P+Q+R+S+T+U+V+W+X+Y+  ",
"Z+`+S  @.@w.+@@@#@$@h.%@&@*@=@-@;@>@,@'@)@!@~@~@{@]@]@]@^@/@(@_@",
"  :@<@[@}@|@1@1@2@3@4@5@6@7@8@9@0@a@b@c@b c u d@e@f@e g@h@i@j@k@",
"  l@m@n@o@1@p@w M q@r@$.s@t@u@v@0@w@x@y@a b f@e@z@A@u r@B@C@D@E@",
"  F@G@H@I@J@q@K@L@M@N@O@P@Q@Q@R@S@T@U@V@W@a 1 q X@z@Y@t Z@`@ #E@",
"    .#+#F M N@q@L@M@K@@###$#%#&#*#=#-#V@V@W@a b t X@;#Y@>#,#'#)#",
"      !#~#O q@q@L@q@{##@]#$#^#/#(#_#:#V@V@V@W@a b s A@d@<#[#}#|#",
"      1#2#i 3@q@L@N :.3#4#$#^#/#5#6#7#8#9#0#a#b#c#d#e#f#g#h#i#j#",
"        k#l#m#n#L@N H.3#o#$#^#/#p#q#r#s#t#u#v#w#x#y#z#A#B#C#D#E#",
"          F#G#H#i r@#@I#J#$#^#K#L#M#N#O#P#Q#R#S#T#U#V#W#X#Y#Z#`#",
"               $.$+$@$#$$$%$&$*$=$-$;$>$,$'$)$!$)$'$~${$]$^$/$($",
"                _$:$<$[$}$|$1$2$=$3$4$5$6$7$8$9$0$a$b$c$d$e$/$f$",
"                        g$h$i$j$k$l$m$n$o$p$q$r$s$t$u$v$w$x$y$z$",
"                                A$B$C$D$E$F$G$H$I$J$K$L$M$N$O$P$",
"                                Q$R$S$T$U$V$W$X$X$X$Y$Z$`$ %.%+%",
"                                @%#%$%%%&%*%=%=%-%;%>%,%'%)%!%~%",
"                                {%]%^%/%/%(%/%/%(%(%(%_%:%:%<%  "};
