/* XPM */
static const char *fullpage[] = {
/* columns rows colors chars-per-pixel */
"32 32 257 2",
"   c #000202",
".  c #080504",
"X  c #00170B",
"o  c #161416",
"O  c #180404",
"+  c #002600",
"@  c #002A1A",
"#  c #003D06",
"$  c #003515",
"%  c #003D15",
"&  c #003A1D",
"*  c #1C2C18",
"=  c #002F21",
"-  c #003223",
";  c #003B25",
":  c #013A2A",
">  c #0E3A25",
",  c #1C2222",
"<  c #271C27",
"1  c #272B2B",
"2  c #2E3131",
"3  c #2A3932",
"4  c #333333",
"5  c #393839",
"6  c #004A02",
"7  c #004A0D",
"8  c #06490A",
"9  c #004313",
"0  c #004C10",
"q  c #005303",
"w  c #005B00",
"e  c #005608",
"r  c #1D5C1D",
"t  c #1B481A",
"y  c #004120",
"u  c #016301",
"i  c #006B00",
"p  c #0E6711",
"a  c #007400",
"s  c #106A13",
"d  c #244F24",
"f  c #355038",
"g  c #294A2E",
"h  c #27722A",
"j  c #1F5140",
"k  c #215343",
"l  c #3D5340",
"z  c #2E6741",
"x  c #316741",
"c  c #387346",
"v  c #387943",
"b  c #551A1A",
"n  c #7B0303",
"m  c #423642",
"M  c #434343",
"N  c #4C4B4C",
"B  c #4A4349",
"V  c #504B4F",
"C  c #514951",
"Z  c #53504F",
"A  c #535454",
"S  c #585859",
"D  c #585157",
"F  c #435345",
"G  c #416957",
"H  c #427D40",
"J  c #516C50",
"K  c #664B4D",
"L  c #62605F",
"P  c #616161",
"I  c #6A6C6C",
"U  c #696569",
"Y  c #72706F",
"T  c #737372",
"R  c #787878",
"E  c #787078",
"W  c #776C77",
"Q  c #5778C8",
"!  c #018501",
"~  c #0F970F",
"^  c #119911",
"/  c #189B18",
"(  c #0CA20C",
")  c #17A617",
"_  c #1EA91E",
"`  c #1DB51D",
"'  c #22AA22",
"]  c #2BB92B",
"[  c #34A633",
"{  c #3F8E4E",
"}  c #19C119",
"|  c #23C423",
" . c #4C8551",
".. c #479C47",
"X. c #479350",
"o. c #589356",
"O. c #528C59",
"+. c #58AC58",
"@. c #698F71",
"#. c #629B64",
"$. c #65A666",
"%. c #71B270",
"&. c #78BB77",
"*. c #4BCF4B",
"=. c #72C072",
"-. c #7AD678",
";. c #79E077",
":. c #4E8EA3",
">. c #6D8A84",
",. c #7F8387",
"<. c #7E889B",
"1. c #789887",
"2. c #739586",
"3. c #7682A2",
"4. c #7B92A7",
"5. c #7BA184",
"6. c #5B85C2",
"7. c #6E89D8",
"8. c #718CDF",
"9. c #7D95DD",
"0. c #7387C4",
"q. c #618DE2",
"w. c #7A9EF1",
"e. c #6B99E6",
"r. c #7DA3F1",
"t. c #70B1D6",
"y. c #840000",
"u. c #8B0000",
"i. c #940000",
"p. c #9B0000",
"a. c #A20000",
"s. c #AB0000",
"d. c #A21F04",
"f. c #B40000",
"g. c #BB0000",
"h. c #A72202",
"j. c #BE3303",
"k. c #B23917",
"l. c #C20000",
"z. c #CC0000",
"x. c #DD0000",
"c. c #C63202",
"v. c #D02C00",
"b. c #C25418",
"n. c #D45D31",
"m. c #CB622A",
"M. c #D5642A",
"N. c #DF6337",
"B. c #FE7E0A",
"V. c #867F83",
"C. c #83807D",
"Z. c #FF800A",
"A. c #FF951A",
"S. c #FE9A1C",
"D. c #FFB231",
"F. c #FFBC34",
"G. c #FFDD4B",
"H. c #F9D555",
"J. c #FEF561",
"K. c #FFFA63",
"L. c #888785",
"P. c #848A97",
"I. c #8F9295",
"U. c #92908C",
"Y. c #9A9998",
"T. c #8B98A8",
"R. c #8D98BB",
"E. c #81AE85",
"W. c #81B184",
"Q. c #9AA6A5",
"!. c #91B6A9",
"~. c #A4A39D",
"^. c #A7A6A3",
"/. c #ACAAA6",
"(. c #ADA9A9",
"). c #A5ABB0",
"_. c #A2BAAD",
"`. c #A6B5B8",
"'. c #B5B2AB",
"]. c #BCB9B5",
"[. c #B8B6B7",
"{. c #8FA2DB",
"}. c #91B4D8",
"|. c #88B8FB",
" X c #95BFEC",
".X c #85A5ED",
"XX c #88D286",
"oX c #90CE8D",
"OX c #99ED96",
"+X c #AFD9AF",
"@X c #B0DCB0",
"#X c #BBD4BC",
"$X c #A2EE9F",
"%X c #A1E0A1",
"&X c #BFF4BE",
"*X c #B2F2B1",
"=X c #95CAFF",
"-X c #9ACDFF",
";X c #9EC3FE",
":X c #9CC3E9",
">X c #B7C7C0",
",X c #BAC6C7",
"<X c #BDC4DD",
"1X c #B4D8D6",
"2X c #A2C7E8",
"3X c #A6C7F9",
"4X c #A3D2FF",
"5X c #ABD5FE",
"6X c #AED8FF",
"7X c #B1CCFE",
"8X c #BCD5E7",
"9X c #B3D4FE",
"0X c #B3DAFF",
"qX c #BADEFF",
"wX c #BDE0FF",
"eX c #C3C2BE",
"rX c #D3D8A2",
"tX c #E5CBA4",
"yX c #EDEDB7",
"uX c #C8C6C1",
"iX c #C9C8C6",
"pX c #C6CED1",
"aX c #C6CBDC",
"sX c #C2D8C3",
"dX c #C7DBC8",
"fX c #CAD2D5",
"gX c #D3D0CB",
"hX c #D5D5D5",
"jX c #DEDCDC",
"kX c #CED9E2",
"lX c #C1DDFC",
"zX c #DADEE3",
"xX c #CDE4CB",
"cX c #DCE0DE",
"vX c #DAF2DB",
"bX c #C4E3FE",
"nX c #CBE6FE",
"mX c #CDE8FE",
"MX c #CBE2F3",
"NX c #DCE3E8",
"BX c #D3EBFE",
"VX c #D9ECFE",
"CX c #D8E4F7",
"ZX c #DDF1FF",
"AX c #E2DFD8",
"SX c #E6E2DE",
"DX c #E2FFDE",
"FX c #E3E5E3",
"GX c #E4E8E4",
"HX c #E7E6E5",
"JX c #EAFAEB",
"KX c #E2F3FF",
"LX c #F3EEF5",
"PX c #F2F0EF",
"IX c #FEFEFE",
"UX c #F6F3F1",
"YX c None",
/* pixels */
"YXYXYXYXYXYXYXYXYXYXYXYXYXYXYXYXYXYXYXYXYXYXYXYXYXYXYXYXYXYXYXYX",
"YXYXYXYXYXYXYXN A P T L.L.I S M 2 YXYXYXYXYXYX6 6 7 9 % $ - YXYX",
"YXYXYXYXYXYXN T (.iXgXiXuX].].^.U 4 < YXa s h  .1._.#X>XQ.k - YX",
"YXYXYXYXN S ^.SX<X{.9.8.7.7.0.R.].~.B o 6 $.IXJX&X*X$XOXDX`.= YX",
"YXYXYXB P uXNX{.w.7XnXKXKXBX9Xr.Q T.'.N . 8 E.vX*.} } } ;.fX: YX",
"YXYXM A uXNXw.;XVXVXKXVXVXVXVXBX5X7.3.'.m + s HX%X` ] ` -.pX: YX",
"YXYXM ^.PX.X4XnXnXnXnXnXnXnXbXlXqXqXe.<.U.s dX@X' ' ) ( XX,X- YX",
"YXM I SX;X|.qX0XlXlXbXbXbXbXqXqX6X5X4X6.H >X@X/ ^ ^ &.[ oX`.= YX",
"YXM /.NX|.4X4X6XqXqXqXqXqXqX0X5X5X4X4Xt.{ UX+.! ! &.UXxXxX>.= YX",
"YXA gXlX|.-X4X4X5X5X6X6X6X6X5X4X4X=X=X4X:.o.GX..%.HXf 1.IXc @ YX",
"YXU FX9X=X=X-X-X4X4X4X4X4X4X4X-X=X=X-X6X.XG #.HXjXc # % 2.k YXYX",
"YXR HX7X4X4X-X=X=X-X-X-X-X=X=X=X-X-X4XwX:XI.J  .v 7 YXYX& : YXYX",
"YXR FX9X0X6X4X4X-X-X-X=X=X-X-X4X5X5XwXbX2XP.S + e YXYXYXYXYXYXYX",
"YXI jXlXqXqX0X0X5X4X4X4X4X5X6X6XqXwXbXmX:XP.Z   YXYXYXYXYXYXYXYX",
"YXS iXnXbXnXbXqXqXqXqX0XqXwXwXqXbXmXmXBX}.L.4   YXYXYXYXYXYXYXYX",
"YXB /.NXqXmXmXmXmXbXbXbXbXbXbXmXmXmXBXmX4.C.o YXYXYXYXYXYXYXYXYX",
"YXM R hXlXnXBXBXmXmXmXmXmXmXmXBXmXBXZX2X,.L   YXYXYXYXYXYXYXYXYX",
"YXYXN (.zXbXVXVXBXBXBXBXBXBXBXBXBXZXmX<.C.1 O YXYXYXYXYXYXYXYXYX",
"YXYXB U ].kXlXVXKXVXVXVXVXVXVXKXKXMXT.U.I . YXYXYXYXYXYXYXYXYXYX",
"YXYXYXd E [.fX8X1XKXKXKXKXKXKXVX8XT.L.#XgXK l.z.YXYXYXYXYXYXYXYX",
"YXYXi u d W ~.o.X.!.BXCXCXMX8X`.I.U.T Q.hXjXtXN.l.YXYXYXYXYXYXYX",
"YXYXs $.w t h #XUX#.@.`.).Q.I.L.Y l , K (.aXyXJ.M.f.YXYXYXYXYXYX",
"YXw h IXW.p sX@X+.GX#.J L.T P N 4 1 YXf.tXrXH.G.K.M.f.YXYXYXYXYX",
"YX6  .JXvXNX@X/ ! ..HXO.f D B YXYXYXYXf.n.D.A.D.G.J.M.s.YXYXYXYX",
"YX6 5.&X*.%X' ^ ! %.NXv 6 YXYXYXYXYXYXYXa.v.B.A.D.G.K.m.a.YXYXYX",
"YX6 _.*X} ` _ ^ &.HXc 6 YXYXYXYXYXYXYXYXYXa.c.B.A.D.G.K.m.a.YXYX",
"YX9 >X$X| ] ) &.LXx # YXYXYXYXYXYXYXYXYXYXYXp.c.Z.A.D.G.K.m.p.YX",
"YX% ,XOX} ` ( [ dX1.% YXYXYXYXYXYXYXYXYXYXYXYXi.c.Z.A.D.G.K.k.YX",
"YX$ !.JX;.-.XXXXxXIX2.& YXYXYXYXYXYXYXYXYXYXYXi.u.j.B.A.F.G.k.YX",
"YX; g `.pXpX,X`.>.G k : YXYXYXYXYXYXYXYXYXYXYXYXYXy.j.Z.S.b.y.YX",
"YXYX- = : : - = @ @ YXYXYXYXYXYXYXYXYXYXYXYXYXYXYXYXy.h.d.y.u.YX",
"YXYXYXYXYXYXYXYXYXYXYXYXYXYXYXYXYXYXYXYXYXYXYXYXYXYXYXYXYXYXYXYX"
};
