/* XPM */
static const char * imageviewer_xpm[] = {
"32 32 202 2",
"  	c None",
". 	c #616161",
"+ 	c #686868",
"@ 	c #6A6A6A",
"# 	c #5F5F5F",
"$ 	c #6B6B6B",
"% 	c #898989",
"& 	c #5D5D5D",
"* 	c #636363",
"= 	c #646464",
"- 	c #5B5B5B",
"; 	c #8D8D8D",
"> 	c #656565",
", 	c #717171",
"' 	c #A1A1A1",
") 	c #868686",
"! 	c #666666",
"~ 	c #8A8A8A",
"{ 	c #696969",
"] 	c #5A5A5A",
"^ 	c #757575",
"/ 	c #7F7F7F",
"( 	c #555555",
"_ 	c #939393",
": 	c #5E5E5E",
"< 	c #707070",
"[ 	c #A4A4A4",
"} 	c #676767",
"| 	c #545454",
"1 	c #848484",
"2 	c #727272",
"3 	c #6E6E6E",
"4 	c #919191",
"5 	c #989898",
"6 	c #626262",
"7 	c #A5A5A5",
"8 	c #999999",
"9 	c #909090",
"0 	c #6C6C6C",
"a 	c #828282",
"b 	c #9E9E9E",
"c 	c #282828",
"d 	c #2D2D2D",
"e 	c #A3A3A3",
"f 	c #7C7C7C",
"g 	c #858585",
"h 	c #888888",
"i 	c #535353",
"j 	c #585858",
"k 	c #878787",
"l 	c #959595",
"m 	c #8C8C8C",
"n 	c #737373",
"o 	c #5C5C5C",
"p 	c #9B9B9B",
"q 	c #494949",
"r 	c #9F9F9F",
"s 	c #9A9A9A",
"t 	c #9D9D9D",
"u 	c #979797",
"v 	c #606060",
"w 	c #A2A2A2",
"x 	c #A0A0A0",
"y 	c #515151",
"z 	c #6F6F6F",
"A 	c #191919",
"B 	c #2B2B2B",
"C 	c #252525",
"D 	c #1E1E1E",
"E 	c #8F8F8F",
"F 	c #8B8B8B",
"G 	c #777777",
"H 	c #818181",
"I 	c #202020",
"J 	c #111111",
"K 	c #121212",
"L 	c #292929",
"M 	c #8E8E8E",
"N 	c #7B7B7B",
"O 	c #7A7A7A",
"P 	c #1A1A1A",
"Q 	c #222222",
"R 	c #787878",
"S 	c #161616",
"T 	c #181818",
"U 	c #6D6D6D",
"V 	c #353535",
"W 	c #2A2A2A",
"X 	c #2C2C2C",
"Y 	c #797979",
"Z 	c #575757",
"` 	c #969696",
" .	c #929292",
"..	c #4F4F4F",
"+.	c #939392",
"@.	c #949494",
"#.	c #7E7E7E",
"$.	c #474747",
"%.	c #373737",
"&.	c #303030",
"*.	c #909193",
"=.	c #ACB5CE",
"-.	c #8391B4",
";.	c #7B89AC",
">.	c #8D9BBE",
",.	c #9196A0",
"'.	c #595959",
").	c #3E3E3E",
"!.	c #88888B",
"~.	c #A2B3D5",
"{.	c #A0B0C8",
"].	c #8B97A2",
"^.	c #77838E",
"/.	c #8998A6",
"(.	c #96AACA",
"_.	c #8B92A0",
":.	c #3A3A3A",
"<.	c #9C9C9C",
"[.	c #4A4A4A",
"}.	c #BBC7DC",
"|.	c #A1B7D0",
"1.	c #ACBFD1",
"2.	c #AEBFCF",
"3.	c #8192A2",
"4.	c #637688",
"5.	c #889EB3",
"6.	c #88A1C2",
"7.	c #686A6C",
"8.	c #747474",
"9.	c #383838",
"0.	c #B3C6DF",
"a.	c #7F99B2",
"b.	c #879FB6",
"c.	c #A1B8CE",
"d.	c #A0B6CC",
"e.	c #657D95",
"f.	c #6B849D",
"g.	c #9CB7D2",
"h.	c #798391",
"i.	c #343434",
"j.	c #9B9B9A",
"k.	c #B0C4DE",
"l.	c #8297AB",
"m.	c #8098AF",
"n.	c #9AB2CA",
"o.	c #A1B9D1",
"p.	c #96AEC4",
"q.	c #72879B",
"r.	c #ADC0D2",
"s.	c #818C98",
"t.	c #565656",
"u.	c #B9C7D8",
"v.	c #8C9BA8",
"w.	c #8FA0AE",
"x.	c #A0B1C1",
"y.	c #A1B3C2",
"z.	c #AEBFCD",
"A.	c #B1C0CC",
"B.	c #AEBECD",
"C.	c #6F757A",
"D.	c #4B4B4B",
"E.	c #B4B8BC",
"F.	c #9DADBB",
"G.	c #9EAAB4",
"H.	c #98A4AF",
"I.	c #909CA7",
"J.	c #A1ADB7",
"K.	c #BCC7D1",
"L.	c #9BA7B2",
"M.	c #4C4C4C",
"N.	c #808080",
"O.	c #B5BBC1",
"P.	c #AAB9C7",
"Q.	c #8C969F",
"R.	c #A4ADB6",
"S.	c #B8C3CC",
"T.	c #A6AFB7",
"U.	c #A4A6A8",
"V.	c #816765",
"W.	c #845957",
"X.	c #87898A",
"Y.	c #959A9F",
"Z.	c #9A9FA4",
"`.	c #898C8F",
" +	c #7C6563",
".+	c #D1D0C0",
"++	c #ECB34E",
"@+	c #7E4E48",
"#+	c #936D6B",
"$+	c #E8832B",
"%+	c #FFB633",
"&+	c #EAB246",
"*+	c #7F4942",
"=+	c #82534E",
"-+	c #E5660E",
";+	c #E8B345",
">+	c #885C57",
",+	c #E3650C",
"'+	c #FFB733",
")+	c #A45C23",
"!+	c #9D3808",
"~+	c #767676",
"                        . +         @ #                         ",
"                        $ % & * = - ;                           ",
"                  >   - , ' ) > ! ~ ' { ]   >                   ",
"                ^ / ( @ _ ' @ : # < [ ; } | 1 2                 ",
"              3 4 5 6 ) [ [ ) - 6 ~ 7 [ / ! 8 9 {               ",
"              1 0 a b [ 7 ~ ( c d ] 4 7 e b f , /               ",
"              g 5 h ' 7 7 / i j j ( k 7 7 b ~ 5 /               ",
"          $ ! # 9 [ [ 7 7 l m 0 n ~ 8 7 7 [ [ % o $ {           ",
"          @ p l ' 7 7 7 7 7 5 q i b 7 7 7 7 7 r l 8 >           ",
"        ! h s 7 7 7 7 7 7 t [ _ u e b 7 7 7 7 7 [ 5 1           ",
"          v 2 w 7 7 7 7 x ( - u _ y 6 w 7 7 7 7 b 3 #           ",
"        3 & z 9 7 7 7 7 % : A B C D = E 7 7 7 7 F 0 # 0         ",
"        $ 4 G H 7 7 7 7 k ! I J K L } M 7 7 7 [ N O 9 !         ",
"        a 7 [ w [ 7 7 7 % = P K K Q } 9 7 7 7 [ w [ [ O         ",
"      ! 4 7 s 2 $ R [ 7 x = S T S P U e 7 w 2 0 ^ b 7 F *       ",
"      , 0 9 _ ~ o : w 7 e z c V W X Y [ 7 b Z v M ` % 3 U       ",
"      # = 8  ., 2 = M 7 w , ..j ] H +.; E ) > 2 2 u @..         ",
"      > #.2 #.1 > $.n 7 % %.&.*.=.-.;.>.,.'.$.+ h Y n #.6       ",
"        & '.| @ > - u ' ).I !.~.{.].^./.(._.:.{ { y - &         ",
"      } #.2 G n z <.7 j K [.}.|.1.2.3.4.5.6.7.. 8.G , /         ",
"      =  .~ <.[ w 7 e X 9.u 0.a.b.c.d.e.f.g.h.{ [ s ~ M         ",
"        0 < M E b 7 b i.@.j.k.l.m.n.o.p.q.r.s.t.4 ~ 3 0         ",
"        @ _ , Z 9 w [ <.s g u.v.w.x.y.z.A.B.C.Z ( R 4 >         ",
"        } k z 8.G k 7 e @ D.E.F.G.H.I.J.K.L.M.U 2 < k           ",
"          . # < N.' 7 7 5 * Z O.P.Q.R.S.T.U.V.W.3 : .           ",
"          : + Y r 7 7 7 m ] | | X.Y.Z.`.v  +.+++@+}             ",
"            0 Y e [ 9 r s <./ '.j v , ^ F #+$+%+&+*+            ",
"              n r H } <.7 w 5 3 R 8 e 7 ` ! =+-+%+;+            ",
"                m ` R ; [ [ b { ^ x [ e k #.l >+,+'+)+          ",
"                  n k # ` [ s 0 n b [ m * F 0     !+            ",
"                      H u F N     Y 9 u O                       ",
"                        + ~+        8.{                         "};
