/* XPM */
static const char * rotate[] = {
"32 32 247 2",
"  	c None",
". 	c #494949",
"+ 	c #626262",
"@ 	c #6F6F6F",
"# 	c #5B5B5B",
"$ 	c #6D6D6D",
"% 	c #5E5E5E",
"& 	c #424242",
"* 	c #323232",
"= 	c #6C6C6C",
"- 	c #777777",
"; 	c #575757",
"> 	c #333333",
", 	c #1B1B1B",
"' 	c #181818",
") 	c #232323",
"! 	c #696969",
"~ 	c #757575",
"{ 	c #444444",
"] 	c #6E6E6E",
"^ 	c #363636",
"/ 	c #141414",
"( 	c #242424",
"_ 	c #373737",
": 	c #2D2D2D",
"< 	c #1E1E1E",
"[ 	c #2B2B2B",
"} 	c #1C1C1C",
"| 	c #252525",
"1 	c #727272",
"2 	c #5A5A5A",
"3 	c #262626",
"4 	c #272727",
"5 	c #666666",
"6 	c #313131",
"7 	c #818181",
"8 	c #3A3A3A",
"9 	c #0D0D0D",
"0 	c #3C3C3C",
"a 	c #7B7B7B",
"b 	c #2E2E2E",
"c 	c #515151",
"d 	c #5C5C5C",
"e 	c #151515",
"f 	c #505050",
"g 	c #898989",
"h 	c #909090",
"i 	c #959595",
"j 	c #4D4D4D",
"k 	c #969696",
"l 	c #676767",
"m 	c #4E4E4E",
"n 	c #737373",
"o 	c #383838",
"p 	c #4C4C4C",
"q 	c #616161",
"r 	c #656565",
"s 	c #878787",
"t 	c #979797",
"u 	c #707070",
"v 	c #525252",
"w 	c #949494",
"x 	c #171717",
"y 	c #3F3F3F",
"z 	c #2A2A2A",
"A 	c #797979",
"B 	c #8E8E8E",
"C 	c #787878",
"D 	c #838383",
"E 	c #7D7D7D",
"F 	c #5F5F5F",
"G 	c #585858",
"H 	c #989898",
"I 	c #848484",
"J 	c #464646",
"K 	c #595959",
"L 	c #131313",
"M 	c #434343",
"N 	c #8A8A8A",
"O 	c #717171",
"P 	c #636363",
"Q 	c #919191",
"R 	c #1D1D1D",
"S 	c #767676",
"T 	c #393939",
"U 	c #858585",
"V 	c #929292",
"W 	c #5D5D5D",
"X 	c #888888",
"Y 	c #868686",
"Z 	c #8C8C8C",
"` 	c #565656",
" .	c #0F0F0F",
"..	c #4B4B4B",
"+.	c #686868",
"@.	c #6A6A6A",
"#.	c #545454",
"$.	c #8F8F8F",
"%.	c #8D8D8D",
"&.	c #212121",
"*.	c #4F4F4F",
"=.	c #292929",
"-.	c #6B6B6B",
";.	c #828282",
">.	c #939393",
",.	c #7F7F7F",
"'.	c #454545",
").	c #7A7A7A",
"!.	c #4A4A4A",
"~.	c #535353",
"{.	c #2C2C2C",
"].	c #414141",
"^.	c #747474",
"/.	c #303030",
"(.	c #2F2F2F",
"_.	c #646464",
":.	c #808080",
"<.	c #404040",
"[.	c #385E37",
"}.	c #638862",
"|.	c #474747",
"1.	c #1F1F1F",
"2.	c #484848",
"3.	c #404640",
"4.	c #25621F",
"5.	c #7ADA50",
"6.	c #6BC749",
"7.	c #7E8B7E",
"8.	c #687368",
"9.	c #6D786D",
"0.	c #828E82",
"a.	c #858F85",
"b.	c #878B87",
"c.	c #3E3E3E",
"d.	c #7E7E7E",
"e.	c #3F8137",
"f.	c #98FB64",
"g.	c #8BEC5E",
"h.	c #87EF5A",
"i.	c #53BA37",
"j.	c #55BC38",
"k.	c #4CB233",
"l.	c #2C8321",
"m.	c #1E421E",
"n.	c #434443",
"o.	c #3B3B3B",
"p.	c #7C7C7C",
"q.	c #568056",
"r.	c #73DD4D",
"s.	c #7EE259",
"t.	c #7CDF58",
"u.	c #7FE459",
"v.	c #82E75A",
"w.	c #82E75B",
"x.	c #83EB5A",
"y.	c #75E04E",
"z.	c #347D2A",
"A.	c #515B51",
"B.	c #222222",
"C.	c #8B8B8B",
"D.	c #365437",
"E.	c #56BD3D",
"F.	c #75E054",
"G.	c #71D854",
"H.	c #76E152",
"I.	c #75E052",
"J.	c #75E152",
"K.	c #75E153",
"L.	c #74DC54",
"M.	c #72D854",
"N.	c #78E652",
"O.	c #327B2C",
"P.	c #2D502F",
"Q.	c #5AC83E",
"R.	c #6CDC4E",
"S.	c #5CCA40",
"T.	c #256E2A",
"U.	c #2A7530",
"V.	c #1F6B24",
"W.	c #29722F",
"X.	c #257526",
"Y.	c #56C43B",
"Z.	c #6BD94E",
"`.	c #66D050",
" +	c #5CCC40",
".+	c #4F514F",
"++	c #537057",
"@+	c #399930",
"#+	c #3A9334",
"$+	c #939593",
"%+	c #878888",
"&+	c #555955",
"*+	c #7E7F7E",
"=+	c #858885",
"-+	c #315235",
";+	c #51C538",
">+	c #5CCB4B",
",+	c #5ED146",
"'+	c #0C6316",
")+	c #3D3D3D",
"!+	c #0E0E0E",
"~+	c #606060",
"{+	c #4D574F",
"]+	c #6E7770",
"^+	c #555555",
"/+	c #191D1A",
"(+	c #1E7E22",
"_+	c #52C845",
":+	c #52C943",
"<+	c #15701F",
"[+	c #343434",
"}+	c #070807",
"|+	c #197621",
"1+	c #47C040",
"2+	c #47C13D",
"3+	c #116A20",
"4+	c #0A0A0A",
"5+	c #414342",
"6+	c #157222",
"7+	c #3BB83B",
"8+	c #3BB938",
"9+	c #0E6620",
"0+	c #111111",
"a+	c #6F7371",
"b+	c #116B21",
"c+	c #2FB035",
"d+	c #2FB132",
"e+	c #0B6021",
"f+	c #3C3F3E",
"g+	c #0C6521",
"h+	c #23A82F",
"i+	c #23A92B",
"j+	c #085A22",
"k+	c #353535",
"l+	c #070707",
"m+	c #086120",
"n+	c #179F2B",
"o+	c #17A027",
"p+	c #055624",
"q+	c #202020",
"r+	c #161616",
"s+	c #035125",
"t+	c #0B9811",
"u+	c #0A9610",
"v+	c #024729",
"w+	c #282828",
"x+	c #1A1A1A",
"                          . + @ # $ % &                         ",
"                    * = - ; > , ' ) & ! ~ .                     ",
"                  { ] ^ / , ( _ : < [ } | % 1                   ",
"                ; 2 3 4 5 ! 1 $ 6 ; 7 8 ' 9 0 a b               ",
"              c d e 6 f g h i $ j - k l m 8 , [ n               ",
"            o ! 9 p q r s t i u v $ k w a 1 q x y l             ",
"            ! z b A B C D t E F G 7 t H 7 I l J , ] j           ",
"          j K L M n N t H i 1 O m P Q H k n = 5 R : S           ",
"          $ ( T U I I H H H V W 2 1 X H h Y Z ! `  .d q         ",
"        ..+./ r k k H H H H t @.#.$.H H H i V %.1 &.8 C         ",
"        + *.=.-.N H H H H %.V ;.C i H H H >.H w ,.G =.S '.      ",
"        n y { E k H H H H $ ..h t A ).H H H H h @ !.} @ ~.      ",
"        S 6 ( + 1 B H H H n {.].F : r >.H H Q + ^.1 e ! `       ",
"        - 3 W -.E w H H k O /.4 b | +.V H H H w H I ) 2 c       ",
"        A z S w V k V H t 1 [ (._ ( _.k H Z s k i Y 8 p j       ",
"      y ~ /.I Z k :.n k k + {.<.{ 3 [.}.k A s t Y # { |.K       ",
"      & C 1.l = k N a >.$.]./.2.3.4.5.6.7.8.9.0.a.b.{ |.d       ",
"      c.)., A d.;.Y u %.u | & 7 e.f.g.h.i.j.j.j.k.l.m.n.#       ",
"      o.p.x % + ` + h k o o $.q.r.s.t.u.v.v.v.v.w.x.y.z.A.      ",
"      * 7 B.# O d.Q H >.{.E C.D.E.F.G.H.I.J.J.J.K.L.M.N.O.      ",
"        ;.z = S - k H i ] H U K P.Q.R.S.T.U.V.W.X.Y.Z.`. +      ",
"        $ |.> ~ E ^.Q H H E 7 K .+++@+#+$+%+&+*+=+-+;+>+,+'+    ",
"        )+- !+~.l 7 >.H H s r l ~+r {+]+H k ^+n + /+(+_+:+<+    ",
"          p.T [+a u N H H %.d.-.*.o./...c ~./.y [ }+|+1+2+3+    ",
"          '.$.4+8 ,.C k H H Q ! ^+:.g Z @ :.# P !+5+6+7+8+9+    ",
"            ,.0 L l d B Q t V 5 *.%.t t C d.f 0+x a+b+c+d+e+    ",
"            /.N {.x @.A X :.k ^.*.B h 7 @ l x !+u f+g+h+i+j+    ",
"              0 ;.6  .k+` 7 s ^.y P D ] > l+0++.2.  m+n+o+p+    ",
"                  ! f !+4+{.'.<.} q+r+l+ .<.& 8     s+t+u+v+    ",
"                    y #.c.w+x+} 1.: k+J p T                     ",
"                        4 T 8 y o k+{.B.                        ",
"                                                                "};
