/* XPM */
static const char * save_all[] = {
"32 32 699 2",
"  	c None",
". 	c #0E0F90",
"+ 	c #2C37A8",
"@ 	c #2E39AB",
"# 	c #2D38AA",
"$ 	c #2C39AA",
"% 	c #2D36A4",
"& 	c #3B3B9A",
"* 	c #3D3D9C",
"= 	c #3E3D9B",
"- 	c #36389C",
"; 	c #2D38AB",
"> 	c #2E39AA",
", 	c #121694",
"' 	c #0C0B90",
") 	c #5586DD",
"! 	c #4DA3FF",
"~ 	c #4DA0FF",
"{ 	c #499EFF",
"] 	c #7CB9FF",
"^ 	c #9FCCFF",
"/ 	c #99BAE7",
"( 	c #D8D7DA",
"_ 	c #E4E3E6",
": 	c #E1E1E4",
"< 	c #EBE8E4",
"[ 	c #A9B1D4",
"} 	c #5999F7",
"| 	c #71B9FF",
"1 	c #74BAFF",
"2 	c #71A4E9",
"3 	c #1C229D",
"4 	c #2931A4",
"5 	c #4EA4FF",
"6 	c #1F84FF",
"7 	c #2888FF",
"8 	c #2386FF",
"9 	c #63A5FE",
"0 	c #8DB8FF",
"a 	c #89A9E5",
"b 	c #B9B8C7",
"c 	c #BDBDCE",
"d 	c #BCBCCD",
"e 	c #C2C1CF",
"f 	c #C7C5CE",
"g 	c #C0C0CF",
"h 	c #C5C3CC",
"i 	c #8C94C8",
"j 	c #3A7FF7",
"k 	c #5AAAFF",
"l 	c #56A4FF",
"m 	c #78C3FF",
"n 	c #465ABB",
"o 	c #2730A2",
"p 	c #489EFF",
"q 	c #2084FF",
"r 	c #2988FF",
"s 	c #2688FF",
"t 	c #599DFD",
"u 	c #76A4FE",
"v 	c #7E9FE6",
"w 	c #C2C1CE",
"x 	c #C6C6D5",
"y 	c #C5C5D4",
"z 	c #C8C7D5",
"A 	c #CAC7D2",
"B 	c #A7A9C8",
"C 	c #8E97C9",
"D 	c #AEB3CA",
"E 	c #D4D1D4",
"F 	c #929BCD",
"G 	c #3F82F6",
"H 	c #5EABFF",
"I 	c #5BA6FF",
"J 	c #76BDFF",
"K 	c #4659BC",
"L 	c #20249D",
"M 	c #1F249D",
"N 	c #1F239D",
"O 	c #1B209C",
"P 	c #2631A5",
"Q 	c #3552BE",
"R 	c #314EB9",
"S 	c #3551BA",
"T 	c #3451BA",
"U 	c #4156B9",
"V 	c #4856B9",
"W 	c #4C57B2",
"X 	c #6666AD",
"Y 	c #6868AF",
"Z 	c #6767AF",
"` 	c #6365B0",
" .	c #6266B5",
"..	c #3B48B4",
"+.	c #182DBA",
"@.	c #484EB0",
"#.	c #D0CBD4",
"$.	c #A1AAD5",
"%.	c #60ACFF",
"&.	c #5EA8FF",
"*.	c #4358BB",
"=.	c #0C0D90",
"-.	c #5580D6",
";.	c #56A3FB",
">.	c #519CF7",
",.	c #4F9CF7",
"'.	c #7EB5F8",
").	c #96C0F8",
"!.	c #94ABDB",
"~.	c #DAD3D7",
"{.	c #E5E0E3",
"].	c #E2DDE1",
"^.	c #E0DCE2",
"/.	c #DEDCE2",
"(.	c #DEDCE3",
"_.	c #DADAE4",
":.	c #D9D9E3",
"<.	c #E1DFE4",
"[.	c #98A1CF",
"}.	c #4C89ED",
"|.	c #6CACF5",
"1.	c #73B1F5",
"2.	c #5782D6",
"3.	c #6260B0",
"4.	c #A6ADD8",
"5.	c #4486F7",
"6.	c #63AEFF",
"7.	c #60AAFF",
"8.	c #77BEFF",
"9.	c #4156BB",
"0.	c #313DAB",
"a.	c #52A8FF",
"b.	c #2086FF",
"c.	c #2788FF",
"d.	c #66A8FF",
"e.	c #8DBAFF",
"f.	c #8DACE6",
"g.	c #BDBCCA",
"h.	c #C2C2D1",
"i.	c #C0C1D0",
"j.	c #C1C1D0",
"k.	c #C6C5D1",
"l.	c #CAC7D0",
"m.	c #C4C3D1",
"n.	c #C8C6CF",
"o.	c #8892CA",
"p.	c #3880F9",
"q.	c #5DAEFF",
"r.	c #57A7FF",
"s.	c #70BCFE",
"t.	c #6270BC",
"u.	c #9196CF",
"v.	c #4B8DFA",
"w.	c #65AFFF",
"x.	c #64ACFF",
"y.	c #78BFFF",
"z.	c #3E54BB",
"A.	c #3240AE",
"B.	c #4FA3FF",
"C.	c #2686FF",
"D.	c #2E8AFF",
"E.	c #2D8AFF",
"F.	c #60A0FC",
"G.	c #7AA7FC",
"H.	c #83A2E4",
"I.	c #C0BECB",
"J.	c #C3C2D3",
"K.	c #C1C1D2",
"L.	c #C2C2D2",
"M.	c #C1C0D0",
"N.	c #AAADC7",
"O.	c #9EA6C8",
"P.	c #AFB1C8",
"Q.	c #CBC8D0",
"R.	c #8B95CC",
"S.	c #3A81F7",
"T.	c #60ADFF",
"U.	c #5AA6FF",
"V.	c #6EB5FE",
"W.	c #6877C2",
"X.	c #9499D1",
"Y.	c #4E8FF9",
"Z.	c #67B0FF",
"`.	c #66AEFF",
" +	c #3C52BB",
".+	c #303EAD",
"++	c #50A3FF",
"@+	c #318CFF",
"#+	c #318DFF",
"$+	c #5A99FB",
"%+	c #6A98FA",
"&+	c #7D9CE6",
"*+	c #D0CED7",
"=+	c #D3D3DE",
"-+	c #D1D1DD",
";+	c #D2D2DE",
">+	c #D6D3D7",
",+	c #5872D5",
"'+	c #0030EC",
")+	c #798AD1",
"!+	c #E4DEDB",
"~+	c #949ED4",
"{+	c #3D81F8",
"]+	c #63AFFF",
"^+	c #6FB6FE",
"/+	c #6776C2",
"(+	c #9A9FD5",
"_+	c #5090FA",
":+	c #6AB2FF",
"<+	c #69AFFF",
"[+	c #79C0FF",
"}+	c #3951BB",
"|+	c #2F3DAD",
"1+	c #2C8AFF",
"2+	c #338DFF",
"3+	c #348FFF",
"4+	c #5393FB",
"5+	c #5B8AF9",
"6+	c #7797E6",
"7+	c #D8D6DB",
"8+	c #DBDAE2",
"9+	c #D8D8E1",
"0+	c #D9D9E2",
"a+	c #DFDCDB",
"b+	c #516CDB",
"c+	c #0021F2",
"d+	c #7A8CD6",
"e+	c #EDE8DF",
"f+	c #9AA4D7",
"g+	c #3D82F7",
"h+	c #65B0FF",
"i+	c #61A9FF",
"j+	c #6FB5FE",
"k+	c #A6A7D5",
"l+	c #5291FA",
"m+	c #6CB3FF",
"n+	c #6CB0FF",
"o+	c #7AC0FF",
"p+	c #3750BB",
"q+	c #2C3BAD",
"r+	c #308CFF",
"s+	c #368FFF",
"t+	c #3792FF",
"u+	c #4C8CFA",
"v+	c #4B7AF7",
"w+	c #7090E7",
"x+	c #E0DDE0",
"y+	c #E2E1E7",
"z+	c #DFDFE6",
"A+	c #E0E0E7",
"B+	c #E6E4E0",
"C+	c #536EDD",
"D+	c #001FF1",
"E+	c #7E90D9",
"F+	c #F5EFE4",
"G+	c #9FA9DB",
"H+	c #3F83F7",
"I+	c #68B2FF",
"J+	c #63ABFF",
"K+	c #74BBFE",
"L+	c #4D63C1",
"M+	c #4C67DA",
"N+	c #5193FD",
"O+	c #71B6FF",
"P+	c #6FB3FF",
"Q+	c #7BC0FF",
"R+	c #344EBB",
"S+	c #2B3BAD",
"T+	c #328DFF",
"U+	c #3991FF",
"V+	c #3B94FF",
"W+	c #4585FA",
"X+	c #3B6BF5",
"Y+	c #6B8AE8",
"Z+	c #E8E5E4",
"`+	c #E9E8EB",
" @	c #E6E6EA",
".@	c #E7E7EB",
"+@	c #EDEAE4",
"@@	c #5D74DB",
"#@	c #0027EA",
"$@	c #8696D9",
"%@	c #FCF6E8",
"&@	c #A5AFDF",
"*@	c #4184F7",
"=@	c #6AB3FF",
"-@	c #66ADFF",
";@	c #77BBFD",
">@	c #3F5CC4",
",@	c #4687ED",
"'@	c #6AB4FF",
")@	c #6CB1FF",
"!@	c #72B5FF",
"~@	c #7CC1FF",
"{@	c #324CBB",
"]@	c #2839AD",
"^@	c #3590FF",
"/@	c #3C93FF",
"(@	c #3E97FF",
"_@	c #3F7FF8",
":@	c #2C5EF3",
"<@	c #6384E8",
"[@	c #F0EEEA",
"}@	c #F1F1F0",
"|@	c #EEEEEF",
"1@	c #EDEDED",
"2@	c #CCD1E2",
"3@	c #BBC4E3",
"4@	c #D4D7E3",
"5@	c #F9F7EF",
"6@	c #ABB6E3",
"7@	c #4386F8",
"8@	c #6DB5FF",
"9@	c #69AEFF",
"0@	c #75B9FD",
"a@	c #4561C4",
"b@	c #78A7EC",
"c@	c #8FC7FF",
"d@	c #87BEFE",
"e@	c #77B8FF",
"f@	c #2E4ABB",
"g@	c #2638AD",
"h@	c #3891FF",
"i@	c #3E94FF",
"j@	c #4298FF",
"k@	c #3878F8",
"l@	c #1A4DF1",
"m@	c #607FE8",
"n@	c #FFFCEB",
"o@	c #FFFEF1",
"p@	c #FEFBF0",
"q@	c #FEFAF0",
"r@	c #FFFFF1",
"s@	c #FFFFF0",
"t@	c #B7C0E4",
"u@	c #4486F8",
"v@	c #6FB6FF",
"w@	c #71B8FE",
"x@	c #4F65C2",
"y@	c #D2D0E3",
"z@	c #FAF9F4",
"A@	c #CADDF5",
"B@	c #79B8FF",
"C@	c #7BC1FF",
"D@	c #2C48BB",
"E@	c #2436AD",
"F@	c #3B93FF",
"G@	c #4196FF",
"H@	c #449AFF",
"I@	c #3375F7",
"J@	c #1549F0",
"K@	c #3D68EC",
"L@	c #9FB2E7",
"M@	c #9FB2E8",
"N@	c #9DB0E8",
"O@	c #9EB0E8",
"P@	c #9EB1E8",
"Q@	c #9FB1E8",
"R@	c #A4B6E8",
"S@	c #748EE6",
"T@	c #4A8CF9",
"U@	c #72B8FF",
"V@	c #6FB2FF",
"W@	c #71B7FD",
"X@	c #5067C4",
"Y@	c #E0DBED",
"Z@	c #FFFFFD",
"`@	c #CADDF2",
" #	c #79B9FF",
".#	c #2A47BB",
"+#	c #2336AD",
"@#	c #3E95FF",
"##	c #3D94FF",
"$#	c #3F96FF",
"%#	c #4094FF",
"&#	c #4092FE",
"*#	c #3E91FE",
"=#	c #388CFE",
"-#	c #398CFE",
";#	c #3C8EFE",
">#	c #3F90FE",
",#	c #4191FE",
"'#	c #4493FE",
")#	c #4693FE",
"!#	c #4895FE",
"~#	c #4A97FE",
"{#	c #4D99FE",
"]#	c #4F9AFE",
"^#	c #519CFE",
"/#	c #579FFE",
"(#	c #68AEFF",
"_#	c #6CB2FF",
":#	c #71B4FF",
"<#	c #72B7FD",
"[#	c #4E65C4",
"}#	c #C6D9F2",
"|#	c #7CBAFF",
"1#	c #7DC2FF",
"2#	c #2746BB",
"3#	c #2134AD",
"4#	c #4197FF",
"5#	c #60A7FF",
"6#	c #68ABFF",
"7#	c #67ABFE",
"8#	c #69ADFE",
"9#	c #6BAEFE",
"0#	c #6DAFFE",
"a#	c #6EB0FE",
"b#	c #70B1FF",
"c#	c #71B2FF",
"d#	c #73B4FF",
"e#	c #74B4FF",
"f#	c #76B5FF",
"g#	c #77B6FF",
"h#	c #78B7FF",
"i#	c #7AB8FF",
"j#	c #7BB9FF",
"k#	c #7DBAFF",
"l#	c #7FBBFF",
"m#	c #80BAFF",
"n#	c #75B7FF",
"o#	c #72B8FD",
"p#	c #4C64C4",
"q#	c #E1DCED",
"r#	c #FFFFFC",
"s#	c #C3D6EF",
"t#	c #7DBCFF",
"u#	c #7DC3FF",
"v#	c #2543BB",
"w#	c #1E32AD",
"x#	c #4DA2FF",
"y#	c #429AFF",
"z#	c #9FC1EC",
"A#	c #CDD0D6",
"B#	c #C9D0DB",
"C#	c #CAD2DD",
"D#	c #CCD4DE",
"E#	c #CDD5E0",
"F#	c #CED7E1",
"G#	c #D1D8E3",
"H#	c #D1DAE4",
"I#	c #D3DBE5",
"J#	c #D5DCE7",
"K#	c #D6DEE9",
"L#	c #D8E0EA",
"M#	c #D9E0EB",
"N#	c #DBE2ED",
"O#	c #DBE3EE",
"P#	c #DDE6F0",
"Q#	c #DFE6F1",
"R#	c #E5EAF1",
"S#	c #C0D7F7",
"T#	c #75B6FF",
"U#	c #4A62C4",
"V#	c #FFFFFB",
"W#	c #C1D4EE",
"X#	c #7FBDFF",
"Y#	c #7FC4FF",
"Z#	c #2242BB",
"`#	c #1C31AD",
" $	c #4EA2FF",
".$	c #449BFF",
"+$	c #9CBBE3",
"@$	c #E4E0E1",
"#$	c #E8EDF8",
"$$	c #E9ECF7",
"%$	c #ECEFF7",
"&$	c #EEF1F8",
"*$	c #F0F3F8",
"=$	c #F3F5F8",
"-$	c #F5F7F9",
";$	c #F8F8F9",
">$	c #FBFAF9",
",$	c #FDFCFA",
"'$	c #FFFDFA",
")$	c #FEFCFA",
"!$	c #FFFDFB",
"~$	c #FFFEFB",
"{$	c #FFFDF6",
"]$	c #C7DAF3",
"^$	c #76B7FF",
"/$	c #73B8FD",
"($	c #4761C4",
"_$	c #E1DDED",
":$	c #BED2ED",
"<$	c #81BEFF",
"[$	c #80C4FF",
"}$	c #203FBB",
"|$	c #1A30AD",
"1$	c #469CFF",
"2$	c #98B8E2",
"3$	c #E4E3E7",
"4$	c #EAF1FF",
"5$	c #E7EFFF",
"6$	c #EAF0FF",
"7$	c #EDF2FF",
"8$	c #EFF4FF",
"9$	c #F1F6FF",
"0$	c #F4F8FF",
"a$	c #F7F9FF",
"b$	c #F8FBFF",
"c$	c #FBFCFF",
"d$	c #FDFEFF",
"e$	c #FFFFFF",
"f$	c #FFFCF7",
"g$	c #C1D6F2",
"h$	c #77B7FF",
"i$	c #74B9FD",
"j$	c #445FC4",
"k$	c #E1DDEE",
"l$	c #BACEEB",
"m$	c #82BFFF",
"n$	c #81C4FF",
"o$	c #1D3FBB",
"p$	c #182EAD",
"q$	c #95B6E1",
"r$	c #E4E3E5",
"s$	c #EBF2FF",
"t$	c #E6EDFF",
"u$	c #E9EFFF",
"v$	c #EBF1FF",
"w$	c #EEF3FF",
"x$	c #F0F4FF",
"y$	c #F3F7FF",
"z$	c #F5F8FF",
"A$	c #F8F9FF",
"B$	c #FAFBFF",
"C$	c #BED4F1",
"D$	c #415DC4",
"E$	c #E1DCEE",
"F$	c #FFFFFA",
"G$	c #B7CCEA",
"H$	c #84C0FF",
"I$	c #82C5FF",
"J$	c #1A3DBB",
"K$	c #162DAD",
"L$	c #4CA0FF",
"M$	c #92B4E0",
"N$	c #E4E2E5",
"O$	c #EEF4FF",
"P$	c #E7EEFF",
"Q$	c #E6EEFF",
"R$	c #ECF1FF",
"S$	c #F7FAFF",
"T$	c #FDFDFF",
"U$	c #FEFBF6",
"V$	c #BBD1F0",
"W$	c #7BBAFF",
"X$	c #76B9FD",
"Y$	c #E0DCEE",
"Z$	c #FFFFF9",
"`$	c #B4CAE9",
" %	c #86C1FF",
".%	c #83C5FF",
"+%	c #183BBB",
"@%	c #142CAD",
"#%	c #4EA3FF",
"$%	c #4EA1FF",
"%%	c #8FB1DF",
"&%	c #E4E3E3",
"*%	c #F1F5FF",
"=%	c #EDF4FF",
"-%	c #F3F6FF",
";%	c #F6FAFF",
">%	c #FAFAFF",
",%	c #FCFDFF",
"'%	c #FEFAF5",
")%	c #B7CFEF",
"!%	c #7CBBFF",
"~%	c #76BBFD",
"{%	c #3C59C4",
"]%	c #E0DBEE",
"^%	c #FFFEF8",
"/%	c #B1C7E7",
"(%	c #87C1FF",
"_%	c #84C7FF",
":%	c #153ABC",
"<%	c #122AAD",
"[%	c #51A3FF",
"}%	c #8CAEDD",
"|%	c #E4E2E3",
"1%	c #F2F7FF",
"2%	c #E9F0FF",
"3%	c #F6F8FF",
"4%	c #F8FAFF",
"5%	c #F9FBFF",
"6%	c #FEF9F4",
"7%	c #B4CCED",
"8%	c #3B5AC4",
"9%	c #E3DEEE",
"0%	c #FFFFF8",
"a%	c #B5CAE5",
"b%	c #90C8FF",
"c%	c #8ACEFF",
"d%	c #1438BB",
"e%	c #1029AD",
"f%	c #4FA2FF",
"g%	c #55A5FF",
"h%	c #89ACDC",
"i%	c #E4E2E2",
"j%	c #EFF3FF",
"k%	c #E7EDFF",
"l%	c #F0F5FF",
"m%	c #FAFCFF",
"n%	c #FEFFFF",
"o%	c #FDF9F4",
"p%	c #B1CAEB",
"q%	c #80BEFF",
"r%	c #7ABDFE",
"s%	c #3152C1",
"t%	c #B0BEE3",
"u%	c #CEE0EF",
"v%	c #99BDEA",
"w%	c #76BEFF",
"x%	c #4A8DEC",
"y%	c #02119C",
"z%	c #0E27AD",
"A%	c #52A5FF",
"B%	c #85A9DB",
"C%	c #E5E2E1",
"D%	c #F7FBFF",
"E%	c #EDF3FF",
"F%	c #F2F6FF",
"G%	c #F4F7FF",
"H%	c #FBF7F3",
"I%	c #ADC6EA",
"J%	c #173AB7",
"K%	c #0A1199",
"L%	c #0E1AA4",
"M%	c #0E1CA5",
"N%	c #0A1BA7",
"O%	c #000A96",
"P%	c #0F2AB2",
"Q%	c #3585DC",
"R%	c #2B77C6",
"S%	c #83A7DB",
"T%	c #E6E3E2",
"U%	c #F9FCFF",
"V%	c #F8F5F2",
"W%	c #AAC4E9",
"X%	c #83C6FF",
"Y%	c #1436B4",
"Z%	c #0C27B0",
"`%	c #4A9BF3",
" &	c #5097E9",
".&	c #86A8DA",
"+&	c #EFE8E1",
"@&	c #FEFEFF",
"#&	c #F4F6FF",
"$&	c #F1F4FF",
"%&	c #F2F5FF",
"&&	c #F5F7FF",
"*&	c #F9FAFF",
"=&	c #FFF9F1",
"-&	c #ADC4E8",
";&	c #8BC4FF",
">&	c #8ACDFF",
",&	c #1135B6",
"'&	c #020D97",
")&	c #357EEB",
"!&	c #56B0FF",
"~&	c #75A9E5",
"{&	c #C3D3DF",
"]&	c #D0E4F5",
"^&	c #CCE1F3",
"/&	c #CCDFF3",
"(&	c #CBDFF3",
"_&	c #CBDFF4",
":&	c #CADFF5",
"<&	c #CADEF5",
"[&	c #C8DEF5",
"}&	c #C8DEF6",
"|&	c #C7DEF7",
"1&	c #C8DEF7",
"2&	c #CADFF7",
"3&	c #CCE1F8",
"4&	c #CDE2F9",
"5&	c #D0E4F9",
"6&	c #D2E7FB",
"7&	c #D4E4F0",
"8&	c #97C1EF",
"9&	c #7AC2FF",
"0&	c #5699F1",
"a&	c #020E99",
"b&	c #0B2FB8",
"c&	c #1031B6",
"d&	c #132EB1",
"e&	c #122CB0",
"f&	c #122DB1",
"g&	c #132DB1",
"h&	c #142EB1",
"i&	c #142FB1",
"j&	c #152FB2",
"k&	c #162FB3",
"l&	c #1630B3",
"m&	c #1731B3",
"n&	c #1533B7",
"o&	c #0F32B9",
"p&	c #03119D",
"                                                                ",
"              . + @ # # $ % & * * * * * * * * * * = - # ; > ,   ",
"            ' ) ! ~ { ] ^ / ( _ : : : : : : : : : < [ } | 1 2 3 ",
"            4 5 6 7 8 9 0 a b c d d d d d d e f g h i j k l m n ",
"            o p q r s t u v w x y y y y z A B C D E F G H I J K ",
"    L M N O P Q R S T U V W X Y Z Z Z Y `  ...+.@.#.$.G %.&.J *.",
"=.-.;.>.,.'.).!.~.{.].^./.(._.:.:.:.:.<.[.}.|.1.2.3.4.5.6.7.8.9.",
"0.a.b.c.s d.e.f.g.h.i.i.i.i.j.j.k.l.m.n.o.p.q.r.s.t.u.v.w.x.y.z.",
"A.B.C.D.E.F.G.H.I.J.K.K.K.K.L.M.N.O.P.Q.R.S.T.U.V.W.X.Y.Z.`.y. +",
".+++r @+#+$+%+&+*+=+-+-+-+-+;+>+,+'+)+!+~+{+]+&.^+/+(+_+:+<+[+}+",
"|+B.1+2+3+4+5+6+7+8+9+9+9+9+0+a+b+c+d+e+f+g+h+i+j+W.k+l+m+n+o+p+",
"q+B.r+s+t+u+v+w+x+y+z+z+z+z+A+B+C+D+E+F+G+H+I+J+K+L+M+N+O+P+Q+R+",
"S+++T+U+V+W+X+Y+Z+`+ @ @ @ @.@+@@@#@$@%@&@*@=@-@;@>@,@'@)@!@~@{@",
"]@B.^@/@(@_@:@<@[@}@|@|@|@|@|@1@2@3@4@5@6@7@8@9@0@a@b@c@d@e@~@f@",
"g@B.h@i@j@k@l@m@n@o@p@p@p@q@q@q@r@r@o@s@t@u@v@n+w@x@y@z@A@B@C@D@",
"E@B.F@G@H@I@J@K@L@M@N@O@O@O@P@P@P@O@Q@R@S@T@U@V@W@X@Y@Z@`@ #~@.#",
"+#++@###$#%#&#*#=#-#;#>#,#'#)#!#~#{#]#^#/#(#_#:#<#[#Y@Z@}#|#1#2#",
"3#B.4#5#6#7#8#9#0#a#b#c#d#e#f#g#h#i#j#k#l#l#m#n#o#p#q#r#s#t#u#v#",
"w#x#y#z#A#B#C#D#E#F#G#H#I#J#K#L#M#N#O#P#Q#R#S#T#o#U#q#V#W#X#Y#Z#",
"`# $.$+$@$#$$$%$&$*$=$-$;$>$,$'$)$!$!$~$Z@{$]$^$/$($_$V#:$<$[$}$",
"|$x#1$2$3$4$5$6$7$8$9$0$a$b$c$d$e$e$e$e$e$f$g$h$i$j$k$V#l$m$n$o$",
"p$ ${ q$r$s$t$t$u$v$w$x$y$z$A$B$d$e$e$e$e$f$C$ #0@D$E$F$G$H$I$J$",
"K$ $L$M$N$O$u$P$Q$u$R$w$x$y$z$S$B$T$e$e$e$U$V$W$X$>@Y$Z$`$ %.%+%",
"@%#%$%%%&%*%v$u$Q$t$u$R$=%x$-%z$;%>%,%e$e$'%)%!%~%{%]%^%/%(%_%:%",
"<% $[%}%|%1%7$s$2%P$t$u$R$w$x$-%3%4%5%T$e$6%7%X#;@8%9%0%a%b%c%d%",
"e%f%g%h%i%z$j%7$v$2%k%t$u$R$w$l%-%z$S$m%n%o%p%q%r%s%t%u%v%w%x%y%",
"z%x#A%B%C%D%*%x$w$R$2%P$t$u$v$E%x$F%G%;%c$H%I%m$n$J%K%L%M%N%O%  ",
"P%Q%R%S%T%U%-%9$8$w$v$6$P$t$u$R$w$l%F%z$5%V%W%H$X%Y%            ",
"Z%`% &.&+&e$e$@&,%B$a$3%#&$&x$%&&&a$*&,%e$=&-&;&>&,&            ",
"'&)&!&~&{&]&^&/&(&_&:&<&[&}&|&1&2&3&4&5&6&7&8&9&0&y%            ",
"  a&b&c&d&e&e&e&f&g&d&d&h&i&j&j&j&j&k&k&l&m&n&o&p&              ",
"                                                                "};
