/* XPM */
static const char *snapshot[] = {
/* columns rows colors chars-per-pixel */
"32 32 204 2",
"   c #000000",
".  c #0B0B0B",
"X  c #0B0B15",
"o  c #131313",
"O  c #1B1B1B",
"+  c #151522",
"@  c #212121",
"#  c #2C2C2C",
"$  c #333333",
"%  c #3E3E3E",
"&  c #0C2D58",
"*  c #022570",
"=  c #133F68",
"-  c #292945",
";  c #29294A",
":  c #373751",
">  c #393952",
",  c #404040",
"<  c #47474F",
"1  c #4B4B4B",
"2  c #535353",
"3  c #52535B",
"4  c gray37",
"5  c #4F506F",
"6  c #504F6F",
"7  c #515172",
"8  c #656669",
"9  c #6F6F6F",
"0  c #6B6B72",
"q  c #70706F",
"w  c #737373",
"e  c #7A7A7A",
"r  c #143883",
"t  c #19498F",
"y  c #1F528E",
"u  c #255391",
"i  c #2B5B93",
"p  c #326394",
"a  c #376B9B",
"s  c #3063A5",
"d  c #3C6EAA",
"f  c #3E71AB",
"g  c #3F72B0",
"h  c #1149D3",
"j  c #194ED0",
"k  c #1C52D0",
"l  c #245AD2",
"z  c #2A62D3",
"x  c #326AD4",
"c  c #396FD3",
"v  c #3C72D1",
"b  c #3362EA",
"n  c #3F6CED",
"m  c #476591",
"M  c #4175AB",
"N  c #4479AC",
"B  c #487DAD",
"V  c #677283",
"C  c #697484",
"Z  c #697788",
"A  c #6A7888",
"S  c #737681",
"D  c #757189",
"F  c #4076D2",
"G  c #447AD2",
"H  c #487ED2",
"J  c #426FEC",
"K  c #4572EB",
"L  c #4976EC",
"P  c #4D7AEC",
"I  c #517EEA",
"U  c #627FC6",
"Y  c #4983B4",
"T  c #7D889B",
"R  c #7381A8",
"E  c #7485B6",
"W  c #7384B8",
"Q  c #7688B5",
"!  c #4C82D2",
"~  c #5086D3",
"^  c #538AD3",
"/  c #5B94D5",
"(  c #5683EB",
")  c #799DD9",
"_  c #6295FF",
"`  c #6499FB",
"'  c #6B9DF7",
"]  c #6A9EFB",
"[  c #759DE1",
"{  c #709EEB",
"}  c #6EA3FD",
"|  c #78A4ED",
" . c #72A4FA",
".. c #74A9FC",
"X. c #7BACFA",
"o. c #7EB1FC",
"O. c #88847D",
"+. c gray52",
"@. c #898989",
"#. c #8D8A9F",
"$. c #979797",
"%. c #93969A",
"&. c #96989C",
"*. c #9C9690",
"=. c #9C9C9D",
"-. c #8483A8",
";. c #8688A6",
":. c #8B8CA9",
">. c #8D91B4",
",. c #8893BA",
"<. c #9190A0",
"1. c #9B9EA0",
"2. c #9093B7",
"3. c #9497BD",
"4. c #9B9DB4",
"5. c #989BB9",
"6. c #9BA19B",
"7. c #A2A2A2",
"8. c #A3A2AD",
"9. c #A9A9A6",
"0. c #ABABAB",
"q. c #A3A3B5",
"w. c #A6A7BB",
"e. c #ADADBC",
"r. c #B0ADAD",
"t. c #B1AEBE",
"y. c #B4B3AF",
"u. c #B1B1B1",
"i. c #BEBDB4",
"p. c #B9B9B9",
"a. c #8C99C4",
"s. c #9393C1",
"d. c #95A1C7",
"f. c #91A0CD",
"g. c #92A8C3",
"h. c #90A0D1",
"j. c #82B4FA",
"k. c #84B8FC",
"l. c #8BBCFB",
"z. c #A6A6C1",
"x. c #A3A3C9",
"c. c #AEAEC2",
"v. c #AFAFD1",
"b. c #ACB0C3",
"n. c #A4B8D9",
"m. c #AABCD0",
"M. c #B1B1C5",
"N. c #B4B4CA",
"B. c #B7B8C0",
"V. c #BBBBC3",
"C. c #BCBBCD",
"Z. c #B1B1D1",
"A. c #B5B5DE",
"S. c #BEBDD1",
"D. c #B1B6E2",
"F. c #8EC1FE",
"G. c #92C4FC",
"H. c #95C8FF",
"J. c #9ACBFD",
"K. c #9DD0FF",
"L. c #BEC4D0",
"P. c #A2D4FE",
"I. c #A7DBFF",
"U. c #AADDFF",
"Y. c #BDC4E6",
"T. c #BAD5ED",
"R. c #B3EAFF",
"E. c #C2BED1",
"W. c #C0BFEE",
"Q. c #C3C3C3",
"!. c #C4C5CC",
"~. c #C2CFC2",
"^. c #CCCCCC",
"/. c #C3C2D1",
"(. c #CACAD3",
"). c #CDCBDA",
"_. c #CAD2DD",
"`. c #D3D3D4",
"'. c #D4D4D9",
"]. c #D8D6D4",
"[. c #DBDBDC",
"{. c #C0C0EE",
"}. c #C6C6F5",
"|. c #CEDEEF",
" X c #DCDBE0",
".X c #DEDEE9",
"XX c #DEDEFF",
"oX c #E1DFDC",
"OX c #E0DDE0",
"+X c #E4E1DC",
"@X c #EEE9DF",
"#X c #E4E4E4",
"$X c #E5E5EA",
"%X c #E9E4E2",
"&X c #EAE9EA",
"*X c #EDEDF2",
"=X c #F1EFEC",
"-X c #F0EEF3",
";X c #F3F3F3",
":X c #F5F5F9",
">X c #F8F6F2",
",X c #FCF8F4",
"<X c #FEFEFE",
"1X c None",
/* pixels */
"1X1X1X1X1X1X1X1X1X1X1X1X1X1X1X1X1X1X1X1X1X1X1X1X1X1X1X1X1X1X1X1X",
"1X1X1X1X1X1X1X1X1X1X1X1X1X1X1X1X1X1X1X1X1X1X1X1X1X1X1X1X1X1X1X1X",
"1Xw 7.7.1.7.7.7.7.=.6.6.=.=.=.7.=.=.=.=.=.=.=.=.=.1.&.1   1X1X1X",
"1X0.<X<X<X<X<X<X<X<X<X<X<X<X<X<X<X<X<X<X<X<X<X<X<X,X<Xe     1X1X",
"1Xy.,X^.7.7.7.7.7.7.7.6.7.7.7.7.7.7.7.7.7.7.7.7.9.].:Xe     1X1X",
"1X0.<X&.= a p p p p p i i i i i i i i u u u u u & y.<Xw     1X1X",
"1X0.<X%.Y R.U.P.K.K.J.H.G.F.k.o.| [ { ......} } t 9.:X9   ; 1X1X",
"1X0.<X&.B U.P.J.J.H.F.F.F.) a.d.:.<.-.a.h.,.a.h.R 4.C.<.D -.:   ",
"1X0.<X&.N U.J.J.G.G.l.l.k.Q +X&X).S.E.).e.m T *.r.(.C.|.T.Y.7   ",
"1X0.<X&.B P.J.G.G.l.l.j.o.Q +X&X/.c.N.S.8.s g.O.7.<X|.m.n.A.5   ",
"1X0.<X&.N P.G.G.l.l.j.j.o.E +X$X/.b.N.e. X#X,X<X,X:X-X XE.W.5   ",
"1X0.<X&.M K.G.F.l.j.j.j...E +X#X/.M.c.V..X;XoX(.!.'.&X$X(.A.7   ",
"1X0.<X&.f K.G.l.l.j.o.X...E +X&X/.M.e./..X#X!.3 < B. X$X).N.7   ",
"1X0.<X&.f J.l.l.j.j.X.X. .E +X&X/.M.M.)..X#XL.    7.'.$X'.Z.7   ",
"1X0.,X=.f H.l.k.j.j.|  .} W +X$X/.M.e.!..X#X(.0 8 V.'.$X).v.7   ",
"1X0.<X=.f H.l.j.j.| X. .' W +X$X/.M.c.V..X*X+X].).`.&X$X!.A.7   ",
"1X9.<X=.f G.k.j.j.X. . .` W +X&X/.b.C.c.'.-X<X:X,X:X-X XL.Y.7   ",
"1X9.<X=.d l.j.j.X. . .' ` Q %X=X(.M.C.E.V.+X,X<X<X<X.X).XX}.7   ",
"1X9.<X&.d F.j.X. . . .' ` ^ w.b.5.>.>.3.3.>.5.c.e.q.z.v.x.s.>   ",
"1X9.<X1.g H.l.k.j.j. .] ' ` ( P I P L K K n b b r 7..X0 X X .   ",
"1X9.<X1.y / ^ ~ G G G F v c x x z l l l k k j h * i.<Xw         ",
"1X9.;XE.C Z Z C D C C C A 0 A C C C C C C C C V e (.;Xw     1X1X",
"1X0.,X&X>X>X>X>X,X,X<X<X#X`.].oX>X<X,X>X,X,X>X>X;X&X,Xw     1X1X",
"1X+.`.&X=X:X;X;X[.[.#X&X#X#X#X#X&X&X&X&X&X~.&X=X&XOX(.2     1X1X",
"1Xo # % 4 @.9.p.i.Q.`.#X#X&X$X&X#XOXOX[.Q.6.=.e 2 $ @ .     1X1X",
"1X          . o # =.0.u.u.9.7.9.u.u.y.@.O o .             1X1X1X",
"1X1X1X1X1X      % !.^.^.].`.^.^.`.^.^.p.O         1X1X1X1X1X1X1X",
"1X1X1X1X1X1X1X@ @.&X&X&X#X$X&X&X&X&X&X&X2   1X1X1X1X1X1X1X1X1X1X",
"1X1X1X1X1X1X1X2 &.&X%X#X#X#X#X#X#X#X#X&Xw     1X1X1X1X1X1X1X1X1X",
"1X1X1X1X1X1X1X# $ , , , , , , % % % , , @     1X1X1X1X1X1X1X1X1X",
"1X1X1X1X1X1X1X1X                              1X1X1X1X1X1X1X1X1X",
"1X1X1X1X1X1X1X1X1X1X1X1X1X1X1X1X1X1X1X1X1X1X1X1X1X1X1X1X1X1X1X1X"
};
