/* XPM */
static const char * togglelink[] = {
"32 32 141 2",
"  	c None",
". 	c #969696",
"+ 	c #A0A0A0",
"@ 	c #818181",
"# 	c #949494",
"$ 	c #9D9D9D",
"% 	c #959595",
"& 	c #777777",
"* 	c #525252",
"= 	c #363636",
"- 	c #2F2F2F",
"; 	c #3C3C3C",
"> 	c #5D5D5D",
", 	c #838383",
"' 	c #8E8E8E",
") 	c #585858",
"! 	c #2C2C2C",
"~ 	c #313131",
"{ 	c #373737",
"] 	c #4A4A4A",
"^ 	c #434343",
"/ 	c #323232",
"( 	c #3E3E3E",
"_ 	c #333333",
": 	c #3B3B3B",
"< 	c #757575",
"[ 	c #A2A2A2",
"} 	c #7B7B7B",
"| 	c #3F3F3F",
"1 	c #3A3A3A",
"2 	c #7D7D7D",
"3 	c #8C8C8C",
"4 	c #444444",
"5 	c #676767",
"6 	c #9A9A9A",
"7 	c #555555",
"8 	c #303030",
"9 	c #262626",
"0 	c #505050",
"a 	c #A3A3A3",
"b 	c #2D2D2D",
"c 	c #606060",
"d 	c #A1A1A1",
"e 	c #ABABAB",
"f 	c #B1B1B1",
"g 	c #8A8A8A",
"h 	c #B0B0B0",
"i 	c #808080",
"j 	c #646464",
"k 	c #4B4B4B",
"l 	c #8B8B8B",
"m 	c #5A5A5A",
"n 	c #787878",
"o 	c #666666",
"p 	c #848484",
"q 	c #AEAEAE",
"r 	c #9B9B9B",
"s 	c #7F7F7F",
"t 	c #4E4E4E",
"u 	c #939393",
"v 	c #494949",
"w 	c #404040",
"x 	c #A7A7A7",
"y 	c #8F8F8F",
"z 	c #989898",
"A 	c #B2B2B2",
"B 	c #9E9E9E",
"C 	c #7A7A7A",
"D 	c #6D6D6D",
"E 	c #999999",
"F 	c #B3B3B3",
"G 	c #626262",
"H 	c #828282",
"I 	c #2B2B2B",
"J 	c #515151",
"K 	c #A5A5A5",
"L 	c #898989",
"M 	c #AAAAAA",
"N 	c #929292",
"O 	c #414141",
"P 	c #6C6C6C",
"Q 	c #868686",
"R 	c #ADADAD",
"S 	c #A9A9A9",
"T 	c #878787",
"U 	c #6B6B6B",
"V 	c #2A2A2A",
"W 	c #919191",
"X 	c #858585",
"Y 	c #727272",
"Z 	c #AFAFAF",
"` 	c #696969",
" .	c #ACACAC",
"..	c #979797",
"+.	c #A4A4A4",
"@.	c #020204",
"#.	c #5B5B5B",
"$.	c #6E6E6E",
"%.	c #D0D0D1",
"&.	c #B5B5B6",
"*.	c #5A5A5C",
"=.	c #767676",
"-.	c #9A9A98",
";.	c #909090",
">.	c #424242",
",.	c #8D8D8D",
"'.	c #474747",
").	c #4F4F4F",
"!.	c #393939",
"~.	c #464646",
"{.	c #9F9F9F",
"].	c #5E5E5E",
"^.	c #4D4D4D",
"/.	c #343434",
"(.	c #888888",
"_.	c #8F8F91",
":.	c #A6A6A6",
"<.	c #9C9C9C",
"[.	c #454545",
"}.	c #7E7E7E",
"|.	c #747474",
"1.	c #737373",
"2.	c #575757",
"3.	c #565656",
"4.	c #5F5F5F",
"5.	c #252525",
"6.	c #A8A8A8",
"7.	c #6A6A6A",
"8.	c #212121",
"9.	c #202020",
"0.	c #686868",
"a.	c #353535",
"b.	c #222222",
"c.	c #656565",
"d.	c #1E1E1E",
"e.	c #595959",
"f.	c #3D3D3D",
"g.	c #6F6F6F",
"h.	c #232323",
"i.	c #2E2E2E",
"j.	c #484848",
"                        . + @ . #                               ",
"                  $ % & * = - ; > , %                           ",
"                ' ) ! ~ { ] ^ / ( _ : < [                       ",
"              } | 1 & 2 , 3 4 5 6 7 8 9 0 a                     ",
"            @ b 4 c d e f 3 c g h i j k _ | +                   ",
"          l 9 m & n a f f 3 o p h q r , s ~ t +                 ",
"        u v w u x y z A B C D E A F $ $ @ G 8 H                 ",
"        C I J l K A A f L 3 o } M F F N i H = O y               ",
"      l ^ v r r 6 A F F q } P Q $ F R r S T U V D W             ",
"      X b Y Z h A F F F A L ` x A F F f  .+ N ; v u             ",
"    ..D 1 H +.F F F F  .q 6 X  .F F F R F f B C @.@.@.@.@.      ",
"    z #.#.E f F F F F ' 5 R F d # F F F F Z 3 @.$.%.%.&.*.@.    ",
"    W t { =.' M F F F W 4 m T k =. .F F Z s p @.-.@.@.@.  @.    ",
"    ;.>.U H % e F F A ,.k 1 '.1 } S F F F S f @.%.@.' @.%.@.    ",
"    u O L M x F f F F ;.4 | ).!.=.Z F  .[ f A @.%.@.s @.%.@.    ",
"    ' ~.{. .f 6 l f f p O ).c : 5 f F E $ A +.@.&.@.3 @.%.@.    ",
"    N !.s 2 h S . R R j '.].#.4 ^. .f # z R f @.-.@.@.@.%.@.    ",
"    % /.u {.K d g +.E ( v ,.g j 1 (.h s ' . X @._.@.$.@._.@.    ",
"    . 8 < C P n :.f > >.<.A h h ].[. .f N 2 & }.@.@.&.@.@.      ",
"    r 1 P p y a F h [.,  .|.` x M ^.6 F F e z {.#.@.%.@.        ",
"    <.>.p ..# h F f 1.h a & 2.B f :.x F f S W i : @.%.@.        ",
"    $ #.3.l {...e F A d $ 1.4.$ 1.$ F S + $ M |.@.@.%.@.@.      ",
"      ,.9 $.|.u Z F F <.H p Y @ ` # F h z y X @.$.@.&.@._.@.    ",
"      {.~.7 r ' d F F x . 2 < H o $ F F B (.=.@.&.@.@.@.&.@.    ",
"        <.5.> % 6 f F A 6.L 7.{.6.q . e h % ; @.&.@.  @.  @.    ",
"        F ^ b g Y e q F h , > K F F u ,.B >.8.@.&.@.  @.  @.    ",
"          :./.( g E K + h l ` 6.S {.g z ].9.P @.&.@.  @.  @.    ",
"            r /./ 0.i 6 a ' 2.T :.B ` a.b.c.T @.%.@.@.@.  @.    ",
"              # ).d.I e.2 n f.[.v 8 9./.|.,   @.$.  %.  &.@.    ",
"                3 g.>.! h.9 V i._ j.j (.        @.@.@.@.@.      ",
"                      } 7.D 5 n                                 ",
"                                                                "};
