/* XPM */
static const char *zoom_xpm[] = {
/* columns rows colors chars-per-pixel */
"32 32 188 2",
"   c #010101",
".  c #0E0000",
"X  c #0D0D0D",
"o  c #180404",
"O  c #131313",
"+  c #1B1B1B",
"@  c #1C2222",
"#  c #212424",
"$  c #262E2E",
"%  c gray17",
"&  c #2E3131",
"*  c #333333",
"=  c #393939",
"-  c #551A1A",
";  c #670404",
":  c #6D0404",
">  c #750404",
",  c #7D0404",
"<  c #434444",
"1  c #4B4B4B",
"2  c #52514E",
"3  c #535454",
"4  c #5B5B5B",
"5  c #6A4545",
"6  c #684848",
"7  c #605D5A",
"8  c #62605F",
"9  c #626262",
"0  c #686766",
"q  c #6B6C6C",
"w  c #72706F",
"e  c #737272",
"r  c #7B7B7A",
"t  c #6C7D9E",
"y  c #5778C8",
"u  c #7F8387",
"i  c #7C859A",
"p  c #7D8C9A",
"a  c #7682A2",
"s  c #7B92A7",
"d  c #5E86CC",
"f  c #6F89D4",
"g  c #6D8ADD",
"h  c #6D93CB",
"j  c #7387C4",
"k  c #718CDF",
"l  c #7D95DD",
"z  c #618DE2",
"x  c #6C9AE6",
"c  c #7A9EF1",
"v  c #7DA3F1",
"b  c #840000",
"n  c #8B0000",
"m  c #950000",
"M  c #9B0000",
"N  c #A20000",
"B  c #AB0000",
"V  c #A21F04",
"C  c #B40000",
"Z  c #BA0000",
"A  c #A72202",
"S  c #AD3515",
"D  c #BE3303",
"F  c #B73E1A",
"G  c #817F7E",
"H  c #C20000",
"J  c #CC0000",
"K  c #DD0000",
"L  c #C23203",
"P  c #CA3302",
"I  c #D02C00",
"U  c #C25418",
"Y  c #D45D31",
"T  c #CB622A",
"R  c #D1632A",
"E  c #D9652A",
"W  c #DF6337",
"Q  c #FE7E0A",
"!  c #83807D",
"~  c #FF800A",
"^  c #FF951A",
"/  c #FE9A1C",
"(  c #FFB231",
")  c #FFBC34",
"_  c #FFDD4B",
"`  c #F9D555",
"'  c #FEF561",
"]  c #FFFA63",
"[  c #838382",
"{  c #878788",
"}  c #888682",
"|  c #8A8886",
" . c #8D8B89",
".. c #828A95",
"X. c #8A8F97",
"o. c #8F9295",
"O. c #908D88",
"+. c #93908E",
"@. c #959393",
"#. c #989798",
"$. c #9F9D99",
"%. c #8D94A7",
"&. c #8C99A5",
"*. c #8A9DAE",
"=. c #8D98BB",
"-. c #9CA2A4",
";. c #A4A39D",
":. c #A7A6A3",
">. c #ACAAA6",
",. c #ACA9A9",
"<. c #A5AAB0",
"1. c #AAAEB2",
"2. c #A1B0BB",
"3. c #B5B2AB",
"4. c #B7B7B6",
"5. c #B9B7B5",
"6. c #BCB9B5",
"7. c #BEBEBF",
"8. c #8FA2DB",
"9. c #91B4D8",
"0. c #87A0E5",
"q. c #81ACE6",
"w. c #84AAF5",
"e. c #84B4FE",
"r. c #84BDFF",
"t. c #8EBFFF",
"y. c #95BFEC",
"u. c #9CC3E9",
"i. c #95CAFF",
"p. c #9EC3FE",
"a. c #9ACDFF",
"s. c #9ED2FF",
"d. c #BDC4DD",
"f. c #A4C7E4",
"g. c #A0C7ED",
"h. c #A6C0F4",
"j. c #A6CEFF",
"k. c #A3D2FF",
"l. c #ABD5FE",
"z. c #AED8FF",
"x. c #B1CCFE",
"c. c #BDD3E5",
"v. c #BBD6E8",
"b. c #B3D4FE",
"n. c #B3DAFF",
"m. c #BADEFF",
"M. c #BDE0FF",
"N. c #C0BCBA",
"B. c #C3C2BE",
"V. c #D3D8A2",
"C. c #E2C8A1",
"Z. c #E8CEA7",
"A. c #EDEDB7",
"S. c #C4C5C6",
"D. c #C8C6C1",
"F. c #CCC9C5",
"G. c #C9CACA",
"H. c #C0CCD7",
"J. c #C6CBDC",
"K. c #CAD2D5",
"L. c #D3D0CB",
"P. c #D5D5D5",
"I. c #DFDBDB",
"U. c #C5DAED",
"Y. c #CED9E2",
"T. c #C1DDFC",
"R. c #D6DDE2",
"E. c #DEDFE4",
"W. c #C6E0F5",
"Q. c #C4E3FE",
"!. c #CCE3F4",
"~. c #CBE6FE",
"^. c #CDE8FE",
"/. c #D7E1EC",
"(. c #DEE1EA",
"). c #D3E6FF",
"_. c #D3EBFE",
"`. c #DDE3F0",
"'. c #D9EDFF",
"]. c #DEF2FF",
"[. c #E2DFD8",
"{. c #E6E2DE",
"}. c #E5E4E3",
"|. c #E7E7EB",
" X c #E8E6E0",
".X c #E1F3FF",
"XX c gray100",
"oX c None",
/* pixels */
"oXoXoXoXoXoXoXoXoXoXoXoXoXoXoXoXoXoXoXoXoXoXoXoXoXoXoXoXoXoXoXoX",
"oXoXoXoXoXoXoX1 3 8 e [ [ w 3 < * oXoXoXoXoXoXoXoXoXoXoXoXoXoXoX",
"oXoXoXoXoXoX1 e >.F.L.G.S.B.6.;.0 * # oXoXoXoXoXoXoXoXoXoXoXoXoX",
"oXoXoXoX< 4 :.[.d.8.l k g f j =.5.;.< O oXoXoXoXoXoXoXoXoXoXoXoX",
"oXoXoX1 9 D.E.0.c x.~..X'._.b.v y %.3.1 X oXoXoXoXoXoXoXoXoXoXoX",
"oXoX< 3 D.(.c p._.].'..X'.'.'._.b.z a 3.= X oXoXoXoXoXoXoXoXoXoX",
"oXoX< :.|.w.j.~.~.~.~.~._.~.Q.T.m.n.x i $.+   oXoXoXoXoXoXoXoXoX",
"oX< q {.h.t.m.m.T.T.Q.Q.Q.T.m.m.n.z.k.d #.4   oXoXoXoXoXoXoXoXoX",
"oX< >./.e.k.z.n.n.n.m.m.m.m.n.z.l.k.s.r.t O.X oXoXoXoXoXoXoXoXoX",
"oX3 L.T.r.a.k.k.l.z.n.b.z.z.l.k.k.i.i.s.h +.*   oXoXoXoXoXoXoXoX",
"oX0 {.b.i.i.i.s.k.l.k.k.k.k.s.s.i.i.s.z.q.X.2   oXoXoXoXoXoXoXoX",
"oXr }.x.k.k.i.i.i.i.a.i.a.i.i.i.i.k.l.m.y...7   oXoXoXoXoXoXoXoX",
"oXr }.b.n.z.k.s.i.i.i.a.a.i.a.k.l.l.m.Q.g...7   oXoXoXoXoXoXoXoX",
"oXq I.T.m.m.m.n.z.l.k.k.k.l.l.n.m.m.Q.^.u...2   oXoXoXoXoXoXoXoX",
"oX4 D.~.M.~.Q.m.m.m.n.m.m.m.m.M.Q.^.^._.9.{ *   oXoXoXoXoXoXoXoX",
"oX1 >.R.m._.~.~.Q.~.Q.Q.Q.Q.Q.^.^.^._.^.s ! O oXoXoXoXoXoXoXoXoX",
"oX< e P.Q.~._.^.^.~._.^._.~.^._.^.'.].u.u 9   oXoXoXoXoXoXoXoXoX",
"oXoX1 1.I.m.'.'._._._._._._._._.'.].^.p | # o oXoXoXoXoXoXoXoXoX",
"oXoX< 0 7.K.Q.'.'.'.'.'.'.'.].].].^.*.+.q . oXoXoXoXoXoXoXoXoXoX",
"oXoXoX1 e 4.K.W.].'..X.X.X'..X].v.&.O.4.K.5 H J oXoXoXoXoXoXoXoX",
"oXoXoXoX< q :.7.d.U.!._._.!.c.2.o.O.e -.P.I.Z.W Z oXoXoXoXoXoXoX",
"oXoXoXoXoX1 4 u ;.>.,.1.<.-.@.} q < @ 6 ,.H.A.' E Z oXoXoXoXoXoX",
"oXoXoXoXoXoXoX3 4 w r G r e 8 1 = $ oXC C.V.` _ ] E C oXoXoXoXoX",
"oXoXoXoXoXoXoXoXoX3 3 4 4 3 < oXoXoXoXC R ( / ( _ ' R B oXoXoXoX",
"oXoXoXoXoXoXoXoXoXoXoXoXoXoXoXoXoXoXoXoXN I Q ^ ( _ ] R M oXoXoX",
"oXoXoXoXoXoXoXoXoXoXoXoXoXoXoXoXoXoXoXoXoXM P Q ^ ( _ ] R M oXoX",
"oXoXoXoXoXoXoXoXoXoXoXoXoXoXoXoXoXoXoXoXoXoXM P ~ ^ ( _ ' T M oX",
"oXoXoXoXoXoXoXoXoXoXoXoXoXoXoXoXoXoXoXoXoXoXoXm L Q ^ ( _ ] F oX",
"oXoXoXoXoXoXoXoXoXoXoXoXoXoXoXoXoXoXoXoXoXoXoXm n D Q ^ ) _ S oX",
"oXoXoXoXoXoXoXoXoXoXoXoXoXoXoXoXoXoXoXoXoXoXoXoXoXb D ~ / U b oX",
"oXoXoXoXoXoXoXoXoXoXoXoXoXoXoXoXoXoXoXoXoXoXoXoXoXoXb A V b n oX",
"oXoXoXoXoXoXoXoXoXoXoXoXoXoXoXoXoXoXoXoXoXoXoXoXoXoXoXoXoXoXoXoX"
};
